<svg id="Capa_1" enable-background="new 0 0 512 512" height="512" viewBox="0 0 512 512" width="512" xmlns="http://www.w3.org/2000/svg"><g><path d="m512 256c0 88.366-44.772 166.274-112.868 212.279-40.858 27.603-244.838 27.789-285.556.477-68.494-45.942-113.576-124.084-113.576-212.756 0-141.385 114.615-256 256-256s256 114.615 256 256z" fill="#95d6a4"/><g><path d="m398.41 468.76c-12.34 8.28-25.44 15.52-39.18 21.57-10.65 4.7-21.68 8.7-33.03 11.92-15.31 4.36-31.2 7.33-47.54 8.76-4.99.44-10.02.74-15.1.88-2.51.07-5.03.11-7.56.11-2.54 0-5.06-.04-7.58-.11-5.07-.15-10.11-.45-15.1-.88-16.33-1.44-32.22-4.4-47.52-8.75-7.24-2.06-14.36-4.44-21.33-7.12-.43-.16-.86-.32-1.29-.49-3.51-1.36-6.98-2.81-10.41-4.32-13.74-6.06-26.84-13.29-39.19-21.58 10.39-14.37 23.76-26.43 39.19-35.32 10.2-5.87 21.3-10.34 33.03-13.15 1.81-.44 3.64-.84 5.48-1.19 3.47-.68 7-1.2 10.57-1.57 1.03-.11 2.05-.21 3.09-.29 3.38-.28 6.8-.42 10.26-.42h81.59c4.52 0 8.97.24 13.35.7 3.57.37 7.09.9 10.57 1.56 1.39.27 2.77.56 4.14.87.45.12.91.21 1.35.33 11.74 2.82 22.83 7.29 33.03 13.16 15.43 8.9 28.79 20.96 39.18 35.33z" fill="#ddeafb"/><g fill="#cbe2ff"><path d="m294.75 457.86-31.19 54.03c-2.51.07-5.03.11-7.56.11-2.54 0-5.06-.04-7.58-.11l-31.2-54.03z"/><path d="m215.2 416.81c-29.36 0-49.26 42.43-50.73 78.33-.43-.16-.86-.32-1.29-.49-3.51-1.36-6.98-2.81-10.41-4.32-13.74-6.06-26.84-13.29-39.19-21.58 10.39-14.37 23.76-26.43 39.19-35.32 10.2-5.87 21.3-10.34 33.03-13.15 1.81-.44 3.64-.84 5.48-1.19 3.47-.68 7-1.2 10.57-1.57 1.03-.11 2.05-.21 3.09-.29 3.38-.28 6.8-.42 10.26-.42z"/><path d="m255.987 468.111-52.994 29.451-16.121-79.986 32.929-14.393"/><path d="m255.987 468.111 52.994 29.451 16.121-79.986-32.928-14.393"/></g><path d="m300.706 368.538v54.869c0 20.088-13.245 37.067-31.489 42.707-4.176 1.296-8.627 1.997-13.23 1.997-24.691 0-44.703-20.012-44.703-44.703v-54.869h89.422z" fill="#ffcbbe"/><path d="m300.706 419.932v3.475c0 20.088-13.245 37.067-31.489 42.707-16.461-5.06-28.837-19.372-31.123-36.884 2.987.183 5.99.274 9.008.274 8.459 0 16.75-.671 24.828-1.997 9.953-1.6 19.57-4.161 28.776-7.575z" fill="#ffddce"/><g><path d="m132.54 278.153c0 20.497-14.973 37.492-34.579 40.646-2.143.347-4.347.528-6.596.528-22.746 0-41.175-18.429-41.175-41.175s18.429-41.175 41.175-41.175c2.249 0 4.453.181 6.596.528 19.606 3.156 34.579 20.152 34.579 40.648z" fill="#ffddce"/><path d="m132.54 278.153c0 20.497-14.973 37.492-34.579 40.646-3.562-12.95-5.464-26.579-5.464-40.646s1.902-27.696 5.464-40.646c19.606 3.154 34.579 20.15 34.579 40.646z" fill="#ffcbbe"/><circle cx="91.365" cy="278.153" fill="#ffcbbe" r="14.716"/><path d="m379.449 278.153c0 20.497 14.973 37.492 34.579 40.646 2.143.347 4.347.528 6.596.528 22.746 0 41.175-18.429 41.175-41.175s-18.429-41.175-41.175-41.175c-2.249 0-4.453.181-6.596.528-19.606 3.156-34.579 20.152-34.579 40.648z" fill="#ffddce"/><g fill="#ffcbbe"><path d="m379.449 278.153c0 20.497 14.973 37.492 34.579 40.646 3.562-12.95 5.464-26.579 5.464-40.646s-1.902-27.696-5.464-40.646c-19.606 3.154-34.579 20.15-34.579 40.646z"/><circle cx="420.624" cy="278.153" r="14.716"/></g></g><path d="m374.709 99.01 35.991 157.5c0 2.71-.07 5.41-.21 8.09-3.78 73.34-58.63 133.18-129.67 144.62-8.07 1.32-16.37 1.99-24.83 1.99-85.44 0-154.7-69.25-154.7-154.7l15.6-157.5z" fill="#ffddce"/><path d="m410.7 195.19v56.32c0 2.71-.07 5.41-.21 8.09-37.06-16.12-30.55-96.27-30.55-96.27z" fill="#407093"/><path d="m283.243 408.81c-.8.14-1.61.28-2.42.41-8.08 1.32-16.37 1.99-24.83 1.99-85.44 0-154.7-69.25-154.7-154.7l15.597-157.5h38.953v157.5c0 76.14 54.98 139.41 127.4 152.3z" fill="#ffcbbe"/><path d="m101.29 195.19v56.32c0 2.71.07 5.41.21 8.09 37.06-16.12 30.55-96.27 30.55-96.27z" fill="#407093"/><path d="m273.544 286.694h-35.098c-4.181 0-7.57-3.389-7.57-7.57 0-4.181 3.389-7.57 7.57-7.57h35.098c4.181 0 7.57 3.389 7.57 7.57 0 4.18-3.389 7.57-7.57 7.57z" fill="#ffcbbe"/><g><path d="m281.34 249.161c0 17.165 13.915 31.08 31.08 31.08s31.08-13.915 31.08-31.08z" fill="#ffcbbe"/><circle cx="312.42" cy="249.161" fill="#353a3d" r="22.287"/><circle cx="321.708" cy="245.228" fill="#fff" r="9.55"/><path d="m168.49 249.161c0 17.165 13.915 31.08 31.08 31.08s31.08-13.915 31.08-31.08z" fill="#ffcbbe"/><circle cx="199.57" cy="249.161" fill="#353a3d" r="22.287"/><path d="m204.782 270.831c-1.67.41-3.42.62-5.21.62-12.31 0-22.29-9.98-22.29-22.29s9.98-22.29 22.29-22.29c1.79 0 3.54.21 5.21.62-9.8 2.34-17.07 11.16-17.07 21.67s7.27 19.33 17.07 21.67z" fill="#202326"/><path d="m317.632 270.831c-1.67.41-3.42.62-5.21.62-12.31 0-22.29-9.98-22.29-22.29s9.98-22.29 22.29-22.29c1.79 0 3.54.21 5.21.62-9.8 2.34-17.07 11.16-17.07 21.67s7.27 19.33 17.07 21.67z" fill="#202326"/><circle cx="208.858" cy="245.228" fill="#fff" r="9.55"/></g><g><path d="m364.039 308.27c-1.804 0-3.546-.979-4.438-2.689-1.275-2.446-.328-5.463 2.115-6.742.404-.212 40.532-21.769 49.454-68.167.521-2.712 3.14-4.485 5.854-3.966 2.712.521 4.487 3.143 3.966 5.854-9.857 51.263-52.82 74.192-54.645 75.143-.737.384-1.527.567-2.306.567z" fill="#ddeafb"/><path d="m147.948 308.269c-.778 0-1.567-.182-2.306-.567-1.824-.951-44.787-23.879-54.645-75.143-.521-2.712 1.254-5.333 3.966-5.854 2.716-.519 5.333 1.254 5.854 3.966 8.922 46.399 49.05 67.955 49.454 68.167 2.441 1.283 3.388 4.302 2.108 6.747-.891 1.707-2.63 2.684-4.431 2.684z" fill="#cbe2ff"/></g><path d="m375.79 357.82c-3.45 20.32-20.5 35.62-41.03 37.42-52.51 4.62-105.02 4.62-157.53 0-20.53-1.8-37.58-17.1-41.03-37.42-3.05-17.95-7.03-42.37-1.06-62.39 1.95-6.51 7.57-11.25 14.32-11.97 25.63-2.73 53.31-4.4 81.46-5.03 16.66-.36 33.49-.36 50.15 0 28.15.63 55.83 2.3 81.46 5.03 6.75.72 12.37 5.46 14.31 11.97 5.98 20.02 2 44.44-1.05 62.39z" fill="#ddeafb"/><path d="m219.406 397.962c-14.06-.57-28.12-1.47-42.18-2.71-20.53-1.81-37.58-17.11-41.03-37.43-3.05-17.95-7.03-42.37-1.06-62.39 1.95-6.51 7.57-11.25 14.32-11.97 15.29-1.63 31.31-2.88 47.72-3.76-2.48 2.33-4.35 5.32-5.37 8.72-6.94 23.28-2.32 51.68 1.23 72.57 2.72 16.05 12.74 29.4 26.37 36.97z" fill="#cbe2ff"/><g fill="#cbe2ff"><path d="m336.839 324.964c-.112 0-.225-.003-.338-.011-53.421-3.57-107.594-3.569-161.013 0-2.741.184-5.138-1.9-5.322-4.655s1.9-5.138 4.656-5.322c53.862-3.6 108.484-3.6 162.345 0 2.756.184 4.84 2.567 4.656 5.322-.177 2.641-2.375 4.666-4.984 4.666z"/><path d="m343.84 348.011h-175.69c-2.762 0-5-2.239-5-5s2.238-5 5-5h175.69c2.762 0 5 2.239 5 5s-2.238 5-5 5z"/><path d="m255.994 373.746c-27.12 0-54.241-.899-81.172-2.699-2.756-.184-4.84-2.567-4.656-5.322.185-2.755 2.583-4.85 5.322-4.655 53.419 3.569 107.592 3.569 161.013 0 2.742-.195 5.138 1.9 5.322 4.655s-1.9 5.138-4.656 5.322c-26.931 1.8-54.052 2.699-81.173 2.699z"/></g><path d="m281.11 279.12c0 2.09-.85 3.98-2.22 5.35s-3.26 2.22-5.35 2.22h-35.09c-4.18 0-7.57-3.39-7.57-7.57 0-.23.01-.47.04-.69 16.66-.36 33.49-.36 50.15 0 .03.22.04.46.04.69z" fill="#cbe2ff"/><path d="m410.7 23.24v171.95c-83.45-25.48-170.23-30.01-254.86-13.58-18.3 3.54-28.243-5.364-46.293.146l7.343-158.516c18.05-5.51 20.65-10.04 38.95-13.58 84.63-16.43 171.41-11.9 254.86 13.58z" fill="#ddeafb"/><g><path d="m292.148 75c-5.994-.258-11.987-.448-17.981-.578-.131-5.994-.32-11.987-.578-17.981-.098-2.273-1.736-4.21-3.968-4.651-9.085-1.792-18.17-1.792-27.255 0-2.232.44-3.87 2.378-3.968 4.651-.258 5.994-.447 11.987-.578 17.981-5.994.131-11.987.32-17.981.578-2.273.098-4.21 1.736-4.651 3.968-1.792 9.085-1.792 18.17 0 27.255.44 2.232 2.378 3.87 4.651 3.968 5.994.258 11.987.448 17.981.578.131 5.994.32 11.987.578 17.981.098 2.273 1.736 4.21 3.968 4.651 9.085 1.792 18.17 1.792 27.255 0 2.232-.44 3.87-2.378 3.968-4.651.258-5.994.448-11.987.578-17.981 5.994-.131 11.987-.32 17.981-.578 2.273-.098 4.21-1.736 4.651-3.968 1.792-9.085 1.792-18.17 0-27.255-.44-2.232-2.378-3.87-4.651-3.968z" fill="#dd5790"/></g><path d="m155.84 9.66v171.95c-18.3 3.54-36.5 8.07-54.55 13.58v-171.95c18.05-5.51 36.25-10.04 54.55-13.58z" fill="#cbe2ff"/></g></g></svg>