<svg id="Capa_1" enable-background="new 0 0 512 512" height="512" viewBox="0 0 512 512" width="512" xmlns="http://www.w3.org/2000/svg"><g><circle cx="256" cy="256" fill="#90d8f9" r="240.613"/><g><path d="m386.883 384.556c-4.543 4.543-10.487 6.81-16.431 6.81-5.954 0-11.909-2.267-16.442-6.81 9.076 9.076 9.076 23.787 0 32.873-4.533 4.533-10.487 6.81-16.442 6.81-5.944 0-11.888-2.277-16.431-6.81l-15.113-15.113c9.076 9.076 9.076 23.797 0 32.873-4.533 4.533-10.487 6.809-16.431 6.809s-11.888-2.277-16.431-6.799v-.01h-.01c-52.601 39.414-166.282-93.901-196.96-131.832l-11.569-52.714 69.753-81.591c49.964-11.744 97.146-4.141 97.146-4.141l85.886 54.023 69.475 132.749c9.076 9.076 9.076 23.797 0 32.873z" fill="#ffddce"/><path d="m273.151 435.189c-52.601 39.414-166.282-93.901-196.96-131.832l12.434-28.711c44.669 64.778 109.312 133.687 147.409 123.416z" fill="#ffcbbe"/><path d="m434.406 294.23c-3.348 10.219-5.141 20.089-.937 28.691v.01c-18.904 27.527-39.95 38.951-40.538 39.271-1.01-3.853-3.029-7.5-6.047-10.518l-120.377-120.378c-14.886 4.966-30.73 18.265-42.258 29.576-5.656 5.542-13.063 8.375-20.521 8.375-6.099 0-12.228-1.896-17.441-5.748-.391-.288-.783-.587-1.154-.896-.01-.01-.021-.021-.031-.031-10.528-8.633-13.815-23.499-7.634-35.768 24.982-49.624 66.375-70.506 79.169-75.976 2.483-1.061 5.161-1.576 7.86-1.473 12.403.443 24.673 2.936 36.335 6.614 39.425 12.403 71.979 38.343 79.561 44.689 6.768 17.75 55.774 26.548 63.212 44.009 6.233 14.619-3.636 32.555-9.199 49.553z" fill="#b46e59"/><path d="m433.468 322.92v.01c-18.904 27.527-39.95 38.951-40.538 39.271-1.01-3.853-3.029-7.5-6.047-10.518l-73.019-73.019c25.693 25.693 81.281 36.675 106.984 17.76 3.441-2.524 8.087-3.101 13.557-2.194-3.347 10.219-5.14 20.088-.937 28.69z" fill="#a55e4d"/><path d="m185.102 262.583c-10.528-8.633-13.815-23.499-7.634-35.768 24.982-49.624 66.375-70.506 79.169-75.976 2.483-1.061 5.161-1.576 7.86-1.473 12.403.443 24.673 2.936 36.335 6.614-54.743.03-131.801 90.81-115.73 106.603z" fill="#a55e4d"/><g fill="#ffcbbe"><path d="m390.893 379.185c-1.04 1.926-2.38 3.74-4.007 5.367-4.543 4.543-10.487 6.81-16.431 6.81-5.954 0-11.909-2.267-16.442-6.81l-76.788-76.789c3.362-6.042 11.57-7.188 16.459-2.299l69.703 69.713c4.533 4.543 10.487 6.809 16.442 6.809 3.811.001 7.623-.926 11.064-2.801z"/><path d="m310.415 429.118c-1.102 2.194-2.555 4.244-4.378 6.068-4.533 4.533-10.487 6.809-16.442 6.809-5.944 0-11.888-2.277-16.431-6.809l-62.419-62.429c7.457-4.749 17.213-3.68 23.464 2.572l49.411 49.411c4.533 4.533 10.487 6.81 16.431 6.81 3.555-.001 7.109-.815 10.364-2.432z"/><path d="m357.845 412.347c-1.01 1.823-2.297 3.533-3.843 5.079-4.543 4.533-10.487 6.81-16.431 6.81-5.954 0-11.909-2.277-16.442-6.81l-70.218-70.232c5.434-4.626 13.51-4.301 18.556.745l45.46 45.463 15.102 15.113c4.543 4.543 10.487 6.81 16.442 6.81 3.926-.001 7.851-.99 11.374-2.978z"/></g><path d="m448.23 155.268c-26.675 5.147-51.012 15.691-73.011 31.631 18.579 50.223 39.835 99.285 63.768 147.188 17.783-3.431 34.528-9.261 50.233-17.49 13.526-7.087 19.425-23.341 13.884-37.57-16.384-42.079-34.675-83.332-54.874-123.759z" fill="#95d6a4"/><path d="m489.231 316.6c-15.705 8.232-32.451 14.061-50.241 17.49-6.231-12.481-12.273-25.036-18.139-37.664 27.79-5.402 53.187-16.307 76.192-32.728 2.049 5.094 4.07 10.2 6.062 15.318 5.542 14.235-.345 30.493-13.874 37.584z" fill="#78c2a4"/><path d="m63.767 130.982c26.675 5.147 51.012 15.691 73.011 31.631-18.579 50.223-39.835 99.285-63.768 147.188-21.265-4.103-41.044-11.636-59.337-22.599-8.117-4.864-11.515-14.916-8.137-23.756 17.231-45.098 36.642-89.253 58.231-132.464z" fill="#ffd064"/><path d="m13.664 287.204c18.292 10.969 38.072 18.5 59.344 22.601 6.231-12.481 12.273-25.036 18.139-37.664-27.79-5.402-53.187-16.307-76.192-32.728-3.21 7.983-6.352 15.993-9.423 24.032-3.377 8.841.016 18.893 8.132 23.759z" fill="#ffc250"/></g><g fill="#dd5790"><path d="m256 0c-141.38 0-256 114.62-256 256s114.62 256 256 256 256-114.62 256-256-114.62-256-256-256zm0 468.11c-117.15 0-212.11-94.96-212.11-212.11s94.96-212.11 212.11-212.11 212.11 94.96 212.11 212.11-94.96 212.11-212.11 212.11z"/><path d="m230.713 19.281h50.574v473.438h-50.574z" transform="matrix(.707 .707 -.707 .707 256 -106.039)"/></g></g></svg>