<svg id="Capa_1" enable-background="new 0 0 512 512" height="512" viewBox="0 0 512 512" width="512" xmlns="http://www.w3.org/2000/svg"><g><path d="m512 256c0 141.38-114.62 256-256 256-54.45 0-104.94-17.01-146.43-45.99-21.26-14.85 3.104-54.701-12.756-75.171-16.21-20.91-72.524-22.579-81.674-47.929-9.8-27.13-15.14-56.4-15.14-86.91 0-141.38 114.62-256 256-256s256 114.62 256 256z" fill="#5e54ac"/><g><path d="m63.205 303.044c-16.242 0-29.702-12.696-30.642-28.903-.672-11.46-1.249-23.1-1.716-34.58-2.338-57.486-2.168-115.758.507-173.196.534-11.534 1.179-23.189 1.914-34.635 1.012-15.901 13.8-28.248 29.744-28.706 68.912-2.006 138.758-3.024 207.593-3.024s138.681 1.018 207.603 3.024c15.931.458 28.719 12.802 29.736 28.713.739 11.502 1.383 23.156 1.914 34.634 2.675 57.431 2.845 115.702.507 173.189-.467 11.482-1.044 23.121-1.717 34.595-.939 16.192-14.398 28.888-30.641 28.888h-414.802z" fill="#407093"/><path d="m71.977 303.04h-8.78c-16.24 0-29.7-12.69-30.64-28.9-.67-11.46-1.25-23.1-1.71-34.58-2.34-57.49-2.17-115.76.5-173.19.54-11.54 1.18-23.19 1.92-34.64 1.01-15.9 13.8-28.25 29.74-28.71 3.5-.1 7.01-.2 10.52-.29-11.77 3.87-20.36 14.51-21.18 27.5-.75 11.59-1.4 23.39-1.94 35.07-2.71 58.16-2.88 117.16-.51 175.36.47 11.63 1.06 23.41 1.74 35.02.73 12.67 9.03 23.22 20.34 27.36z" fill="#365e7d"/><path d="m353.847 87.737s66.073 192.793 61.753 192.793h-286.376c-4.32 0 46.254-185.691 46.254-185.691z" fill="#ffe07d"/><path d="m366.08 23.2v106.8h-220.16v-106.329c20.28-.377 40.56-.659 60.81-.848 21.34-.199 42.65-.303 63.88-.303 31.69 0 63.57.22 95.47.68z" fill="#ffd064"/><path d="m236.599 23.2v106.8h-90.679v-106.329c8.353-.377 16.706-.659 25.046-.848 8.79-.199 17.567-.303 26.311-.303 13.053 0 26.183.22 39.322.68z" fill="#ffc250"/><g><path d="m270.607 202.525v154.98h-43.73v-154.98c0-8.12 4.42-15.2 10.99-18.97 3.2-1.85 6.91-2.9 10.87-2.9 12.08 0 21.87 9.79 21.87 21.87z" fill="#407093"/><path d="m292.469 180.657c-12.076 0-21.865 9.789-21.865 21.865l-18.131 154.98h61.862v-154.98c-.001-12.076-9.791-21.865-21.866-21.865z" fill="#407093"/><g fill="#365e7d"><path d="m237.867 183.555v173.95h-10.99v-154.98c0-8.12 4.42-15.2 10.99-18.97z"/><path d="m281.597 183.555v173.95h-10.99v-154.98c0-8.12 4.42-15.2 10.99-18.97z"/></g></g><path d="m206.73 22.81v107.19l-81.12 150.53h-62.41c-4.32 0-7.91-3.37-8.16-7.69-.67-11.38-1.23-22.78-1.7-34.19-2.32-57.01-2.15-114.26.5-171.24.53-11.43 1.16-22.84 1.9-34.24.27-4.21 3.71-7.52 7.92-7.64 47.54-1.38 95.39-2.29 143.07-2.72z" fill="#ffd064"/><path d="m334.48 22.81v107.19l81.12 150.53h62.41c4.32 0 7.91-3.37 8.16-7.69.67-11.38 1.23-22.78 1.7-34.19 2.32-57.01 2.15-114.26-.5-171.24-.53-11.43-1.16-22.84-1.9-34.24-.27-4.21-3.71-7.52-7.92-7.64-47.54-1.38-95.39-2.29-143.07-2.72z" fill="#ffc250"/></g><g><path d="m393.98 348.65c-17.16-53.11-55.87-89.54-91.65-89.4h-197.51c-34.47-.13-71.67 33.68-89.68 83.66 18.1 50.18 51.44 93.07 94.43 123.1 12.14-9.82 23.31-23.26 32.39-39.39 5.98 3.31 12.86 5.19 20.19 5.19 14.72 0 27.67-7.62 35.1-19.14 2.96-4.58 9.69-4.58 12.65 0 7.43 11.52 20.38 19.14 35.11 19.14 7.31 0 14.2-1.88 20.18-5.19 23.52 41.76 61.05 65.46 93.01 55.13 8.92-2.88 16.63-8.17 23-15.31 21.82-24.46 27.97-70.77 12.78-117.79z" fill="#ddeafb"/><circle cx="353.847" cy="353.833" fill="#b1e4f9" r="14.707"/><path d="m381.202 466.437c-6.372 7.147-14.086 12.431-23 15.309-31.962 10.329-69.496-13.366-93.015-55.13 13.503-8.65 19.347-21.944 22.009-28.86-.001.001 35.423 74.086 94.006 68.681z" fill="#cbe2ff"/><path d="m104.62 259.26c-34.42 0-71.51 33.78-89.48 83.65 9.15 25.35 22.18 48.85 38.39 69.76-1.76-19.69.65-41.77 7.84-64.02 17.14-53 55.73-89.39 91.45-89.39z" fill="#cbe2ff"/><circle cx="162.143" cy="390.046" fill="#407093" r="23.724"/><path d="m169.054 412.75c-2.19.664-4.509 1.023-6.915 1.023-13.103 0-23.719-10.625-23.719-23.728s10.617-23.719 23.719-23.719c2.406 0 4.725.36 6.915 1.023-9.737 2.958-16.812 12-16.812 22.696-.001 10.697 7.074 19.747 16.812 22.705z" fill="#365e7d"/><circle cx="282.813" cy="337.561" fill="#dd5790" r="14.707"/><circle cx="325.232" cy="312.113" fill="#95d6a4" r="14.707"/><path d="m328.973 326.337c-1.192.312-2.448.48-3.736.48-8.128 0-14.712-6.584-14.712-14.704s6.584-14.712 14.712-14.712c1.288 0 2.544.168 3.736.48-6.32 1.648-10.976 7.4-10.976 14.232s4.656 12.576 10.976 14.224z" fill="#78c2a4"/><circle cx="245.006" cy="390.046" fill="#407093" r="23.724"/><path d="m251.917 412.75c-2.19.664-4.509 1.023-6.915 1.023-13.103 0-23.719-10.625-23.719-23.728s10.617-23.719 23.719-23.719c2.406 0 4.725.36 6.915 1.023-9.737 2.958-16.812 12-16.812 22.696-.001 10.697 7.074 19.747 16.812 22.705z" fill="#365e7d"/><path d="m122.34 325.445h-10.34v-10.34c0-8.384-6.797-15.181-15.181-15.181h-9.514c-8.384 0-15.181 6.797-15.181 15.181v10.34h-10.34c-8.384 0-15.181 6.797-15.181 15.181v9.514c0 8.384 6.797 15.181 15.181 15.181h10.34v10.34c0 8.384 6.797 15.181 15.181 15.181h9.514c8.384 0 15.181-6.797 15.181-15.181v-10.34h10.34c8.384 0 15.181-6.797 15.181-15.181v-9.514c0-8.385-6.797-15.181-15.181-15.181z" fill="#407093"/><path d="m98.021 390.791c-.4.032-.799.048-1.207.048h-9.513c-8.386 0-15.181-6.795-15.181-15.181v-10.337h-10.338c-8.386 0-15.181-6.795-15.181-15.181v-9.514c0-8.386 6.795-15.181 15.181-15.181h10.337v-10.345c0-8.386 6.795-15.182 15.181-15.182h9.513c.408 0 .807.016 1.207.048-7.827.608-13.982 7.155-13.982 15.134v10.345h-10.336c-8.386 0-15.181 6.795-15.181 15.181v9.514c0 8.386 6.795 15.181 15.181 15.181h10.337v10.337c0 7.978 6.156 14.526 13.982 15.133z" fill="#365e7d"/><path d="m218.728 346.2h-30.307c-5.506 0-9.969-4.463-9.969-9.969 0-5.506 4.463-9.969 9.969-9.969h30.307c5.506 0 9.969 4.463 9.969 9.969 0 5.505-4.464 9.969-9.969 9.969z" fill="#ece6e3"/><path d="m357.587 368.057c-1.192.312-2.448.48-3.736.48-8.128 0-14.712-6.584-14.712-14.704s6.584-14.712 14.712-14.712c1.288 0 2.544.168 3.736.48-6.32 1.648-10.976 7.4-10.976 14.232s4.656 12.576 10.976 14.224z" fill="#90d8f9"/><g><circle cx="311.428" cy="379.281" fill="#ffd064" r="14.707"/><path d="m315.168 393.505c-1.192.312-2.448.48-3.736.48-8.128 0-14.712-6.584-14.712-14.704s6.584-14.712 14.712-14.712c1.288 0 2.544.168 3.736.48-6.32 1.648-10.976 7.4-10.976 14.232.001 6.832 4.657 12.576 10.976 14.224z" fill="#ffc250"/></g><path d="m286.554 351.785c-1.192.312-2.448.48-3.736.48-8.128 0-14.712-6.584-14.712-14.704s6.584-14.712 14.712-14.712c1.288 0 2.544.168 3.736.48-6.32 1.648-10.976 7.4-10.976 14.232s4.656 12.576 10.976 14.224z" fill="#da387d"/></g></g></svg>