<svg id="Capa_1" enable-background="new 0 0 512 512" height="512" viewBox="0 0 512 512" width="512" xmlns="http://www.w3.org/2000/svg"><g><path d="m512 256c0 43.494-10.847 84.454-29.982 120.324 0 0-323.246 70.038-426.438 38.964-34.792-43.717-55.58-99.075-55.58-159.288 0-141.385 114.615-256 256-256s256 114.615 256 256z" fill="#b1e4f9"/><g><path d="m507.32 304.98c1.02-5.28 1.88-10.62 2.57-16.01h-157.47v-80.41h155.19c-1.01-5.4-2.19-10.74-3.54-16.01h-151.65v-80.42h115.35c-3.74-5.5-7.68-10.84-11.83-16.01h-103.52v-77.34c-5.25-2.13-10.59-4.1-16.01-5.89v83.23h-80.41v-96.12c-5.38 0-10.72.17-16.01.5v95.62h-80.41v-77.34c-5.44 2.21-10.77 4.6-16.01 7.18v70.16h-80.42v-8.47c-6.79 7.76-13.11 15.93-18.92 24.48h2.92v80.42h-39.22c-1.35 5.27-2.53 10.61-3.54 16.01h42.76v80.41h-45.04c.69 5.39 1.55 10.73 2.57 16.01h42.47v80.41h-12.08c3.2 5.47 6.61 10.81 10.21 16.01h1.87v2.68c5 7.03 10.33 13.79 16 20.27v-22.95h80.42v84.64c5.24 2.58 10.57 4.97 16.01 7.18v-91.82h80.41v110.1c5.29.33 10.63.5 16.01.5v-110.6h80.41v97.71c5.42-1.79 10.76-3.76 16.01-5.89v-91.82h114.3c3.6-5.2 7.01-10.54 10.21-16.01h-124.51v-80.41zm-363.75 80.41h-80.42v-80.41h80.42zm0-96.42h-80.42v-80.41h80.42zm0-96.42h-80.42v-80.42h80.42zm96.42 192.84h-80.41v-80.41h80.41zm0-96.42h-80.41v-80.41h80.41zm0-96.42h-80.41v-80.42h80.41zm96.42 192.84h-80.41v-80.41h80.41zm0-96.42h-80.41v-80.41h80.41zm0-96.42h-80.41v-80.42h80.41z" fill="#90d8f9"/><g fill="#ddeafb"><path d="m292.325 289.94c-16.477-65.906-56.573-114.146-87.308-143.008-33.335-31.304-63.017-47.118-63.313-47.274l3.732-7.076c1.247.658 30.941 16.48 65.058 48.519 31.517 29.597 72.644 79.107 89.592 146.899z"/><path d="m272.995 315.761c-13.687-70.028-52.189-122.042-82.079-153.345-32.405-33.938-61.814-51.432-62.108-51.604l4.061-6.894c1.236.729 30.667 18.238 63.833 52.973 30.627 32.076 70.086 85.409 84.145 157.336z"/><path d="m253.68 341.599c-10.877-74.048-47.698-129.78-76.671-163.495-31.487-36.64-60.794-55.956-61.086-56.146l4.369-6.702c1.226.799 30.39 19.995 62.604 57.423 29.736 34.55 67.527 91.7 78.7 167.756z"/><path d="m234.374 367.453c-8.083-78.175-43.311-137.688-71.439-173.846-30.56-39.283-59.598-60.295-59.888-60.503l4.657-6.505c1.215.869 30.11 21.749 61.369 61.869 28.845 37.021 64.969 97.983 73.26 178.162z"/><path d="m215.077 393.322c-5.286-82.307-38.919-145.604-66.204-184.211-29.633-41.929-58.404-64.638-58.691-64.863l4.923-6.306c1.204.939 29.828 23.501 60.13 66.309 27.954 39.49 62.412 104.259 67.825 188.558z"/><path d="m195.787 419.204c-2.483-86.442-34.522-153.529-60.961-194.585-28.708-44.578-57.213-68.986-57.498-69.228l5.171-6.104c1.192 1.01 29.542 25.251 58.887 70.744 27.063 41.956 59.857 110.528 62.398 198.943z"/></g><path d="m91.88 441.887-11.709-5.647c15.327-31.781 18.193-56.164 8.762-74.542-8.307-16.189-25.116-26.451-41.371-36.375-10.614-6.48-20.64-12.602-28.299-20.261-11.514-11.514-17.37-28.196-16.934-48.244.733-33.731 18.832-71.683 46.107-96.686l8.784 9.583c-24.409 22.375-41.245 57.492-41.895 87.385-.249 11.448 1.827 27.467 13.129 38.769 6.564 6.564 15.947 12.293 25.881 18.358 16.961 10.355 36.186 22.093 46.163 41.536 11.419 22.25 8.6 50.422-8.618 86.124z" fill="#407093"/><path d="m441.056 415.28c-.97 1.23-1.96 2.44-2.96 3.65-5.81 7.037-1.41 8.982-7.927 15.358-4.106 4.017-3.571 12.674-7.939 16.412-20.68 17.67-44.21 32.1-69.81 42.52-5.25 2.13-10.59 4.1-16.01 5.89-25.29 8.36-52.32 12.89-80.41 12.89-5.38 0-10.72-.17-16.01-.5-28.29-1.74-55.35-8.08-80.41-18.28-5.44-2.21-10.77-4.6-16.01-7.18-2.18-1.07-4.34-2.16-6.48-3.29-28.15-14.78-26.178-34.66-46.908-58.4-2.59-2.96-6.58-2.066-9.02-5.146l59.398-3.924z" fill="#ddeafb"/><path d="m451.57 415.28c-.01.95-5.14 3-3.96 4.44-5.39 6.53-5.57 11.65-10.83 17.51 0 .01-.01.02-.01.03-4.67 4.67-9.53 9.15-14.55 13.43-.22-.37-6.46-10.12-42.53 3.43-36.75 13.82-82.65-3.05-93.2 7.5-10.56 10.56-40.15-3.08-63.43 5.11-23.27 8.18-58.67 4.72-58.67 4.72v-22.44h-36.74c-.23 10.56 2.39 22.23 9.44 33.74-3.517-1.835-6.976-3.775-10.4-5.77-.01 0-.03-.01-.04-.03-12.769-7.48-24.902-16.092-36.18-25.67-12.759-10.818-24.474-22.905-34.88-36h84.97c-5.26 5.25-9.75 13.54-11.78 23.47h43.91c4.83-10.26 0-23.47 0-23.47h27.62l6.22 22.7z" fill="#cbe2ff"/><path d="m482.01 46.79v329.53c-1.64 3.06-3.33 6.09-5.08 9.07-3.2 5.47-6.61 10.81-10.21 16.01-3.28 4.75-6.72 9.38-10.31 13.88-6.12 7.69-12.68 15.03-19.63 21.95-1.65-1.82-10.15-8.18-42.2 3.86-1.27.48-2.55.92-3.85 1.32-16.55 5.22-34.6 4.8-50.27 3.81-18.44-1.18-33.57-3.14-39.08 2.37-.22.22-.46.44-.7.64-6.22 5.23-17.99 3.5-31.15 2.36-10.35-.89-21.55-1.42-31.58 2.11-.34.12-.69.24-1.04.36-11.49 3.82-25.69 4.93-37.12 5.07-11.71.15-20.51-.71-20.51-.71v-411.63c0 13.58 8.33 25.35 20.51 31.17 5.19 2.48 11.08 3.88 17.33 3.88 20.9 0 37.84-15.69 37.84-35.05 0 19.36 16.94 35.05 37.84 35.05s37.84-15.69 37.84-35.05c0 19.36 16.94 35.05 37.84 35.05s37.84-15.69 37.84-35.05c0 19.36 16.95 35.05 37.85 35.05 1.29 0 2.56-.06 3.82-.18 19.1-1.77 34.02-16.7 34.02-34.87z" fill="#ffd064"/><path d="m199.79 77.96v381.17c-11.71.15-20.51-.71-20.51-.71v-411.63c0 13.58 8.33 25.35 20.51 31.17z" fill="#ffc250"/><path d="m76.649 41.795h418.538v20h-418.538z" fill="#ddeafb"/><path d="m157.995 88.811c2.331 3.015 4.461 6.231 6.395 9.644-23.856 26.029-48.804 50.976-74.838 74.838-3.413-1.933-6.633-4.068-9.639-6.4-2.57-1.99-4.986-4.115-7.266-6.395l-30.017 30.017-14.85-14.85s63.827-65.54 96.33-96.901c6.648-6.414 17.092-6.587 24.02-.473 3.615 3.184 6.902 6.685 9.865 10.52z" fill="#ddeafb"/><path d="m156.181 86.564c-6.9-5.12-16.57-4.63-22.84 1.43-32.51 31.36-96.33 96.9-96.33 96.9l-9.23-9.23s63.83-65.54 96.33-96.9c6.65-6.41 17.09-6.59 24.02-.47 2.89 2.55 5.58 5.3 8.05 8.27z" fill="#cbe2ff"/><path d="m157.995 88.811c2.331 3.015 4.461 6.231 6.395 9.644-23.856 26.029-48.804 50.976-74.838 74.838-3.413-1.933-6.633-4.068-9.639-6.4z" fill="#407093"/><g fill="#ffc250"><path d="m254.96 400.635c-4.943 0-8.951-4.007-8.951-8.951v-271.368c0-4.943 4.007-8.951 8.951-8.951 4.943 0 8.951 4.007 8.951 8.951v271.369c0 4.943-4.008 8.95-8.951 8.95z"/><path d="m330.64 400.635c-4.943 0-8.951-4.007-8.951-8.951v-271.368c0-4.943 4.007-8.951 8.951-8.951 4.943 0 8.951 4.007 8.951 8.951v271.369c0 4.943-4.008 8.95-8.951 8.95z"/><path d="m406.32 400.635c-4.943 0-8.951-4.007-8.951-8.951v-271.368c0-4.943 4.007-8.951 8.951-8.951 4.943 0 8.951 4.007 8.951 8.951v271.369c0 4.943-4.008 8.95-8.951 8.95z"/></g><path d="m69.46 181.36c-.99 1.11-2.36 1.67-3.74 1.67-1.18 0-2.37-.41-3.32-1.26l-38.38-34.16c1.46-3.14 2.99-6.24 4.59-9.31l40.44 36c2.06 1.83 2.25 4.99.41 7.06z" fill="#407093"/><g><circle cx="136.239" cy="386.608" fill="#ddeafb" r="21.377"/><path d="m141.561 407.308c-1.7.44-3.48.67-5.32.67-11.81 0-21.38-9.57-21.38-21.37 0-11.81 9.57-21.38 21.38-21.38 1.84 0 3.62.23 5.32.67-9.23 2.36-16.06 10.74-16.06 20.71 0 9.96 6.83 18.34 16.06 20.7z" fill="#cbe2ff"/><circle cx="136.239" cy="386.608" fill="#dd5790" r="9.627"/><path d="m145.865 386.608c0 5.32-4.31 9.63-9.63 9.63-1.26 0-2.46-.24-3.56-.68 3.55-1.42 6.06-4.89 6.06-8.95s-2.51-7.53-6.06-8.95c1.1-.44 2.3-.68 3.56-.68 5.32 0 9.63 4.311 9.63 9.63z" fill="#da387d"/></g><g><circle cx="66.805" cy="386.608" fill="#ddeafb" r="21.377"/><path d="m72.128 407.308c-1.7.44-3.48.67-5.32.67-11.81 0-21.38-9.57-21.38-21.37 0-11.81 9.57-21.38 21.38-21.38 1.84 0 3.62.23 5.32.67-9.23 2.36-16.06 10.74-16.06 20.71 0 9.96 6.83 18.34 16.06 20.7z" fill="#cbe2ff"/><circle cx="66.805" cy="386.608" fill="#b1e4f9" r="9.627"/><path d="m76.432 386.608c0 5.32-4.31 9.63-9.63 9.63-1.26 0-2.46-.24-3.56-.68 3.55-1.42 6.06-4.89 6.06-8.95s-2.51-7.53-6.06-8.95c1.1-.44 2.3-.68 3.56-.68 5.32 0 9.63 4.311 9.63 9.63z" fill="#90d8f9"/></g><path d="m76.649 51.795h418.538v10h-418.538z" fill="#cbe2ff"/></g></g></svg>