<svg id="Capa_1" enable-background="new 0 0 512 512" height="512" viewBox="0 0 512 512" width="512" xmlns="http://www.w3.org/2000/svg"><g><path d="m430.854 256c0 7.47-.32 14.86-.96 22.17-3.08 36.05 67.506 69.96 51.026 100.18-12.43 22.82-28.24 43.53-46.75 61.48-46.09 44.67-108.92 41.645-178.17 41.645s-132.08 3.025-178.17-41.645c-18.51-17.95-34.32-38.66-46.75-61.48-2.74-5.02 82.228-11.243 79.828-16.463-12.07-26.19-73.695-54.448-76.265-84.518 87.528 0 53.845-.362 53.845-.392-.63-7.28-.95-14.65-.95-22.09 0-3.57.07-7.12.22-10.66l-62.472-.003c1.25-30.45-17.246-58.454-6.256-85.254 18.01-43.94 47.88-81.76 85.64-109.47 42.39-31.12 94.71-49.5 151.33-49.5s108.94 18.38 151.33 49.5c60.8 44.63 20.014 115.46 23.304 195.84.15 3.54.22 7.09.22 10.66z" fill="#95d6a4"/><g><path d="m345.126 439.83h-178.252l26.953-85.888h124.346z" fill="#365e7d"/><path d="m365.74 409.064h-219.48c-10.182 0-18.436 8.254-18.436 18.436 0 10.182 8.254 18.436 18.436 18.436h219.48c10.182 0 18.436-8.254 18.436-18.436 0-10.182-8.254-18.436-18.436-18.436z" fill="#407093"/><path d="m172.274 440.54c3.34 3.34 7.95 5.4 13.04 5.4h-39.05c-5.09 0-9.7-2.06-13.04-5.4s-5.4-7.95-5.4-13.04c0-10.18 8.26-18.43 18.44-18.43h39.05c-10.18 0-18.44 8.25-18.44 18.43 0 5.09 2.07 9.701 5.4 13.04z" fill="#365e7d"/><path d="m511.78 245.34c-.16 10.94-.4 21.89-.74 32.83-3.08 36.05-13.64 69.96-30.12 100.18-149.95 4.41-299.89 4.41-449.84 0-16.48-30.22-27.04-64.13-30.12-100.18-.34-10.94-.58-21.89-.74-32.83-.89-61.85.93-123.7 5.45-185.55.32-4.39 3.91-7.83 8.32-7.97 30.23-.95 60.46-1.73 90.68-2.32 100.89-2 201.77-2 302.66 0 30.22.59 60.45 1.37 90.68 2.32 4.41.14 8 3.58 8.32 7.97 4.52 61.85 6.34 123.7 5.45 185.55z" fill="#407093"/><path d="m19.03 158.97c-1.75 68.01-.31 136.02 4.34 204.03-12.07-26.19-19.84-54.76-22.41-84.83-.01-.03-.01-.05-.01-.08-.33-10.92-.57-21.83-.73-32.75v-.04c-.89-61.83.93-123.67 5.45-185.51.32-4.39 3.91-7.83 8.32-7.97 4-.13 7.99-.25 11.99-.36-1.06 1.34-1.74 2.99-1.88 4.81-2.5 34.23-4.19 68.46-5.07 102.7z" fill="#365e7d"/><path d="m490.22 301c-.5 12.3-1.11 24.59-1.83 36.86-.27 4.66-4.14 8.29-8.8 8.29h-447.18c-4.66 0-8.53-3.63-8.8-8.29-.72-12.27-1.33-24.56-1.83-36.86-2.5-61.46-2.32-123.18.54-184.6.57-12.32 1.25-24.62 2.04-36.91.29-4.54 4-8.11 8.54-8.24 74.19-2.16 149.11-3.25 223.1-3.25s148.91 1.09 223.1 3.25c4.54.13 8.25 3.7 8.54 8.24.79 12.29 1.47 24.59 2.04 36.91 2.86 61.42 3.04 123.14.54 184.6z" fill="#90d8f9"/></g><path d="m434.17 439.83c-46.09 44.67-108.92 72.17-178.17 72.17s-132.08-27.5-178.17-72.17z" fill="#da8f35"/><g><path d="m236.21 346.15h-155.25c7.71-20.45 27.46-35 50.62-35h54.01c23.16 0 42.91 14.55 50.62 35z" fill="#ffddce"/><g fill="#dd5790"><path d="m197.21 309.54h8.71v36.61h-8.71z"/><path d="m111.26 309.54h8.71v36.61h-8.71z"/></g><path d="m184.043 283.269v31.239c0 11.437-7.541 21.104-17.928 24.314-2.378.738-4.911 1.137-7.532 1.137-14.057 0-25.451-11.393-25.451-25.451v-31.239z" fill="#ffcbbe"/><path d="m184.043 312.529v1.978c0 11.437-7.541 21.104-17.928 24.314-9.372-2.881-16.418-11.029-17.719-20.999 1.701.104 3.41.156 5.128.156 4.816 0 9.536-.382 14.136-1.137 5.666-.91 11.142-2.368 16.383-4.312z" fill="#ffddce"/><g><path d="m88.301 231.811c0 11.669-8.524 21.345-19.687 23.141-1.22.198-2.475.301-3.755.301-12.95 0-23.442-10.492-23.442-23.442s10.492-23.442 23.442-23.442c1.28 0 2.535.103 3.755.301 11.163 1.796 19.687 11.471 19.687 23.141z" fill="#ffddce"/><path d="m88.301 231.811c0 11.669-8.524 21.345-19.687 23.141-2.028-7.373-3.111-15.132-3.111-23.141s1.083-15.768 3.111-23.141c11.163 1.796 19.687 11.471 19.687 23.141z" fill="#ffcbbe"/><circle cx="64.859" cy="231.811" fill="#ffcbbe" r="8.378"/><path d="m228.874 231.811c0 11.669 8.524 21.345 19.687 23.141 1.22.198 2.475.301 3.755.301 12.95 0 23.442-10.492 23.442-23.442s-10.492-23.442-23.442-23.442c-1.28 0-2.535.103-3.755.301-11.163 1.796-19.687 11.471-19.687 23.141z" fill="#ffddce"/><g fill="#ffcbbe"><path d="m228.874 231.811c0 11.669 8.524 21.345 19.687 23.141 2.028-7.373 3.111-15.132 3.111-23.141s-1.083-15.768-3.111-23.141c-11.163 1.796-19.687 11.471-19.687 23.141z"/><circle cx="252.316" cy="231.811" r="8.378"/></g></g><circle cx="262.646" cy="250.182" fill="#dd5790" r="7.116"/><path d="m246.663 219.489c0 43.83-32.02 80.188-73.94 86.939-4.599.755-9.32 1.137-14.136 1.137-48.646 0-88.076-39.43-88.076-88.076v-89.669h176.152z" fill="#ffddce"/><g fill="#ffcbbe"><path d="m185.409 156.788c28.209-14.767 60.77 86.543 1.045 146.269l5.203-1.751 46.7-42.409 8.307-129.077-58.983 4.249z"/><path d="m185.409 156.788c-12.211-12.211-57.549-22.79-79.608 10.756s-22.059-44.266-22.059-44.266l78.38-14.199 23.855 16.471"/><path d="m174.101 306.197c-.455.08-.917.159-1.378.233-4.6.752-9.32 1.133-14.136 1.133-48.643 0-88.075-39.426-88.075-88.075v-89.668h31.057v89.669c-.001 43.348 31.301 79.37 72.532 86.708z"/><g><circle cx="207.086" cy="242.254" r="10.864"/><circle cx="110.087" cy="242.254" r="10.864"/></g><path d="m168.484 243.066h-19.788c-2.357 0-4.268-1.911-4.268-4.268 0-2.357 1.911-4.268 4.268-4.268h19.788c2.357 0 4.268 1.911 4.268 4.268 0 2.357-1.911 4.268-4.268 4.268z"/></g><path d="m158.59 270.069c-7.303 0-14.607-1.83-21.264-5.49-1.878-1.032-2.563-3.391-1.531-5.269 1.033-1.878 3.392-2.563 5.269-1.531 10.974 6.033 24.078 6.033 35.051 0 1.877-1.032 4.237-.347 5.269 1.531 1.033 1.878.347 4.237-1.531 5.269-6.657 3.66-13.96 5.49-21.263 5.49z" fill="#dd5790"/><g><path d="m208.687 212.553c0-10.138-8.219-18.357-18.357-18.357s-18.357 8.219-18.357 18.357" fill="#ffcbbe"/><circle cx="190.33" cy="220.368" fill="#353a3d" r="12.538"/><circle cx="195.556" cy="218.155" fill="#fff" r="5.373"/><path d="m145.201 212.553c0-10.138-8.219-18.357-18.357-18.357s-18.357 8.219-18.357 18.357" fill="#ffcbbe"/><circle cx="126.845" cy="220.368" fill="#353a3d" r="12.538"/><path d="m129.673 232.583c-.911.216-1.856.324-2.83.324-6.923 0-12.537-5.614-12.537-12.542 0-6.923 5.614-12.537 12.537-12.537.974 0 1.919.114 2.83.325-5.568 1.281-9.713 6.263-9.713 12.212 0 5.956 4.145 10.937 9.713 12.218z" fill="#202326"/><path d="m193.158 232.583c-.911.216-1.856.324-2.83.324-6.923 0-12.537-5.614-12.537-12.542 0-6.923 5.614-12.537 12.537-12.537.974 0 1.919.114 2.83.325-5.568 1.281-9.713 6.263-9.713 12.212.001 5.956 4.145 10.937 9.713 12.218z" fill="#202326"/><circle cx="132.07" cy="218.155" fill="#fff" r="5.373"/></g><path d="m262.08 241.42c-24.97 55.96-75.63 61.63-75.63 61.63 38.38-18.41 59.73-138.31 24.52-154.21-15.89-7.18-25.56 7.95-25.56 7.95s-5.8-23.3-29.55-24.86c-5.71-.38-12.47.5-20.44 3.28-60.83 21.17-40.32 173.07 13.9 210.94h-30.03c-24.39-8.16-54.34-28.06-71.9-75.77-26.37-71.6 3.52-153.6 41.39-179.15 28.6-19.29 64.71-20.44 86.37-13.3.02.01.04.01.06.02 4.18 1.38 7.82 3.07 10.77 5 8.5-3.14 17.01-3.36 24.99-1.75 16.16 3.26 30.17 14.04 37.6 23.34 14.08 17.6 44.19 68.15 13.51 136.88z" fill="#ffd064"/><path d="m175.15 77.93c-11.52-3.1-36.08 28.39-19.29 54-5.71-.38-12.47.5-20.44 3.28-60.83 21.17-40.32 173.07 13.9 210.94h-30.03c-24.39-8.16-54.34-28.06-71.9-75.77-26.37-71.6 3.52-153.6 41.39-179.15 28.6-19.29 64.71-20.44 86.37-13.3z" fill="#ffc250"/><path d="m210.969 148.835c-15.89-7.174-25.563 7.953-25.563 7.953l.569-73.836c8.5-3.143 17.012-3.365 24.993-1.754-17.58 17.588.001 67.637.001 67.637z" fill="#ffc250"/></g><path d="m311.811 229.596c47.063 3.154 94.127 3.154 141.19 0 10.808-.724 19.513-9.094 20.639-19.867 3.47-33.197 3.47-66.394 0-99.591-1.126-10.773-9.831-19.143-20.639-19.867-47.063-3.154-94.127-3.154-141.19 0-10.807.724-19.513 9.094-20.639 19.867-3.47 33.197-3.47 66.394 0 99.591 1.126 10.773 9.831 19.142 20.639 19.867z" fill="#ddeafb"/><path d="m352.412 114.479-32.587 92.22c-2.411 6.822 2.65 13.978 9.885 13.978h38.223l-12.326 58.743c-1.53 7.292 7.88 11.606 12.406 5.687l58.459-76.447c5.276-6.899.356-16.853-8.328-16.853h-30.632l44.077-70.329c3.38-5.394-.497-12.399-6.862-12.399h-64.679c-3.433-.001-6.493 2.163-7.636 5.4z" fill="#ffd064"/><g fill="#dd5790"><path d="m331.139 134.158c-2.761.027-4.978 2.287-4.952 5.048l.251 25.956-19.867-28.768c-1.243-1.8-3.511-2.582-5.603-1.932-2.089.651-3.512 2.585-3.512 4.773v41.475c0 2.761 2.239 5 5 5s5-2.239 5-5v-25.436l18.929 27.411c1.476 2.134 3.937 3.042 6.269 2.315 2.381-.743 3.92-2.977 3.92-5.739l-.388-40.152c-.026-2.761-2.323-4.944-5.047-4.951z"/><path d="m366.685 144.537c2.761 0 5-2.239 5-5s-2.239-5-5-5h-17.349c-2.761 0-5 2.239-5 5v41.173c0 2.761 2.239 5 5 5h17.349c2.761 0 5-2.239 5-5s-2.239-5-5-5h-12.349v-10.587h11.07c2.761 0 5-2.239 5-5s-2.239-5-5-5h-11.07v-10.586z"/><path d="m455.193 155.57c-5.136-1.895-9.916-3.958-11.349-4.586-1.229-.971-1.189-2.333-1.107-2.899.11-.77.667-2.651 3.441-3.487 5.962-1.796 11.47 2.563 11.614 2.679 2.114 1.754 5.25 1.475 7.02-.631 1.777-2.114 1.503-5.268-.61-7.044-.389-.327-9.658-7.968-20.908-4.579-5.663 1.706-9.669 6.166-10.456 11.641-.737 5.133 1.487 10.07 5.805 12.885.221.144.453.271.694.378.24.107 5.957 2.651 12.395 5.026 1.868.689 6.149 2.641 5.572 5.874-.429 2.401-3.333 4.885-7.45 4.885-4.184 0-8.211-1.688-10.775-4.517-1.855-2.047-5.017-2.201-7.062-.348-2.046 1.854-2.202 5.017-.348 7.062 4.428 4.886 11.226 7.802 18.185 7.802 8.663 0 15.936-5.521 17.294-13.127 1.021-5.717-1.584-13.188-11.955-17.014z"/><path d="m426.792 134.33c-2.709-.539-5.341 1.219-5.88 3.928l-4.965 24.947-7.862-25.52c-.729-2.364-3.081-3.802-5.522-3.434-1.985.299-3.551 1.765-4.071 3.628l-7.839 25.328-4.949-25.02c-.535-2.708-3.167-4.473-5.875-3.935-2.709.536-4.471 3.166-3.935 5.875l8.096 40.929c.047.239.112.475.193.705.846 2.379 3.087 3.967 5.636 3.949 2.525-.018 4.768-1.636 5.581-4.027.015-.043.029-.087.042-.13l7.865-25.411 7.83 25.417c.021.068.043.135.067.203.841 2.367 3.086 3.949 5.595 3.949h.042c2.525-.018 4.768-1.636 5.581-4.027.07-.207.127-.418.17-.633l8.128-40.84c.539-2.71-1.22-5.342-3.928-5.881z"/></g></g></svg>