<svg id="Capa_1" enable-background="new 0 0 512 512" height="512" viewBox="0 0 512 512" width="512" xmlns="http://www.w3.org/2000/svg"><g><path d="m512 256c0 35.968-7.418 70.204-20.807 101.261-7.489 17.37-70.95 26.256-70.95 26.256s15.369 56.183-1.403 70.024c-44.252 36.521-100.984 58.459-162.84 58.459-60.832 0-116.709-21.218-160.633-56.657-17.667-14.254-3.611-61.855-3.611-61.855s-63.461-18.857-70.95-36.227c-13.388-31.057-20.806-65.293-20.806-101.261 0-141.385 114.615-256 256-256s256 114.615 256 256z" fill="#5e54ac"/><path d="m484.385 336.405c-.52 4.87-1.06 9.75-1.64 14.62h-453.48c-.58-4.87-1.12-9.75-1.64-14.62-6.33-59.76-8.02-119.52-5.1-179.28 1.35-27.95 3.74-55.9 7.12-83.86 1.99-16.42 15.44-29.04 31.93-30.24 7.32-.53 14.63-1.03 21.94-1.5.27-.01.53-.03.79-.05 10.35-.67 20.68-1.27 31.02-1.8 93.78-4.95 187.58-4.95 281.36 0 17.92.92 35.84 2.05 53.75 3.35 16.49 1.2 29.94 13.82 31.93 30.24 3.38 27.96 5.77 55.91 7.12 83.86 2.92 59.76 1.23 119.52-5.1 179.28z" fill="#ddeafb"/><g fill="#cbe2ff"><path d="m29.265 351.025c-.58-4.87-1.12-9.75-1.64-14.62-6.33-59.76-8.02-119.52-5.1-179.28 1.35-27.95 3.74-55.9 7.12-83.86 1.99-16.42 15.44-29.04 31.93-30.24 2.89-.21 5.77-.41 8.65-.61-10.97 4.96-18.99 15.31-20.5 27.82-3.46 28.56-5.9 57.11-7.28 85.67-2.98 61.05-1.25 122.1 5.21 183.15.53 4.97 1.09 9.96 1.68 14.93z"/><path d="m484.385 336.405c-.52 4.87-1.06 9.75-1.64 14.62h-453.48c-.58-4.87-1.12-9.75-1.64-14.62z"/><path d="m256.005 365.193c-61.072 0-123.003-2.252-184.073-6.695-7.118-.518-12.897-5.948-13.741-12.913-10.592-87.458-10.592-176.146 0-263.603.844-6.966 6.624-12.396 13.742-12.913 61.072-4.442 123.003-6.695 184.072-6.695s123 2.252 184.072 6.695c7.12.517 12.899 5.949 13.742 12.915 10.591 87.455 10.591 176.143 0 263.6-.842 6.965-6.622 12.396-13.742 12.914-61.069 4.443-123 6.695-184.072 6.695z"/></g><path d="m256.005 355.436c-60.836 0-122.53-2.244-183.365-6.669-2.476-.18-4.479-2.011-4.762-4.354-10.498-86.679-10.498-174.577 0-261.255.284-2.343 2.287-4.175 4.762-4.355 60.837-4.425 122.53-6.669 183.365-6.669s122.528 2.244 183.365 6.669c2.476.18 4.479 2.012 4.763 4.355 10.497 86.678 10.497 174.577 0 261.255-.283 2.343-2.287 4.175-4.763 4.355-60.836 4.424-122.528 6.668-183.365 6.668z" fill="#407093"/><path d="m491.195 356.715c-7.49 17.37-16.85 33.74-27.82 48.87h-414.74c-10.97-15.13-20.33-31.5-27.82-48.87l7.61-12.99h455.16z" fill="#ddeafb"/><path d="m324.595 405.582h-137.18l.858-5.619c.617-4.038 4.09-7.021 8.175-7.021h119.114c4.085 0 7.558 2.983 8.175 7.021z" fill="#cbe2ff"/><path d="m452.052 377.659v-5.253l-222.796-7.213-169.34 7.213v6.345h.041c.27 2.277 2.178 4.222 4.735 4.222h382.624c2.961-.001 5.052-2.603 4.736-5.314z" fill="#4a80aa"/><path d="m447.317 376.765h-382.624c-3.525 0-5.833-3.692-4.288-6.861l9.602-19.699c.799-1.64 2.464-2.68 4.288-2.68h363.421c1.824 0 3.489 1.04 4.288 2.68l9.602 19.699c1.544 3.169-.764 6.861-4.289 6.861z" fill="#cbe2ff"/><path d="m463.375 405.585c-13.34 18.4-29.08 34.96-46.74 49.21h-321.26c-17.66-14.25-33.4-30.81-46.74-49.21z" fill="#cbe2ff"/><path d="m187.415 405.582h137.18l-.858 5.619c-.617 4.038-4.09 7.021-8.175 7.021h-119.114c-4.085 0-7.558-2.983-8.175-7.021z" fill="#ddeafb"/><g><path d="m409.178 61.897h-306.346v193.695c0 12.613 10.225 22.837 22.837 22.837h260.672c12.613 0 22.837-10.225 22.837-22.837z" fill="#ffd064"/><path d="m131.345 61.897h-28.513v193.695c0 12.613 10.225 22.837 22.837 22.837h5.676z" fill="#ffc250"/><path d="m102.832 61.897h306.346v58.863h-306.346z" fill="#ffc250"/><path d="m405.24 18.719h-122.602l-26.633 12.31-26.633-12.31h-122.602c-8.289 0-15.008 6.719-15.008 15.008v55.654c0 8.289 6.719 15.008 15.008 15.008h298.47c8.289 0 15.008-6.719 15.008-15.008v-55.653c0-8.289-6.72-15.009-15.008-15.009z" fill="#ffd064"/><path d="m138.672 104.398h-31.9c-8.29 0-15.01-6.72-15.01-15.01v-55.66c0-8.29 6.72-15.01 15.01-15.01h31.9c-8.29 0-15.01 6.72-15.01 15.01v55.66c0 8.29 6.72 15.01 15.01 15.01z" fill="#ffc250"/><path d="m282.638 157.294h-26.638-26.628v-138.575h53.266z" fill="#ddeafb"/><path d="m229.372 104.391h53.266v16.37h-53.266z" fill="#cbe2ff"/></g><path d="m428.725 279.165-20.9 20.91-20.91 20.9-35.89-61.1-8.61 46.17-44.73-116.11 116.11 44.73-46.17 8.61z" fill="#ddeafb"/><path d="m407.825 300.075-20.91 20.9-35.89-61.1-8.61 46.17-44.73-116.11z" fill="#cbe2ff"/></g></svg>