<svg id="Capa_1" enable-background="new 0 0 512 512" height="512" viewBox="0 0 512 512" width="512" xmlns="http://www.w3.org/2000/svg"><g><path d="m512 256c0 50.8-14.8 98.15-40.32 137.96-4.65 7.25-9.65-52.544-15-45.814-2.26 2.87-4.6 5.7-7 8.47-2.28 2.63-4.61 5.21-7 7.75-19.99 21.3-43.58 39.18-69.81 52.65-9.42 4.85-19.18 9.13-29.24 12.79-4.29 1.57-8.63 3.02-13.03 4.35-.65.21-1.31.41-1.97.6-6.45 1.91-13.01 3.56-19.67 4.95-17.08 3.61-34.8 5.5-52.96 5.5-42.11 0-81.85-10.17-116.89-28.19-8.79-4.51-17.28-9.52-25.44-15-6.82-4.57-13.41-9.45-19.74-14.65-3.27-2.67-6.48-5.43-9.61-8.27-5.2-4.69-10.2-9.6-15-14.71-10.76-11.47-20.48 42.874-29 29.574-25.52-39.81-40.32-87.16-40.32-137.96s14.8-98.15 40.32-137.96c8.52-13.3 18.24-25.75 29-37.21 4.79-5.11 9.8-10.03 15-14.72 1.59-1.44 3.19-2.86 4.8-4.24 6.15-5.3 12.56-10.31 19.2-15 16.5-11.68 34.46-21.46 53.54-29 29.14-11.53 60.9-17.87 94.14-17.87 33.25 0 65.01 6.34 94.16 17.87 14.84 5.88 29.01 13.1 42.34 21.53 2.37 1.49 4.7 3.02 7.01 4.58 1.4.95 2.78 1.91 4.16 2.89 1.13.8 2.26 1.61 3.38 2.43 2.38 1.74 4.73 3.52 7.05 5.35 10.18 8 19.74 16.76 28.58 26.19 2.39 2.54 4.72 5.13 7 7.76 2.4 2.77 4.73 5.59 7 8.46 5.35 6.72 10.35 13.73 15 20.98 25.52 39.81 40.32 87.16 40.32 137.96z" fill="#95d6a4"/><path d="m471.68 17.87v376.09c-32.83 51.22-83.41 89.97-143.05 107.59-23.02 6.8-47.4 10.45-72.63 10.45-90.58 0-170.18-47.05-215.68-118.04v-376.09z" fill="#ddeafb"/><path d="m241.5 46.87v436.94h-102.39c-26.22-13.47-49.8-31.35-69.79-52.63v-384.31z" fill="#cbe2ff"/><path d="m226.5 61.87v406.94h-112.83c-6.82-4.57-13.41-9.45-19.74-14.65-3.27-2.67-6.48-5.43-9.61-8.27v-384.02z" fill="#b1e4f9"/><path d="m442.68 46.87v369.11c-19.99 21.3-55.68 54.36-81.91 67.83h-100.27v-333.9l21.62-31.46-21.62-44.04v-27.54z" fill="#90d8f9"/><path d="m358.63 112.16c0 31.11-25.22 56.33-56.33 56.33-16.59 0-31.5-7.17-41.8-18.58v-75.5c10.3-11.41 25.21-18.58 41.8-18.58 31.11 0 56.33 25.22 56.33 56.33z" fill="#ffd064"/><path d="m471.68 17.87-64.63 31.43-63.42 30.84-13.03 420.81c-.65.21-1.31.41-1.97.6-6.45 1.91-13.01 3.56-19.67 4.95v-436.88l83.54-30.22 59.52-21.53z" fill="#cbe2ff"/><path d="m471.68 17.87v376.09c-4.649 7.254-9.655 14.258-14.992 20.987-41.364-1.927-90.421 18.373-113.056 81.659-4.932 1.797-9.934 3.447-15.002 4.944v-431.93l70.88-25.64z" fill="#ddeafb"/><path d="m449.68 76.39v347.02c-28.27 32.67-64.67 58.12-106.05 73.19v-416.46l19.67-7.12h.01l50.79-18.37 8.03-2.91 20.55-7.43z" fill="#b1e4f9"/><path d="m449.68 115.91v106.41l-106.05 230.19v-106.41z" fill="#d3effb"/><path d="m422.13 51.74-78.5 170.4v-106.41l19.67-42.71h.01z" fill="#d3effb"/><path d="m456.68 39.24v375.7c-2.26 2.87-4.6 5.7-7 8.47-2.28 2.63-4.61 5.21-7 7.75v-386.85z" fill="#cbe2ff"/><path d="m180.34 61.87-96.02 255v-145.31l41.59-109.69z" fill="#d3effb"/><path d="m226.5 104.53v277.41l-32.69 86.87h-80.14c-6.82-4.57-13.41-9.45-19.74-14.65z" fill="#d3effb"/><g fill="#fff"><path d="m292.574 190.168c-19.073 6.699-31.017 4.618-41.556 2.782-9.583-1.669-17.859-3.111-32.502 2.032-14.644 5.144-20.202 11.444-26.636 18.74-7.077 8.023-15.098 17.117-34.17 23.816-19.073 6.699-31.019 4.619-41.558 2.783-9.583-1.669-17.859-3.111-32.503 2.033-4.69 1.647-9.827-.819-11.474-5.509s.819-9.827 5.509-11.474c19.073-6.699 31.018-4.619 41.557-2.783 9.583 1.669 17.86 3.111 32.504-2.033s20.202-11.444 26.636-18.74c7.077-8.023 15.098-17.117 34.17-23.816s31.017-4.618 41.556-2.782c9.583 1.669 17.859 3.111 32.502-2.032 4.69-1.647 9.827.819 11.474 5.509s-.819 9.827-5.509 11.474z"/><path d="m292.574 257.107c-19.073 6.699-31.017 4.618-41.556 2.782-9.583-1.669-17.859-3.111-32.502 2.032-14.644 5.144-20.202 11.444-26.636 18.74-7.077 8.023-15.098 17.117-34.17 23.816-19.073 6.699-31.019 4.619-41.558 2.783-9.583-1.669-17.859-3.111-32.503 2.033-4.69 1.647-9.827-.819-11.474-5.509s.819-9.827 5.509-11.474c19.073-6.699 31.018-4.619 41.557-2.783 9.583 1.669 17.86 3.111 32.504-2.033s20.202-11.444 26.636-18.74c7.077-8.023 15.098-17.117 34.17-23.816 19.073-6.699 31.017-4.618 41.556-2.782 9.583 1.669 17.859 3.111 32.502-2.032 4.69-1.647 9.827.819 11.474 5.509s-.819 9.827-5.509 11.474z"/><path d="m292.574 324.047c-19.073 6.699-31.017 4.618-41.556 2.782-9.583-1.669-17.859-3.111-32.502 2.032-14.644 5.144-20.202 11.444-26.636 18.74-7.077 8.023-15.098 17.117-34.17 23.816-19.073 6.699-31.018 4.618-41.558 2.783-9.583-1.669-17.859-3.111-32.503 2.033-4.69 1.647-9.827-.819-11.474-5.509s.819-9.827 5.509-11.474c19.072-6.699 31.018-4.619 41.557-2.783 9.583 1.669 17.86 3.111 32.504-2.033 14.643-5.143 20.201-11.444 26.636-18.74 7.077-8.023 15.097-17.116 34.17-23.816 19.072-6.699 31.017-4.618 41.556-2.783 9.583 1.67 17.86 3.111 32.502-2.032 4.69-1.647 9.827.819 11.474 5.509s-.819 9.827-5.509 11.475z"/></g></g></svg>