<svg id="Capa_1" enable-background="new 0 0 512 512" height="512" viewBox="0 0 512 512" width="512" xmlns="http://www.w3.org/2000/svg"><g><path d="m512 256c0 141.38-114.62 256-256 256-34.45 0-67.3-6.8-97.3-19.15-18.6-55.895-36.496-74.898-64.686-118.608-8.38-12.99-68.914-6.462-74.864-20.932v-.01c-12.35-30-19.15-62.85-19.15-97.3 0-141.38 114.62-256 256-256 58.99 0 113.32 19.96 156.61 53.48 6.02 4.66 11.83 9.59 17.4 14.76 10.33 9.58 19.87 20 28.51 31.15 33.52 43.29 53.48 97.62 53.48 156.61z" fill="#ffd064"/><g><path d="m414.513 142.712-45.223-45.223 88.121-88.121c12.488-12.488 32.735-12.488 45.223 0 12.488 12.488 12.488 32.735 0 45.223z" fill="#ddeafb"/><path d="m509.185 18.843c-11.762-5.307-26.08-3.129-35.754 6.545l-88.115 88.115-16.02-16.02 88.115-88.115c12.495-12.495 32.744-12.485 45.229 0 2.822 2.822 5.01 6.04 6.545 9.475z" fill="#cbe2ff"/><path d="m458.52 99.39c-22.15 25.9-43.82 67.04-39.53 105.81 1.36 12.29-2.39 24.6-10.47 33.96-34.08 39.49-126.77 143.44-249.82 253.69-63.13-25.95-113.6-76.42-139.55-139.55 110.25-123.05 214.2-215.74 253.69-249.82 9.37-8.08 21.67-11.83 33.96-10.47 38.77 4.29 79.91-17.38 105.81-39.53 3.2-2.73 6.16-5.47 8.86-8.17l45.22 45.22c-2.7 2.7-5.44 5.66-8.17 8.86z" fill="#5e54ac"/><path d="m437.49 61.33c-2.3 2.3-4.8 4.61-7.48 6.91-25.99 22.37-68.49 44.37-98.21 49.78-9.26 1.67-19.65 7.32-28.73 15.69-39.37 36.27-145.47 135.87-262.36 260.86-8.38-12.99-15.61-26.79-21.56-41.26 110.24-123.04 214.2-215.74 253.69-249.83 9.37-8.08 21.67-11.82 33.96-10.45 38.79 4.28 79.92-17.4 105.81-39.55 3.2-2.73 6.16-5.47 8.86-8.17z" fill="#524798"/><path d="m142.785 423.013c-17.693-14.754-34.016-31.078-48.771-48.771-11.392-13.661-10.403-33.786 2.175-46.364 47.789-47.789 95.578-95.578 143.367-143.367 12.578-12.578 32.703-13.567 46.364-2.175 17.693 14.754 34.016 31.078 48.77 48.77 11.392 13.661 10.403 33.786-2.175 46.364l-143.366 143.368c-12.578 12.577-32.703 13.567-46.364 2.175z" fill="#524798"/><path d="m132.15 384.877c-7.662-7.662-15.065-15.765-22.004-24.087-4.376-5.247-3.982-13.181.896-18.059l143.367-143.367c4.879-4.879 12.811-5.273 18.059-.896 8.322 6.94 16.425 14.342 24.087 22.004s15.065 15.765 22.004 24.087c4.377 5.248 3.983 13.18-.896 18.059l-143.367 143.367c-4.879 4.879-12.812 5.272-18.06.895-8.322-6.938-16.424-14.341-24.086-22.003z" fill="#ddeafb"/></g><g fill="#4a80aa"><path d="m168.736 346.308c.018-.337.025-.676.025-1.016 0-5.192-2.021-10.074-5.692-13.745-3.672-3.671-8.553-5.693-13.745-5.693s-10.073 2.022-13.744 5.693c-6.554 6.553-7.564 16.887-2.403 24.572 1.539 2.292 4.645 2.902 6.938 1.363 2.292-1.54 2.902-4.646 1.362-6.938-2.503-3.728-2.01-8.743 1.174-11.926 1.782-1.782 4.151-2.764 6.673-2.764s4.891.981 6.674 2.764c1.782 1.783 2.764 4.153 2.764 6.674s-.981 4.891-2.764 6.674c-.977.976-1.465 2.256-1.465 3.536 0 1.279.488 2.559 1.464 3.535 1.953 1.953 5.12 1.953 7.071 0 3.681-3.678 9.668-3.681 13.349 0 1.782 1.783 2.765 4.153 2.765 6.674s-.982 4.891-2.765 6.674c-3.312 3.312-8.62 3.687-12.349.871-.351-.265-.687-.558-1-.871-1.951-1.952-5.119-1.952-7.07 0-1.953 1.953-1.953 5.119 0 7.071.639.639 1.326 1.237 2.045 1.78 3.456 2.61 7.571 3.892 11.673 3.892 5.019 0 10.02-1.919 13.771-5.672 7.579-7.579 7.579-19.911 0-27.49-4.045-4.046-9.454-5.935-14.751-5.658z"/><path d="m183.24 319.41c-1.251 1.251-2.291 2.631-3.166 4.083-3.063-10.53-1.985-18.862-1.964-19.014.392-2.726-1.496-5.257-4.223-5.657-2.738-.4-5.272 1.489-5.674 4.22-.141.958-3.257 23.691 13.096 44.288.037.046.079.086.117.131.558.725 1.149 1.432 1.813 2.096h.001c4.025 4.026 9.379 6.243 15.072 6.243 5.694 0 11.048-2.217 15.073-6.243 8.312-8.312 8.312-21.835 0-30.147-8.311-8.312-21.835-8.31-30.145 0zm23.075 23.076c-2.138 2.138-4.979 3.314-8.003 3.314-3.022 0-5.864-1.177-8.002-3.314h.001c-4.413-4.413-4.413-11.592-.001-16.004 4.414-4.411 11.591-4.413 16.005 0 4.413 4.412 4.413 11.591 0 16.004z"/><path d="m253.458 279.338c-8.312-8.312-21.835-8.311-30.147 0-1.251 1.251-2.29 2.63-3.164 4.082-3.06-10.518-1.987-18.843-1.964-19.012.392-2.727-1.495-5.258-4.223-5.658-2.737-.401-5.272 1.489-5.674 4.22-.141.958-3.258 23.692 13.096 44.289.036.046.078.085.115.129.558.726 1.15 1.434 1.815 2.098 4.155 4.156 9.613 6.233 15.073 6.233 5.458 0 10.918-2.079 15.073-6.233 8.312-8.312 8.312-21.836 0-30.148zm-7.07 23.076c-4.414 4.413-11.594 4.412-16.006 0s-4.412-11.592 0-16.004c2.207-2.207 5.104-3.309 8.003-3.309 2.897 0 5.796 1.103 8.002 3.309 4.413 4.412 4.413 11.592.001 16.004z"/><path d="m230.433 321.986c-1.42-2.368-4.491-3.137-6.859-1.715-2.368 1.421-3.136 4.492-1.715 6.86l6.692 11.154c.938 1.563 2.593 2.429 4.292 2.429.875 0 1.763-.23 2.567-.713 2.368-1.421 3.136-4.492 1.715-6.86z"/></g><g fill="#ddeafb"><path d="m118.908 160.155 23.978-5.252c7.422-1.626 7.422-12.209 0-13.835l-23.978-5.252c-2.701-.592-4.811-2.701-5.402-5.402l-5.252-23.978c-1.626-7.422-12.209-7.422-13.835 0l-5.252 23.978c-.592 2.701-2.701 4.811-5.402 5.402l-23.978 5.252c-7.422 1.626-7.422 12.209 0 13.835l23.978 5.252c2.701.592 4.811 2.701 5.402 5.402l5.252 23.978c1.626 7.422 12.209 7.422 13.835 0l5.252-23.978c.592-2.701 2.701-4.811 5.402-5.402z"/><path d="m451.022 254.074 23.978-5.252c7.422-1.626 7.422-12.209 0-13.835l-23.978-5.252c-2.701-.592-4.811-2.701-5.402-5.402l-5.252-23.978c-1.626-7.422-12.209-7.422-13.835 0l-5.252 23.978c-.592 2.701-2.701 4.811-5.402 5.402l-23.978 5.252c-7.422 1.626-7.422 12.209 0 13.835l23.978 5.252c2.701.592 4.811 2.701 5.402 5.402l5.252 23.978c1.626 7.422 12.209 7.422 13.835 0l5.252-23.978c.591-2.701 2.701-4.81 5.402-5.402z"/></g></g></svg>