<svg id="Capa_1" enable-background="new 0 0 512 512" height="512" viewBox="0 0 512 512" width="512" xmlns="http://www.w3.org/2000/svg"><g><circle cx="256" cy="256" fill="#76717b" r="256"/><g><path d="m512 256c0 77.85-34.76 147.59-89.6 194.54-44.75 38.31-102.87 9.049-166.4 9.049s-121.65 29.261-166.4-9.049c-7.31-6.26-14.26-12.92-20.81-19.95-8.909-9.545 14.999-35.352 7.625-46.172-4.678-6.864-41.123 1.613-45.125-5.708-19.95-36.44-31.29-78.25-31.29-122.71 0-78.55 35.38-148.84 91.07-195.79 21.35-18.01 45.69-32.59 72.17-42.88 28.76-11.19 60.04-17.33 92.76-17.33s64 6.14 92.76 17.33c26.48 10.29 50.82 24.87 72.17 42.88 55.69 46.95 91.07 117.24 91.07 195.79z" fill="#90d8f9"/><g><g fill="#365e7d"><path d="m416.284 177.475v-78.733c0-5.33 4.321-9.651 9.651-9.651s9.651 4.321 9.651 9.651v78.733c0 5.33-4.321 9.651-9.651 9.651-5.33-.001-9.651-4.321-9.651-9.651z"/><path d="m76.415 138.108v-39.366c0-5.33 4.321-9.651 9.651-9.651s9.651 4.321 9.651 9.651v39.367c0 5.33-4.321 9.651-9.651 9.651s-9.651-4.321-9.651-9.652z"/><path d="m76.415 208.256v-39.367c0-5.33 4.321-9.651 9.651-9.651s9.651 4.321 9.651 9.651v39.367c0 5.33-4.321 9.651-9.651 9.651s-9.651-4.321-9.651-9.651z"/></g><path d="m422.4 450.54c-44.75 38.31-102.87 61.46-166.4 61.46s-121.65-23.15-166.4-61.46c-7.32-130.11-6.83-260.22 1.47-390.33.16-2.67.33-5.33.51-8 1.01-15.24 12.58-27.75 27.72-29.82 14.64-2.01 29.29-3.7 43.94-5.06 61.84-5.76 123.68-5.76 185.52 0 14.65 1.36 29.3 3.05 43.94 5.06 15.14 2.07 26.71 14.58 27.72 29.82.18 2.67.35 5.33.51 8 8.3 130.11 8.79 260.22 1.47 390.33z" fill="#407093"/><path d="m138.14 19.98c-6.63 5.99-10.95 14.46-11.58 23.89-.19 2.92-.38 5.83-.55 8.75-8.99 140.95-9.61 281.91-1.83 422.87-12.23-7.36-23.79-15.71-34.58-24.95-7.32-130.11-6.83-260.22 1.47-390.33.16-2.67.33-5.33.51-8 1.01-15.24 12.58-27.75 27.72-29.82 6.28-.86 12.56-1.67 18.84-2.41z" fill="#365e7d"/><path d="m382.283 63.672c-84.188-10.404-168.377-10.404-252.565 0-13.983 1.728-24.67 12.125-25.601 24.804-8.775 119.422-8.775 238.844 0 358.266.932 12.679 11.618 23.076 25.601 24.804 84.188 10.403 168.377 10.403 252.565 0 13.983-1.728 24.67-12.125 25.601-24.804 8.775-119.422 8.775-238.844 0-358.266-.932-12.679-11.619-23.076-25.601-24.804z" fill="#ddeafb"/><path d="m295.367 42.92h-78.733c-5.33 0-9.651-4.321-9.651-9.651s4.321-9.651 9.651-9.651h78.733c5.33 0 9.651 4.321 9.651 9.651s-4.321 9.651-9.651 9.651z" fill="#365e7d"/><g fill="#cbe2ff"><path d="m352.971 138.108h-193.942c-7.094 0-12.844-5.75-12.844-12.844 0-7.094 5.75-12.844 12.844-12.844h193.942c7.094 0 12.844 5.75 12.844 12.844 0 7.094-5.751 12.844-12.844 12.844z"/><path d="m352.971 190.562h-193.942c-7.094 0-12.844-5.75-12.844-12.844 0-7.094 5.75-12.844 12.844-12.844h193.942c7.094 0 12.844 5.75 12.844 12.844 0 7.093-5.751 12.844-12.844 12.844z"/><path d="m352.971 446.278h-193.942c-7.094 0-12.844-5.75-12.844-12.844 0-7.094 5.75-12.844 12.844-12.844h193.942c7.094 0 12.844 5.75 12.844 12.844 0 7.094-5.751 12.844-12.844 12.844z"/></g></g><g><path d="m369.61 220.27v172.86c0 20.69-16.78 37.46-37.47 37.46h-263.35c-14.56-15.6-27.19-33.02-37.5-51.88v-158.44c0-20.69 16.78-37.46 37.47-37.46h263.38c20.69 0 37.47 16.77 37.47 37.46z" fill="#dd5790"/><path d="m31.292 225.696h338.315v53.299h-338.315z" fill="#407093"/><g fill="#407093"><path d="m117.079 308.622c0 6.235-5.054 11.289-11.289 11.289h-41.052c-6.235 0-11.289-5.054-11.289-11.289 0-6.235 5.054-11.289 11.289-11.289h41.052c6.235 0 11.289 5.054 11.289 11.289z"/><path d="m193.87 308.622c0 6.235-5.054 11.289-11.289 11.289h-41.052c-6.235 0-11.289-5.054-11.289-11.289 0-6.235 5.054-11.289 11.289-11.289h41.052c6.235 0 11.289 5.054 11.289 11.289z"/><path d="m270.66 308.622c0 6.235-5.054 11.289-11.289 11.289h-41.052c-6.235 0-11.289-5.054-11.289-11.289 0-6.235 5.054-11.289 11.289-11.289h41.052c6.235 0 11.289 5.054 11.289 11.289z"/><path d="m347.451 308.622c0 6.235-5.054 11.289-11.289 11.289h-41.052c-6.235 0-11.289-5.054-11.289-11.289 0-6.235 5.054-11.289 11.289-11.289h41.052c6.235 0 11.289 5.054 11.289 11.289z"/></g><path d="m298.888 258.61c-5.127 0-9.947-2.584-12.778-6.923l-34.331-52.641c-4.603-7.058-2.613-16.512 4.446-21.116 7.058-4.603 16.511-2.613 21.116 4.445l19.058 29.223 51.127-114.1c3.446-7.691 12.474-11.131 20.164-7.685s11.131 12.473 7.685 20.164l-62.559 139.614c-2.283 5.094-7.165 8.535-12.73 8.972-.401.032-.8.047-1.198.047z" fill="#95d6a4"/></g></g></g></svg>