<svg id="Capa_1" enable-background="new 0 0 512 512" height="512" viewBox="0 0 512 512" width="512" xmlns="http://www.w3.org/2000/svg"><g><path d="m512 256c0 97.38-54.38 182.07-134.44 225.35-35.677-35.677-77.56-12.13-121.56-12.13-38.83 0-75.65-8.65-108.62-24.12-7.82-3.67-15.42-7.72-22.78-12.13-5.61-3.36-11.07-6.94-16.39-10.7-14.61-10.35-28.09 20.59-40.22 7.48-42.2-45.64-67.99-106.69-67.99-173.75 0-141.38 114.62-256 256-256s256 114.62 256 256z" fill="#95d6a4"/><path d="m397.55 165.74-19.99 24.62-61.25 39.59-227.75-5.21 22.13-69.03 154.65-70.85 65.6 7.61-3.81 31.48 50.43 7.54-5.88 19.82z" fill="#407093"/><path d="m397.55 165.74-111.334 33.715 78.026 14.815 13.32-23.912z" fill="#365e7d"/><path d="m249.11 144.49 30.45 12.92-41.27 54.32-149.73 13.01 22.13-69.03 154.65-70.85 65.6 7.61z" fill="#365e7d"/><g><path d="m383.76 477.88c-37.6 21.7-81.23 34.12-127.76 34.12-78.66 0-149.04-35.48-196-91.31 0 0 0 0 0-.01-1.77-76.89.89-153.78 7.99-230.67h309.92c8.87 95.95 10.82 191.91 5.85 287.87z" fill="#ddeafb"/><path d="m124.41 475.64c-24.41-14.67-46.18-33.28-64.41-54.95 0 0 0 0 0-.01l-.01-.01c-1.77-76.89.89-153.77 8-230.66h62.39c-8.8 95.21-10.79 190.42-5.97 285.63z" fill="#cbe2ff"/><path d="m377.56 190.36v290.99c-36.16 19.55-77.56 30.65-121.56 30.65-74.32 0-141.24-31.67-188.01-82.25v-239.39z" fill="#ddeafb"/><path d="m124.6 190.36v285.39c-5.61-3.36-11.07-6.94-16.39-10.7-14.61-10.35-28.09-22.19-40.22-35.3v-239.39z" fill="#cbe2ff"/><g fill="#cbe2ff"><path d="m222.778 498.237c-11.62 0-21.04-9.42-21.04-21.04v-226.207c0-11.62 9.42-21.04 21.04-21.04 11.62 0 21.04 9.42 21.04 21.04v226.207c0 11.62-9.42 21.04-21.04 21.04z"/><path d="m316.31 498.237c-11.62 0-21.04-9.42-21.04-21.04v-226.207c0-11.62 9.42-21.04 21.04-21.04 11.62 0 21.04 9.42 21.04 21.04v226.207c0 11.62-9.42 21.04-21.04 21.04z"/><path d="m150.29 250.99v226.21c0 3.9-1.06 7.55-2.91 10.68-13.77-6.46-26.87-14.12-39.17-22.83v-214.06c0-11.62 9.42-21.04 21.04-21.04 5.81 0 11.07 2.35 14.88 6.16s6.16 9.07 6.16 14.88z"/></g><g><path d="m265.339 71.921-148.852 79.075-27.09-50.995c-10.2-19.2-2.878-43.119 16.323-53.318l79.211-42.079c19.2-10.2 43.119-2.877 53.318 16.323zm-140.572 52.029 113.527-60.309-17.707-33.333c-5.026-9.461-16.812-13.069-26.273-8.044l-79.211 42.079c-9.461 5.026-13.069 16.812-8.043 26.273z" fill="#cbe2ff"/><path d="m328.274 40.108 7.502 14.121-273.38 145.227-7.502-14.121c-1.271-2.393-2.267-4.865-2.996-7.366-5.066-17.317 2.52-36.374 19.079-45.17l204.761-108.775c16.559-8.796 36.596-4.415 48.109 9.478 1.665 2.003 3.155 4.212 4.427 6.606z" fill="#ddeafb"/><path d="m126.773 103.158c-18.952 10.068-26.155 33.597-16.087 52.549l7.497 14.112-55.787 29.636-7.497-14.112c-10.068-18.952-2.873-42.476 16.078-52.544z" fill="#cbe2ff"/><path d="m328.274 40.108 7.502 14.121-273.38 145.227-7.502-14.121c-1.271-2.393-2.267-4.865-2.996-7.366l271.949-144.467c1.665 2.003 3.155 4.212 4.427 6.606z" fill="#cbe2ff"/><path d="m339.58 37.118-293.491 155.911c-6.497 3.452-8.966 11.517-5.515 18.014 3.452 6.497 11.517 8.966 18.014 5.515l293.491-155.911c6.497-3.452 8.966-11.517 5.515-18.014-3.452-6.497-11.517-8.967-18.014-5.515z" fill="#ddeafb"/><path d="m122.107 178.397c3.268.993 6.899.751 10.149-.975l-73.67 39.136c-3.25 1.726-6.881 1.968-10.149.975-3.264-1.007-6.137-3.24-7.864-6.489-3.453-6.5-.977-14.564 5.514-18.012l73.67-39.136c-6.491 3.448-8.967 11.512-5.514 18.012 1.727 3.25 4.601 5.483 7.864 6.489z" fill="#cbe2ff"/></g></g><g><ellipse cx="446.26" cy="76.166" fill="#365e7d" rx="13.956" ry="20.989" transform="matrix(.707 -.707 .707 .707 76.849 337.862)"/><g fill="#ddeafb"><ellipse cx="431.418" cy="91.008" rx="20.989" ry="13.956" transform="matrix(.707 -.707 .707 .707 62.008 331.714)"/><ellipse cx="461.101" cy="61.324" rx="20.989" ry="13.956" transform="matrix(.707 -.707 .707 .707 91.691 344.01)"/></g></g><g><ellipse cx="446.26" cy="199.456" fill="#365e7d" rx="20.989" ry="13.956" transform="matrix(.707 -.707 .707 .707 -10.33 373.973)"/><g fill="#ddeafb"><ellipse cx="431.418" cy="184.615" rx="13.956" ry="20.989" transform="matrix(.707 -.707 .707 .707 -4.183 359.131)"/><ellipse cx="461.101" cy="214.298" rx="13.956" ry="20.989" transform="matrix(.707 -.707 .707 .707 -16.478 388.814)"/></g></g></g></svg>