<svg id="Capa_1" enable-background="new 0 0 512 512" height="512" viewBox="0 0 512 512" width="512" xmlns="http://www.w3.org/2000/svg"><g><circle cx="256" cy="256" fill="#dd5790" r="256"/><path d="m430.739 382.542-8.745-12.188 4.373 6.094-4.381-6.087c.225-.162 22.718-16.602 42.835-48.478 26.843-42.533 36.997-90.96 30.177-143.937-6.46-50.184-20.431-60.349-26.137-62.39-6.77-2.42-13.398 1.979-17.766 6.098-14.218 13.402-24.963 43.609-17.529 69.042l-14.397 4.208c-9.147-31.294 3.818-67.369 21.638-84.166 10.489-9.885 22.247-13.189 33.106-9.307 18.335 6.557 30.435 31.656 35.963 74.599 9.106 70.735-12.778 123.03-32.741 154.445-21.682 34.121-45.397 51.351-46.396 52.067z" fill="#cbe2ff"/><path d="m81.261 382.542 8.745-12.188-4.373 6.094 4.381-6.087c-.225-.162-22.718-16.602-42.835-48.478-26.843-42.533-36.997-90.96-30.177-143.937 6.46-50.184 20.431-60.349 26.137-62.39 6.77-2.42 13.398 1.979 17.766 6.098 14.218 13.402 24.963 43.609 17.529 69.042l14.397 4.208c9.147-31.294-3.818-67.369-21.638-84.166-10.489-9.885-22.247-13.189-33.106-9.307-18.335 6.557-30.435 31.656-35.963 74.599-9.106 70.735 12.778 123.03 32.741 154.445 21.682 34.121 45.397 51.351 46.396 52.067z" fill="#cbe2ff"/><path d="m424.895 398.731c-111.899 17.727-225.892 17.727-337.791 0-9.603-1.521-16.689-9.776-16.689-19.499v-197.778c0-9.723 7.086-17.978 16.689-19.499 111.899-17.727 225.892-17.727 337.791 0 9.603 1.521 16.689 9.776 16.689 19.499v197.778c0 9.723-7.086 17.978-16.689 19.499z" fill="#ddeafb"/><g fill="#cbe2ff"><path d="m135.786 405.304c-16.27-1.81-32.5-4.01-48.69-6.57-9.6-1.52-16.68-9.78-16.68-19.5v-197.78c0-9.72 7.08-17.98 16.68-19.5 16.19-2.56 32.43-4.76 48.7-6.58-5.45 3.92-8.92 10.3-8.92 17.4v215.14c0 7.1 3.47 13.47 8.91 17.39z"/><g><path d="m393.771 216.339c-.471 0-.947-.033-1.426-.102-90.472-12.917-182.217-12.917-272.688 0-5.467.781-10.533-3.019-11.313-8.486-.781-5.467 3.019-10.533 8.486-11.313 92.348-13.186 185.995-13.186 278.343 0 5.467.78 9.267 5.846 8.486 11.313-.714 4.988-4.992 8.588-9.888 8.588z"/><path d="m393.766 265.675c-.16 0-.321-.003-.483-.011-91.094-4.336-183.471-4.336-274.564 0-5.514.261-10.202-3.996-10.464-9.513-.263-5.517 3.997-10.202 9.513-10.464 91.726-4.365 184.741-4.365 276.467 0 5.517.263 9.776 4.948 9.513 10.464-.256 5.354-4.678 9.524-9.982 9.524z"/><path d="m256 318.274c-46.186 0-92.371-1.092-138.233-3.274-5.517-.263-9.776-4.948-9.513-10.464s4.936-9.785 10.464-9.513c91.094 4.336 183.471 4.336 274.564 0 5.509-.274 10.202 3.997 10.464 9.513.263 5.517-3.997 10.202-9.513 10.464-45.862 2.182-92.047 3.274-138.233 3.274z"/><path d="m256 374.137c-46.499 0-92.998-3.296-139.171-9.89-5.467-.78-9.267-5.846-8.486-11.313.78-5.468 5.845-9.272 11.313-8.486 90.472 12.918 182.217 12.918 272.688 0 5.465-.789 10.533 3.018 11.313 8.486.781 5.467-3.019 10.533-8.486 11.313-46.173 6.593-92.672 9.89-139.171 9.89z"/></g></g></g></svg>