<svg id="Capa_1" enable-background="new 0 0 512 512" height="512" viewBox="0 0 512 512" width="512" xmlns="http://www.w3.org/2000/svg"><g><path d="m512 256c0 30.34-5.28 59.46-14.98 86.47-6.226 17.359-44.438 46.299-44.438 46.299s-16.116 51.282-40.012 69.781c-30.8 23.84-67.19 40.81-106.87 48.62-16.08 3.17-269.22-116.34-281.4-142.19 0-.01 0-.01 0-.01-15.59-33.06-24.3-70-24.3-108.97 0-141.38 114.62-256 256-256s256 114.62 256 256z" fill="#ffd064"/><g><path d="m411.848 130.576c.398 26.744 8.989 46.546 19.085 60.647 6.035 8.432 19.26 2.285 16.76-7.779-3.878-15.629-5.414-33.448-4.339-52.868.318-5.717.86-11.569 1.64-17.548l-15.072-22.827-17.206 22.827c-.685 6.155-.947 11.999-.868 17.548z" fill="#ddeafb"/><path d="m444.029 193.416c-3.868 2.691-9.649 2.615-13.096-2.194-10.092-14.09-18.683-33.897-19.082-60.64-.087-5.554.184-11.4.865-17.548l17.202-22.832 5.122 7.758-11.357 15.074c-.681 6.148-.951 11.994-.865 17.548.4 26.743 8.99 46.55 19.082 60.64.638.898 1.362 1.622 2.129 2.194z" fill="#cbe2ff"/><path d="m477.632 104.912h-34.009v-63.095h34.009c8.903 0 16.12 7.217 16.12 16.12v30.854c.001 8.903-7.217 16.121-16.12 16.121z" fill="#ddeafb"/><path d="m443.624 82.39v22.525h34.014c8.902 0 16.115-7.222 16.115-16.123v-22.525c0 8.902-7.214 16.123-16.115 16.123z" fill="#cbe2ff"/><path d="m231.716 263.375c2.285 28.838 9.578 82.327 32.74 130.911 5 10.486 15.582 17.166 27.198 17.166h151.748c11.433 0 4.133-12.428 9.181-22.683 6.475-13.163 29.508-20.315 33.745-32.934 12.744-37.95 16.436-71.335 17.506-87.492.454-6.895-2.341-13.607-7.612-18.082-12.508-10.613-40.63-29.698-91.444-41.785-15.9-3.79-27.095-18.042-27.095-34.388v-16.45l-24.419-9.825-31.02-12.477-55.439 22.302v.756c0 18.153-6.059 35.901-17.668 49.85-.963 1.162-1.895 2.349-2.779 3.535-11.036 14.803-16.107 33.187-14.642 51.596z" fill="#b1e4f9"/><path d="m330.035 411.453h-38.381c-11.616 0-22.194-6.678-27.197-17.17-23.167-48.581-30.45-102.068-32.741-130.908-1.47-18.413 3.609-36.793 14.641-51.596.886-1.189 1.815-2.377 2.777-3.533 11.616-13.95 17.667-31.703 17.667-49.856v-.757l55.443-22.292 19.19 7.715-36.242 14.577v.757c0 18.153-6.062 35.907-17.667 49.856-.962 1.156-1.902 2.345-2.777 3.533-11.043 14.803-16.111 33.184-14.652 51.596 2.291 28.84 9.584 82.327 32.741 130.908 5.003 10.492 15.582 17.17 27.198 17.17z" fill="#90d8f9"/><path d="m411.848 130.576h31.506c.318-5.717.86-11.569 1.64-17.548l-15.072-22.827-17.206 22.827c-.685 6.155-.947 11.999-.868 17.548z" fill="#cbe2ff"/><path d="m476.808 44.76-17.526 57.679c-1.913 6.289-7.715 10.59-14.285 10.59h-68.247l-54.503 16.662-25.058-7.532-30.385-9.13s-.659-6.916-8.407-13.388c-6.181-5.165-16.9-10.049-35.41-10.881-3.188-.14-5.586-2.982-5.197-6.159 1.286-10.438 6.127-32.568 24.226-51.758 1.135-1.2 2.583-2.075 4.171-2.507 11.043-2.993 22.313-5.359 33.648-7.196 52.666-8.547 106.661-5.727 145.517-1.243.032.011.065.011.097.011 16.316 1.891 29.974 4.063 39.732 5.813 8.785 1.578 14.22 10.492 11.627 19.039z" fill="#5e54ac"/><path d="m297.189 122.16-30.385-9.13s-.659-6.916-8.407-13.388c-6.181-5.165-16.9-10.049-35.41-10.881-3.188-.14-5.586-2.982-5.197-6.159 1.286-10.438 6.127-32.568 24.226-51.758 1.135-1.2 2.583-2.075 4.171-2.507 11.043-2.993 22.313-5.359 33.648-7.196-10.784 13.993-27.694 41.158-12.967 58.825 18.402 22.085 33.184 26.385 30.321 42.194z" fill="#524798"/><path d="m376.753 113.026h-109.019c-8.395 0-15.201 6.806-15.201 15.201v14.213c0 8.395 6.806 15.201 15.201 15.201h109.019c8.395 0 15.201-6.806 15.201-15.201v-14.213c0-8.395-6.805-15.201-15.201-15.201z" fill="#ddeafb"/><path d="m310.647 157.639h-42.907c-8.4 0-15.207-6.8-15.207-15.199v-14.212c0-8.392 6.807-15.2 15.207-15.2h42.907c-8.4 0-15.199 6.808-15.199 15.2v14.212c0 8.4 6.8 15.199 15.199 15.199z" fill="#cbe2ff"/></g><g><path d="m236.284 176.456c-.41 6.9-1.07 13.45-1.85 19.48-2.94 22.61-7.66 38.04-7.66 38.04h-122.39s-4.32-14.11-7.26-35.1c-.97-6.83-1.78-14.38-2.25-22.42-.48-8.06 4.2-15.54 11.65-18.66 13.09-5.49 32.12-18.07 32.12-44.77h53.88c0 26.7 19.03 39.28 32.12 44.77 7.44 3.12 12.12 10.6 11.64 18.66z" fill="#ddeafb"/><path d="m152.673 113.031c0 26.7-9.12 39.28-15.4 44.77-3.56 3.12-5.81 10.6-5.58 18.66.93 32.75 4.56 57.52 4.56 57.52h-31.87s-7.58-24.77-9.51-57.52c-.48-8.06 4.2-15.54 11.64-18.66 13.1-5.49 32.13-18.07 32.13-44.77z" fill="#cbe2ff"/><path d="m305.7 507.17c-16.08 3.17-32.69 4.83-49.7 4.83-19.621 0-38.726-2.208-57.081-6.388-18.087-4.119-45.274-40.915-45.274-40.915s-46.699.691-63.994-14.11c-27.41-23.457-49.805-52.607-65.351-85.617.76-18.21 1.88-36.41 3.35-54.62 1.46-18.11 15.81-32.55 33.9-34.19 69.36-6.31 138.71-6.31 208.06 0 18.09 1.64 32.45 16.08 33.9 34.19 5.29 65.6 6.02 131.21 2.19 196.82z" fill="#dd5790"/><path d="m239.5 485.67c-.78 9.71-8.47 17.44-18.17 18.32-7.47.68-14.94 1.22-22.41 1.62-41.06-9.35-78.35-28.56-109.27-55.02-1.01-29.09-.34-58.18 2.01-87.27.78-9.71 8.47-17.44 18.17-18.32 37.17-3.38 74.33-3.38 111.5 0 9.7.88 17.39 8.61 18.17 18.32 3.29 40.78 3.29 81.57 0 122.35z" fill="#ddeafb"/><path d="m75.54 298.77c-2.17 45.26-3.16 90.52-2.99 135.78-19.69-20.23-36.07-43.72-48.25-69.57 0-.01 0-.01 0-.01.76-18.21 1.88-36.42 3.35-54.63 1.46-18.11 15.81-32.54 33.91-34.19 6.74-.61 13.48-1.17 20.22-1.66-3.52 6.52-5.8 14.96-6.24 24.28z" fill="#da387d"/><path d="m234.434 195.936c-2.94 22.61-7.66 38.04-7.66 38.04h-122.39s-4.32-14.11-7.26-35.1c2.99-1.87 6.52-2.94 10.3-2.94z" fill="#cbe2ff"/><path d="m241.236 274.406h-151.311c-10.769 0-19.498-8.73-19.498-19.498v-21.973c0-10.769 8.73-19.498 19.498-19.498h151.312c10.769 0 19.498 8.73 19.498 19.498v21.973c-.001 10.768-8.73 19.498-19.499 19.498z" fill="#ddeafb"/><path d="m141.936 274.404h-52.01c-10.77 0-19.5-8.73-19.5-19.5v-21.97c0-10.77 8.73-19.5 19.5-19.5h52.01c-10.76 0-19.49 8.73-19.49 19.5v21.97c0 10.77 8.73 19.5 19.49 19.5z" fill="#cbe2ff"/><path d="m165.58 384.376c-17.511 10.134-29.302 29.056-29.302 50.744 0 1.88.089 3.739.262 5.573 3.317 35.134 54.762 35.134 58.08 0 .173-1.834.262-3.693.262-5.573 0-21.688-11.79-40.61-29.302-50.744z" fill="#b1e4f9"/></g><path d="m497.02 342.47c-16.62 46.34-46.24 86.5-84.45 116.08h-39.39c-14.77 0-26.75-11.98-26.75-26.75v-62.59c0-14.77 11.98-26.74 26.75-26.74z" fill="#95d6a4"/><path d="m413.154 458.552h-39.97c-14.77 0-26.75-11.98-26.75-26.75v-62.59c0-14.77 11.98-26.75 26.75-26.75h39.97c-14.78 0-26.75 11.98-26.75 26.75v62.59c0 14.77 11.97 26.75 26.75 26.75z" fill="#78c2a4"/></g></svg>