<svg id="Capa_1" enable-background="new 0 0 512 512" height="512" viewBox="0 0 512 512" width="512" xmlns="http://www.w3.org/2000/svg"><g><path d="m438.73 256c0 44.316 62.01 86.002 42.194 122.352-12.438 22.817-28.246 43.531-46.757 61.475-46.084 44.674-108.914 36.088-178.167 36.088s-132.083 8.586-178.167-36.088c-18.51-17.944-34.319-38.658-46.757-61.475-19.816-36.35 36.553-78.036 36.553-122.352 0-70.692-38.975-134.692 7.351-181.019s110.328-74.981 181.02-74.981c70.091 0 133.602 28.168 179.832 73.801 47.024 46.417 2.898 110.905 2.898 182.199z" fill="#90d8f9"/><g><path d="m345.126 439.83h-178.252l26.953-85.888h124.346z" fill="#365e7d"/><path d="m365.74 409.064h-219.48c-10.182 0-18.436 8.254-18.436 18.436 0 10.182 8.254 18.436 18.436 18.436h219.48c10.182 0 18.436-8.254 18.436-18.436 0-10.182-8.254-18.436-18.436-18.436z" fill="#407093"/><path d="m172.274 440.54c3.34 3.34 7.95 5.4 13.04 5.4h-39.05c-5.09 0-9.7-2.06-13.04-5.4s-5.4-7.95-5.4-13.04c0-10.18 8.26-18.43 18.44-18.43h39.05c-10.18 0-18.44 8.25-18.44 18.43 0 5.09 2.07 9.701 5.4 13.04z" fill="#365e7d"/><path d="m511.78 245.3c-.16 11.02-.4 22.05-.74 33.07-1.56 18.02-4.99 35.5-10.09 52.25-4 13.15-9.03 25.85-15 38.01-1.61 3.28-3.28 6.52-5.03 9.72-149.95 4.41-299.89 4.41-449.84 0-1.75-3.2-3.42-6.44-5.03-9.72-5.97-12.16-11-24.86-15-38.01-5.1-16.75-8.53-34.23-10.09-52.25-.34-11.02-.58-22.05-.74-33.07-.89-61.83.93-123.67 5.45-185.51.32-4.39 3.91-7.83 8.32-7.97 30.23-.95 60.46-1.73 90.68-2.32 100.89-2 201.77-2 302.66 0 30.22.59 60.45 1.37 90.68 2.32 4.41.14 8 3.58 8.32 7.97 4.52 61.84 6.34 123.68 5.45 185.51z" fill="#407093"/><path d="m19.03 158.98c-1.75 68-.31 136.01 4.34 204.02-4.81-10.44-8.93-21.25-12.32-32.38-5.1-16.74-8.53-34.21-10.09-52.22-.01-.01-.01-.02 0-.03-.34-11.02-.58-22.05-.74-33.07v-.03c-.89-61.82.93-123.65 5.45-185.48.32-4.39 3.91-7.83 8.32-7.97 4-.13 7.99-.25 11.99-.36-1.06 1.34-1.74 2.99-1.88 4.81-2.5 34.23-4.19 68.47-5.07 102.71z" fill="#365e7d"/><path d="m490.22 301c-.5 12.3-7.845 18.991-8.565 31.261-.27 4.66-4.14 8.29-8.8 8.29l-430.634-8.686c-4.66 0-8.53-3.63-8.8-8.29-.72-12.27-11.141-10.275-11.641-22.575-2.5-61.46-2.32-123.18.54-184.6.57-12.32 10.571-15.02 11.361-27.31.29-4.54 4-8.11 8.54-8.24 74.19-2.16 145.594-7.046 219.584-7.046s120 12.116 194.19 14.276c4.54.13 8.25 3.7 8.54 8.24.79 12.29 24.576 7.76 25.146 20.08 2.859 61.42 3.039 123.14.539 184.6z" fill="#ddeafb"/></g><path d="m490.22 301c-.5 12.3-1.11 24.59-1.83 36.86-.27 4.66-4.14 8.29-8.8 8.29h-447.18c-4.66 0-8.53-3.63-8.8-8.29-.72-12.27-1.33-24.56-1.83-36.86z" fill="#4a80aa"/><path d="m489.68 116.4h-467.36c.57-12.32 1.25-24.62 2.04-36.91.29-4.54 4-8.11 8.54-8.24 74.19-2.16 149.11-3.25 223.1-3.25s148.91 1.09 223.1 3.25c4.54.13 8.25 3.7 8.54 8.24.79 12.29 1.47 24.59 2.04 36.91z" fill="#4a80aa"/><path d="m434.17 439.83c-46.09 44.67-108.92 72.17-178.17 72.17s-132.08-27.5-178.17-72.17z" fill="#da8f35"/><g><g><path d="m330.985 219.633h-149.97c-3.423 0-6.197-2.775-6.197-6.197s2.775-6.197 6.197-6.197h149.97c3.423 0 6.197 2.775 6.197 6.197s-2.774 6.197-6.197 6.197z" fill="#407093"/><path d="m256 294.618c-3.423 0-6.197-2.775-6.197-6.197v-149.971c0-3.423 2.775-6.197 6.197-6.197 3.423 0 6.197 2.775 6.197 6.197v149.97c0 3.423-2.774 6.198-6.197 6.198z" fill="#407093"/><circle cx="256" cy="213.435" fill="#4a80aa" r="52.98"/><path d="m285.039 208.37-36.552-21.103c-3.899-2.251-8.774.563-8.774 5.065v42.206c0 4.503 4.874 7.317 8.774 5.065l36.552-21.103c3.899-2.251 3.899-7.879 0-10.13z" fill="#ddeafb"/></g><g fill="#407093"><g><path d="m55.19 110.369h-6.909c-3.347 0-6.061-2.714-6.061-6.061v-15.156c0-3.347 2.714-6.061 6.061-6.061h6.909c3.347 0 6.061 2.714 6.061 6.061v15.155c0 3.348-2.713 6.062-6.061 6.062z"/><path d="m92.329 110.369h-6.909c-3.347 0-6.061-2.714-6.061-6.061v-15.156c0-3.347 2.714-6.061 6.061-6.061h6.909c3.347 0 6.061 2.714 6.061 6.061v15.155c0 3.348-2.713 6.062-6.061 6.062z"/><path d="m129.468 110.369h-6.909c-3.347 0-6.061-2.714-6.061-6.061v-15.156c0-3.347 2.714-6.061 6.061-6.061h6.909c3.347 0 6.061 2.714 6.061 6.061v15.155c0 3.348-2.713 6.062-6.061 6.062z"/><path d="m166.607 110.369h-6.909c-3.347 0-6.061-2.714-6.061-6.061v-15.156c0-3.347 2.714-6.061 6.061-6.061h6.909c3.347 0 6.061 2.714 6.061 6.061v15.155c0 3.348-2.713 6.062-6.061 6.062z"/><path d="m203.746 110.369h-6.909c-3.347 0-6.061-2.714-6.061-6.061v-15.156c0-3.347 2.714-6.061 6.061-6.061h6.909c3.347 0 6.061 2.714 6.061 6.061v15.155c0 3.348-2.714 6.062-6.061 6.062z"/><path d="m240.885 110.369h-6.909c-3.347 0-6.061-2.714-6.061-6.061v-15.156c0-3.347 2.714-6.061 6.061-6.061h6.909c3.347 0 6.061 2.714 6.061 6.061v15.155c0 3.348-2.714 6.062-6.061 6.062z"/><path d="m278.024 110.369h-6.909c-3.347 0-6.061-2.714-6.061-6.061v-15.156c0-3.347 2.714-6.061 6.061-6.061h6.909c3.347 0 6.061 2.714 6.061 6.061v15.155c0 3.348-2.714 6.062-6.061 6.062z"/><path d="m315.163 110.369h-6.909c-3.347 0-6.061-2.714-6.061-6.061v-15.156c0-3.347 2.714-6.061 6.061-6.061h6.909c3.347 0 6.061 2.714 6.061 6.061v15.155c0 3.348-2.714 6.062-6.061 6.062z"/><path d="m352.302 110.369h-6.909c-3.347 0-6.061-2.714-6.061-6.061v-15.156c0-3.347 2.714-6.061 6.061-6.061h6.909c3.347 0 6.061 2.714 6.061 6.061v15.155c0 3.348-2.714 6.062-6.061 6.062z"/><path d="m389.44 110.369h-6.909c-3.347 0-6.061-2.714-6.061-6.061v-15.156c0-3.347 2.714-6.061 6.061-6.061h6.909c3.347 0 6.061 2.714 6.061 6.061v15.155c.001 3.348-2.713 6.062-6.061 6.062z"/><path d="m426.579 110.369h-6.909c-3.347 0-6.061-2.714-6.061-6.061v-15.156c0-3.347 2.714-6.061 6.061-6.061h6.909c3.347 0 6.061 2.714 6.061 6.061v15.155c0 3.348-2.713 6.062-6.061 6.062z"/><path d="m463.718 110.369h-6.909c-3.347 0-6.061-2.714-6.061-6.061v-15.156c0-3.347 2.714-6.061 6.061-6.061h6.909c3.347 0 6.061 2.714 6.061 6.061v15.155c0 3.348-2.713 6.062-6.061 6.062z"/></g><g><path d="m55.19 334.614h-6.909c-3.347 0-6.061-2.714-6.061-6.061v-15.155c0-3.347 2.714-6.061 6.061-6.061h6.909c3.347 0 6.061 2.714 6.061 6.061v15.155c0 3.347-2.713 6.061-6.061 6.061z"/><path d="m92.329 334.614h-6.909c-3.347 0-6.061-2.714-6.061-6.061v-15.155c0-3.347 2.714-6.061 6.061-6.061h6.909c3.347 0 6.061 2.714 6.061 6.061v15.155c0 3.347-2.713 6.061-6.061 6.061z"/><path d="m129.468 334.614h-6.909c-3.347 0-6.061-2.714-6.061-6.061v-15.155c0-3.347 2.714-6.061 6.061-6.061h6.909c3.347 0 6.061 2.714 6.061 6.061v15.155c0 3.347-2.713 6.061-6.061 6.061z"/><path d="m166.607 334.614h-6.909c-3.347 0-6.061-2.714-6.061-6.061v-15.155c0-3.347 2.714-6.061 6.061-6.061h6.909c3.347 0 6.061 2.714 6.061 6.061v15.155c0 3.347-2.713 6.061-6.061 6.061z"/><path d="m203.746 334.614h-6.909c-3.347 0-6.061-2.714-6.061-6.061v-15.155c0-3.347 2.714-6.061 6.061-6.061h6.909c3.347 0 6.061 2.714 6.061 6.061v15.155c0 3.347-2.714 6.061-6.061 6.061z"/><path d="m240.885 334.614h-6.909c-3.347 0-6.061-2.714-6.061-6.061v-15.155c0-3.347 2.714-6.061 6.061-6.061h6.909c3.347 0 6.061 2.714 6.061 6.061v15.155c0 3.347-2.714 6.061-6.061 6.061z"/><path d="m278.024 334.614h-6.909c-3.347 0-6.061-2.714-6.061-6.061v-15.155c0-3.347 2.714-6.061 6.061-6.061h6.909c3.347 0 6.061 2.714 6.061 6.061v15.155c0 3.347-2.714 6.061-6.061 6.061z"/><path d="m315.163 334.614h-6.909c-3.347 0-6.061-2.714-6.061-6.061v-15.155c0-3.347 2.714-6.061 6.061-6.061h6.909c3.347 0 6.061 2.714 6.061 6.061v15.155c0 3.347-2.714 6.061-6.061 6.061z"/><path d="m352.302 334.614h-6.909c-3.347 0-6.061-2.714-6.061-6.061v-15.155c0-3.347 2.714-6.061 6.061-6.061h6.909c3.347 0 6.061 2.714 6.061 6.061v15.155c0 3.347-2.714 6.061-6.061 6.061z"/><path d="m389.44 334.614h-6.909c-3.347 0-6.061-2.714-6.061-6.061v-15.155c0-3.347 2.714-6.061 6.061-6.061h6.909c3.347 0 6.061 2.714 6.061 6.061v15.155c.001 3.347-2.713 6.061-6.061 6.061z"/><path d="m426.579 334.614h-6.909c-3.347 0-6.061-2.714-6.061-6.061v-15.155c0-3.347 2.714-6.061 6.061-6.061h6.909c3.347 0 6.061 2.714 6.061 6.061v15.155c0 3.347-2.713 6.061-6.061 6.061z"/><path d="m463.718 334.614h-6.909c-3.347 0-6.061-2.714-6.061-6.061v-15.155c0-3.347 2.714-6.061 6.061-6.061h6.909c3.347 0 6.061 2.714 6.061 6.061v15.155c0 3.347-2.713 6.061-6.061 6.061z"/></g></g></g></g></svg>