<svg id="Capa_1" enable-background="new 0 0 512 512" height="512" viewBox="0 0 512 512" width="512" xmlns="http://www.w3.org/2000/svg"><g><path d="m12.99 336.72c-8.43-25.38-12.99-52.52-12.99-80.72s4.56-55.34 12.99-80.72c5.02-15.13 11.41-29.62 19.03-43.35 5.78-10.42 12.27-20.39 19.41-29.85 46.72-62 120.96-102.08 204.57-102.08 141.38 0 256 114.62 256 256 0 24.44-3.43 48.08-9.82 70.46" fill="#5e54ac"/><g fill="#524798"><path d="m57.14 94.78v284.21c-7.35-9.04-14.09-18.6-20.16-28.61-4.68-7.72-8.96-15.7-12.82-23.92v-179.15c8.86-18.88 19.97-36.51 32.98-52.53z"/><path d="m164.82 16.72v440.32c-11.41-4.34-22.43-9.49-32.99-15.36v-409.6c10.56-5.87 21.58-11.01 32.99-15.36z"/><path d="m272.49.52v472.73c-5.45.34-10.95.52-16.49.52s-11.04-.18-16.49-.52v-472.73c5.45-.34 10.95-.52 16.49-.52s11.04.18 16.49.52z"/><path d="m380.17 32.08v409.6c-10.56 5.87-21.58 11.02-32.99 15.36v-440.32c11.41 4.35 22.43 9.49 32.99 15.36z"/><path d="m487.84 147.31v179.15c-3.86 8.22-8.14 16.2-12.82 23.92-6.07 10.01-12.81 19.57-20.16 28.61v-284.21c13.01 16.02 24.12 33.65 32.98 52.53z"/></g><path d="m468.035 356.255c-9.27 18.15-4.575 51.095-17.725 66.415-46.95 54.69-116.59 89.33-194.31 89.33-75.99 0-144.25-33.11-191.14-85.7-14.5-16.26-14.2-69.99-24.21-89.58z" fill="#365e7d"/><ellipse cx="141.983" cy="232.082" fill="#cbe2ff" rx="88.935" ry="46.943"/><path d="m115.615 256h-74.197v67.43h103.603z" fill="#ddeafb"/><path d="m115.615 256h360.627v67.43h-360.627z" fill="#cbe2ff"/><path d="m462.624 401.461h-409.576l-14.123-115.141h428.428z" fill="#da8f35"/><path d="m462.624 401.461s-159.373 0-231.706 0-103.094-115.141-103.094-115.141h339.529z" fill="#c47528"/><path d="m80.96 401.461h-27.912l-14.123-115.141h42.035z" fill="#c47528"/><path d="m184.04 160.59-22.2 53.82-10.79 26.17c-37.17 0-90.18-17.09-67.95-65.13 12.06-26.08 28.56-35.28 44.72-36.38 28.64-1.95 56.22 21.52 56.22 21.52z" fill="#407093"/><path d="m161.84 214.41-10.79 26.17c-37.17 0-90.18-17.09-67.95-65.13 12.06-26.08 28.56-35.28 44.72-36.38v.01c-38.62 10.54-25.67 51.8 14.16 63.32 8.06 2.33 14.58 6.63 19.86 12.01z" fill="#365e7d"/><path d="m424.51 380.05c0 .01-.01.01-.01.02-23.1 23.17-48.76 39.57-62.14 47.35-5.88 3.42-12.85 4.44-19.47 2.85-38.72-9.29-170.118-50.789-200.907-146.845-3.723-11.614 2.653-21.845 2.404-35.167-.359-19.175 3.254-40.167 11.92-63.118 6.31-16.71 18.024-32.4 53.124-41.7 13.46-3.57 28.25-6.2 43.78-7.58 5.31-.48.219 12.657 5.679 12.487 42.65-1.35 89.04 6.93 127.67 30.61 2.85 1.75 16.151-9.896 18.911-7.977 12.22 8.49 23.53 18.66 33.52 30.73 3.99 4.83 7.77 9.95 11.32 15.39 43.859 67.33 12.569 124.48-25.801 162.95z" fill="#ddeafb"/><g fill="#cbe2ff"><path d="m424.51 380.05c18.14-30.92 14.47-139.09 14.47-178.33l.01-.01c3.99 4.83 7.77 9.95 11.32 15.39 43.86 67.33 12.57 124.48-25.8 162.95z"/><path d="m362.36 427.42c-5.88 3.42-12.85 4.44-19.47 2.85-50.14-12.03-265.39-74.36-200.91-245.13 6.31-16.71 32.35-32.4 67.45-41.7-12.99 18.72-39.25 66.36-25.39 130.01 18.07 82.97 178.32 153.97 178.32 153.97z"/><path d="m405.47 170.98c-18.91 36.16-71.44 68.2-73.85 69.66l-3.72 2.25-4.17-1.18c-59.68-16.87-97.57-47.54-99.15-48.83l-5.52-4.53 2.48-6.68c6.72-18.14 18.83-33.52 31.67-45.81 5.31-.48 10.72-.81 16.18-.98 20.197-.639 46.274 24.568 46.274 24.568s61.06-6.424 81.396 6.042c2.85 1.75 5.65 3.57 8.41 5.49z"/></g><path d="m397.06 165.49c-17.19 34.32-70.61 66.59-70.61 66.59-58.36-16.49-95.53-46.94-95.53-46.94 7.67-20.72 23.35-37.72 38.47-50.26 42.65-1.35 89.04 6.93 127.67 30.61z" fill="#ffd064"/><path d="m64.86 124.8v301.5c-22.94-25.73-40.76-56.12-51.87-89.58v-211.92c0-14.32 11.61-25.93 25.93-25.93 4.53 0 8.8 1.16 12.51 3.21 2.15 1.18 4.11 2.66 5.83 4.38 4.7 4.7 7.6 11.18 7.6 18.34z" fill="#da8f35"/><path d="m48.44 100.68c-9.62 3.78-16.42 13.16-16.42 24.12v255.25c-1.42-2.55-2.79-5.13-4.12-7.73-5.83-11.4-10.83-23.29-14.91-35.6v-211.92c0-14.32 11.61-25.93 25.93-25.93 3.36 0 6.57.64 9.52 1.81z" fill="#c47528"/><path d="m502.18 217.1v109.36c-10.27 35.93-28.18 68.62-51.87 96.21v-205.57c0-14.32 11.61-25.93 25.93-25.93 7.16 0 13.65 2.9 18.34 7.59 4.7 4.7 7.6 11.18 7.6 18.34z" fill="#da8f35"/><path d="m485.76 192.98c-9.62 3.78-16.42 13.16-16.42 24.12v180.43c-5.83 8.78-12.19 17.17-19.03 25.14v-205.57c0-14.32 11.61-25.93 25.93-25.93 3.36 0 6.57.64 9.52 1.81z" fill="#c47528"/><g><path d="m216.222 123.005h-38.023c-2.752 0-5.283-1.507-6.594-3.926-1.312-2.419-1.192-5.362.31-7.668l29.583-45.402h-22.13c-4.142 0-7.5-3.358-7.5-7.5s3.358-7.5 7.5-7.5h35.969c2.752 0 5.283 1.507 6.594 3.926 1.312 2.419 1.192 5.362-.31 7.668l-29.583 45.402h24.185c4.142 0 7.5 3.358 7.5 7.5s-3.359 7.5-7.501 7.5z" fill="#ffd064"/></g><g><path d="m281.658 86.216h-38.023c-2.752 0-5.283-1.507-6.594-3.926-1.312-2.419-1.192-5.362.31-7.668l29.583-45.402h-22.13c-4.142 0-7.5-3.358-7.5-7.5s3.358-7.5 7.5-7.5h35.968c2.752 0 5.283 1.507 6.594 3.926 1.312 2.419 1.192 5.362-.31 7.668l-29.583 45.402h24.185c4.142 0 7.5 3.358 7.5 7.5s-3.358 7.5-7.5 7.5z" fill="#ffd064"/></g><g><path d="m350.288 74.029h-38.023c-2.752 0-5.283-1.507-6.594-3.926-1.312-2.419-1.192-5.362.31-7.668l29.583-45.402h-22.13c-4.142 0-7.5-3.358-7.5-7.5s3.358-7.5 7.5-7.5h35.969c2.752 0 5.283 1.507 6.594 3.926 1.312 2.419 1.192 5.362-.31 7.668l-29.583 45.402h24.185c4.142 0 7.5 3.358 7.5 7.5s-3.359 7.5-7.501 7.5z" fill="#ffd064"/></g></g></svg>