<svg id="Capa_1" enable-background="new 0 0 512 512" height="512" viewBox="0 0 512 512" width="512" xmlns="http://www.w3.org/2000/svg"><g><path d="m512 256.022c0 88.366-44.772 166.274-112.868 212.279-40.858 27.603-90.113 26.861-143.132 26.861-52.713 0-101.706.928-142.424-26.384-68.494-45.943-113.576-124.085-113.576-212.756 0-141.385 114.615-256 256-256s256 114.615 256 256z" fill="#90d8f9"/><g><path d="m398.41 468.782c-12.34 8.28-25.44 15.52-39.18 21.57-64.511 28.83-141.934 28.841-206.46 0-13.74-6.06-26.84-13.29-39.19-21.58 10.39-14.37 23.76-26.43 39.19-35.32 10.2-5.87 21.3-10.34 33.03-13.15 1.81-.44 3.64-.84 5.48-1.19 3.47-.68 7-1.2 10.57-1.57 1.03-.11 2.05-.21 3.09-.29 3.38-.28 6.8-.42 10.26-.42h81.59c4.52 0 8.97.24 13.35.7 3.57.37 7.09.9 10.57 1.56 1.39.27 2.77.56 4.14.87.45.12.91.21 1.35.33 11.74 2.82 22.83 7.29 33.03 13.16 15.43 8.9 28.79 20.96 39.18 35.33z" fill="#ddeafb"/><path d="m215.2 416.832c-29.36 0-49.26 42.43-50.73 78.33-3.948-1.487-7.851-3.12-11.7-4.81-13.74-6.06-26.84-13.29-39.19-21.58 10.39-14.37 23.76-26.43 39.19-35.32 10.2-5.87 21.3-10.34 33.03-13.15 1.81-.44 3.64-.84 5.48-1.19 3.47-.68 7-1.2 10.57-1.57 1.03-.11 2.05-.21 3.09-.29 3.38-.28 6.8-.42 10.26-.42z" fill="#cbe2ff"/><path d="m300.706 368.559v51.394c0 9.219-21.618 43.131-31.489 46.182-4.176 1.296-8.627 1.997-13.23 1.997-24.691 0-44.703-20.012-44.703-44.703v-54.869h89.422z" fill="#cbe2ff"/><path d="m300.706 419.954v3.475c0 20.088-13.245 37.067-31.489 42.707-16.461-5.06-28.837-19.372-31.123-36.884 2.987.183 5.99.274 9.008.274 8.459 0 16.75-.671 24.828-1.997 9.953-1.601 19.57-4.161 28.776-7.575z" fill="#ddeafb"/><g><path d="m132.54 278.175c0 20.497-14.973 37.492-34.579 40.646-2.143.347-4.347.528-6.596.528-22.746 0-41.175-18.429-41.175-41.175s18.43-41.174 41.175-41.174c2.249 0 4.453.181 6.596.528 19.606 3.155 34.579 20.15 34.579 40.647z" fill="#b46e59"/><path d="m132.54 278.175c0 20.497-14.973 37.492-34.579 40.646-3.562-12.95-5.464-26.579-5.464-40.646s1.902-27.696 5.464-40.646c19.606 3.154 34.579 20.149 34.579 40.646z" fill="#a55e4d"/><circle cx="91.365" cy="278.175" fill="#a55e4d" r="14.716"/><path d="m379.449 278.175c0 20.497 14.973 37.492 34.579 40.646 2.143.347 4.347.528 6.596.528 22.746 0 41.175-18.429 41.175-41.175s-18.429-41.174-41.175-41.174c-2.249 0-4.453.181-6.596.528-19.606 3.155-34.579 20.15-34.579 40.647z" fill="#b46e59"/><g fill="#a55e4d"><path d="m379.449 278.175c0 20.497 14.973 37.492 34.579 40.646 3.562-12.95 5.464-26.579 5.464-40.646s-1.902-27.696-5.464-40.646c-19.606 3.154-34.579 20.149-34.579 40.646z"/><circle cx="420.624" cy="278.175" r="14.716"/></g></g><path d="m398.41 99.032 12.29 157.5c0 2.71-.07 5.41-.21 8.09-3.78 73.34-58.63 133.18-129.67 144.62-8.07 1.32-16.37 1.99-24.83 1.99-85.44 0-154.7-69.25-154.7-154.7l12.29-157.5z" fill="#b46e59"/><path d="m410.7 128.142v123.39c0 2.71-.07 5.41-.21 8.09-37.06-16.12-30.55-96.27-30.55-96.27z" fill="#407093"/><path d="m283.243 408.832c-.8.14-1.61.28-2.42.41-8.08 1.32-16.37 1.99-24.83 1.99-85.44 0-154.7-69.25-154.7-154.7v-157.5h54.55v157.5c0 76.14 54.98 139.41 127.4 152.3z" fill="#a55e4d"/><path d="m101.29 128.142v123.39c0 2.71.07 5.41.21 8.09 37.06-16.12 30.55-96.27 30.55-96.27z" fill="#407093"/><g><path d="m372.465 223.426c-2.657 0-4.869-2.091-4.991-4.772-.126-2.759 2.009-5.097 4.767-5.222l43.445-1.978c2.759-.151 5.097 2.009 5.222 4.767.126 2.759-2.009 5.097-4.767 5.222l-43.445 1.978c-.077.003-.154.005-.231.005z" fill="#dd5790"/><path d="m139.535 223.426c-.077 0-.154-.001-.231-.005l-43.445-1.978c-2.758-.125-4.893-2.463-4.767-5.222.125-2.758 2.456-4.907 5.222-4.767l43.445 1.978c2.758.125 4.893 2.463 4.767 5.222-.122 2.681-2.334 4.772-4.991 4.772z" fill="#da387d"/></g><path d="m273.544 286.715h-35.098c-4.181 0-7.57-3.389-7.57-7.57 0-4.181 3.389-7.57 7.57-7.57h35.098c4.181 0 7.57 3.389 7.57 7.57 0 4.181-3.389 7.57-7.57 7.57z" fill="#a55e4d"/><g><path d="m364.039 308.291c-1.804 0-3.546-.979-4.438-2.689-1.275-2.446-.328-5.463 2.115-6.742.404-.212 40.532-21.769 49.454-68.167.521-2.712 3.14-4.485 5.854-3.966 2.712.521 4.487 3.143 3.966 5.854-9.857 51.263-52.82 74.192-54.645 75.143-.737.385-1.527.567-2.306.567z" fill="#ddeafb"/><path d="m147.948 308.291c-.778 0-1.567-.182-2.306-.567-1.824-.951-44.787-23.879-54.645-75.143-.521-2.712 1.254-5.333 3.966-5.854 2.716-.519 5.333 1.254 5.854 3.966 8.922 46.399 49.05 67.955 49.454 68.167 2.441 1.283 3.388 4.302 2.108 6.747-.891 1.707-2.63 2.684-4.431 2.684z" fill="#cbe2ff"/></g><path d="m375.79 357.842c-3.45 20.32-20.5 35.62-41.03 37.42-52.51 4.62-105.02 4.62-157.53 0-20.53-1.8-37.58-17.1-41.03-37.42-3.05-17.95-7.03-42.37-1.06-62.39 1.95-6.51 7.57-11.25 14.32-11.97 25.63-2.73 53.31-4.4 81.46-5.03 16.66-.36 33.49-.36 50.15 0 28.15.63 55.83 2.3 81.46 5.03 6.75.72 12.37 5.46 14.31 11.97 5.98 20.02 2 44.44-1.05 62.39z" fill="#ddeafb"/><g fill="#cbe2ff"><path d="m219.406 397.984c-14.06-.57-28.12-1.47-42.18-2.71-20.53-1.81-37.58-17.11-41.03-37.43-3.05-17.95-7.03-42.37-1.06-62.39 1.95-6.51 7.57-11.25 14.32-11.97 15.29-1.63 31.31-2.88 47.72-3.76-2.48 2.33-4.35 5.32-5.37 8.72-6.94 23.28-2.32 51.68 1.23 72.57 2.72 16.05 12.74 29.4 26.37 36.97z"/><g><path d="m336.839 324.986c-.112 0-.225-.003-.338-.011-53.421-3.57-107.594-3.569-161.013 0-2.741.184-5.138-1.9-5.322-4.655s1.9-5.138 4.656-5.322c53.862-3.6 108.484-3.6 162.345 0 2.756.184 4.84 2.567 4.656 5.322-.177 2.641-2.375 4.666-4.984 4.666z"/><path d="m343.84 348.033h-175.69c-2.762 0-5-2.239-5-5s2.238-5 5-5h175.69c2.762 0 5 2.239 5 5s-2.238 5-5 5z"/><path d="m255.994 373.768c-27.12 0-54.241-.899-81.172-2.699-2.756-.184-4.84-2.567-4.656-5.322.185-2.755 2.583-4.85 5.322-4.655 53.419 3.569 107.592 3.569 161.013 0 2.742-.195 5.138 1.9 5.322 4.655s-1.9 5.138-4.656 5.322c-26.931 1.799-54.052 2.699-81.173 2.699z"/></g><path d="m281.11 279.142c0 2.09-.85 3.98-2.22 5.35s-3.26 2.22-5.35 2.22h-35.09c-4.18 0-7.57-3.39-7.57-7.57 0-.23.01-.47.04-.69 16.66-.36 33.49-.36 50.15 0 .03.22.04.46.04.69z"/></g><path d="m410.71 193.881-27.83-8.59c-73.81-22.8-152.24-25.24-227.04-7.32-8.96 2.15-17.87 4.59-26.72 7.32l-27.83 8.59c-34.06-34.06-63.65-75.37-24.64-134.36 21.37-32.32 73.14-47.08 115.6-53.83 35.05-5.569 63.75-5.669 63.75-5.669s140.34.5 179.35 59.5c39.01 58.99 9.42 100.299-24.64 134.359z" fill="#ddeafb"/><path d="m155.84 177.972c-8.96 2.15-17.87 4.59-26.72 7.32l-27.83 8.59c-34.06-34.06-63.65-75.37-24.64-134.36 21.37-32.32 73.14-47.08 115.6-53.83-49.91 11.609-79.86 105.01-36.41 172.28z" fill="#cbe2ff"/><path d="m410.712 201.383c-.733 0-1.478-.108-2.214-.335l-27.83-8.59c-72.326-22.342-149.466-24.83-223.081-7.193-8.777 2.106-17.612 4.526-26.256 7.193l-27.829 8.589c-3.957 1.22-8.157-.997-9.378-4.955-1.222-3.958.997-8.157 4.955-9.378l27.83-8.59c8.948-2.76 18.093-5.266 27.182-7.446 76.232-18.262 156.11-15.688 231.003 7.447l27.829 8.589c3.958 1.222 6.176 5.42 4.955 9.378-.996 3.223-3.962 5.291-7.166 5.291z" fill="#cbe2ff"/><g><path d="m385.362 217.95c-.575-5.234-4.76-9.339-9.999-9.865-27.07-2.72-107.363-10.684-119.356-10.684-13.974 0-36.479 2.797-119.559 10.418-5.261.483-9.501 4.586-10.082 9.836-1.947 17.573-2.484 35.146-1.611 52.72.833 16.766 14.333 30.219 31.103 30.957 19.133.842 38.265.842 57.398 0 16.77-.738 30.273-14.19 31.103-30.956.171-3.449.287-6.898.35-10.347.109-6.055 5.084-10.889 11.14-10.889 6.056 0 11.03 4.834 11.14 10.889.062 3.449.179 6.898.35 10.347.83 16.766 14.333 30.218 31.103 30.956 19.133.842 38.265.842 57.398 0 16.767-.738 30.27-14.185 31.103-30.948.867-17.478.34-34.956-1.581-52.434z" fill="#dd5790"/><path d="m163.365 301.615c-2.5-.08-5.01-.18-7.51-.29-16.77-.73-30.27-14.19-31.11-30.95-.87-17.58-.33-35.15 1.62-52.72.58-5.25 4.82-9.36 10.08-9.84 5.27-.48 10.3-.95 15.09-1.39-2.62 1.95-4.43 4.92-4.81 8.35-2.12 19.15-2.71 38.3-1.76 57.45.63 12.67 7.9 23.61 18.4 29.39z" fill="#da387d"/><path d="m184.558 286.81c-7.083 0-14.204-.121-21.335-.36-12.921-.434-23.238-10.886-23.589-23.81-.201-7.418-.142-14.841.179-22.255.434-10.045 8.458-18.133 18.504-18.547 8.769-.361 17.534-.543 26.241-.543 8.708 0 17.473.182 26.242.543 10.045.414 18.07 8.503 18.504 18.547.394 9.107.394 18.227 0 27.334-.434 10.044-8.458 18.133-18.504 18.547-8.769.362-17.535.544-26.242.544z" fill="#b1e4f9"/><path d="m327.138 286.81c-8.707 0-17.472-.182-26.241-.544-10.045-.414-18.07-8.503-18.504-18.547-.394-9.107-.394-18.227 0-27.334.434-10.045 8.459-18.133 18.504-18.547 8.769-.361 17.534-.543 26.241-.543 8.708 0 17.473.182 26.242.543 10.045.414 18.07 8.503 18.504 18.547.32 7.415.38 14.838.179 22.255-.351 12.924-10.667 23.375-23.589 23.81-7.131.239-14.253.36-21.336.36z" fill="#b1e4f9"/><g fill="#90d8f9"><path d="m167.813 286.588c-1.53-.04-3.06-.09-4.59-.14-12.92-.43-23.23-10.88-23.59-23.81-.2-7.42-.14-14.84.18-22.25.44-10.05 8.46-18.14 18.51-18.55 1.88-.08 3.76-.15 5.65-.21-6.15 3.5-10.37 10.01-10.7 17.52-.35 8.09-.41 16.18-.19 24.27.27 10.141 6.18 18.891 14.73 23.17z"/><path d="m307.533 286.509c-2.21-.07-4.42-.15-6.63-.24-10.05-.42-18.07-8.51-18.51-18.55-.39-9.11-.39-18.23 0-27.33.44-10.05 8.46-18.14 18.51-18.55 2.21-.09 4.42-.17 6.63-.24-6.68 3.24-11.34 9.97-11.68 17.82-.42 9.75-.42 19.52 0 29.27.34 7.849 5 14.579 11.68 17.82z"/></g></g></g></g></svg>