<svg id="Capa_1" enable-background="new 0 0 512 512" height="512" viewBox="0 0 512 512" width="512" xmlns="http://www.w3.org/2000/svg"><g><path d="m512 256c0 37.32-7.99 72.78-22.35 104.75-4.11 9.16-37.76-.76-42.88 7.79s18.28 35.57 12.23 43.44c-45.08 58.58-114.94 97.1-193.89 99.86-3.03.11-207.9-94.13-214.69-103.27-6.5-8.75-12.46-17.92-17.81-27.47-2.728-4.848.119-12.191-2.289-17.23-1.873-3.921-9.065-5.5-10.741-9.53-12.62-30.28-19.58-63.49-19.58-98.34 0-141.38 114.62-256 256-256 81.93 0 154.87 38.49 201.73 98.38 5.17 6.6 10.02 13.47 14.53 20.58 25.17 39.62 39.74 86.63 39.74 137.04z" fill="#95d6a4"/><path d="m256 99.253c-84.104 0-168.509-8.021-250.867-23.842l3.773-19.641c81.118 15.583 164.252 23.483 247.094 23.483s165.976-7.901 247.094-23.483l3.773 19.641c-82.358 15.821-166.763 23.842-250.867 23.842z" fill="#365e7d"/><path d="m208.174 116.756-2.982 26.85c-38.083-4.227-72.115 20.765-76.008 55.805l-18.301-2.034c3.288-29.63-16.021-56.962-45.089-67.257-5.314-1.885-10.943-3.192-16.827-3.849l2.981-26.85 24.202 2.683z" fill="#ddeafb"/><path d="m76.15 102.103c-4.7 5.919-9.777 15.188-10.356 28.016-5.314-1.885-10.943-3.192-16.827-3.849l2.981-26.85z" fill="#cbe2ff"/><g><path d="m197.43 66.369c-5.679-.518-10.703 3.667-11.221 9.346l-3.852 42.27c-.518 5.679 3.667 10.703 9.346 11.221 5.679.518 10.703-3.667 11.221-9.346l3.852-42.27c.518-5.68-3.667-10.704-9.346-11.221z" fill="#5e54ac"/><path d="m196.563 128.478c-1.482.618-3.144.889-4.857.732-5.686-.518-9.867-5.549-9.35-11.225l3.852-42.265c.518-5.686 5.539-9.868 11.225-9.35 1.713.156 3.298.722 4.645 1.588-3.452 1.412-6.007 4.654-6.369 8.627l-3.852 42.265c-.361 3.965 1.566 7.615 4.706 9.628z" fill="#524798"/></g><g><path d="m74.172 55.227c-5.623-.95-10.952 2.838-11.902 8.461l-7.073 41.852c-.95 5.623 2.838 10.952 8.461 11.902 5.623.95 10.952-2.838 11.902-8.461l7.073-41.852c.95-5.623-2.838-10.951-8.461-11.902z" fill="#5e54ac"/><path d="m68.559 117.088c-1.525.503-3.202.646-4.898.359-5.63-.952-9.414-6.287-8.464-11.907l7.072-41.847c.952-5.63 6.277-9.416 11.907-8.464 1.696.287 3.233.973 4.51 1.939-3.55 1.144-6.346 4.181-7.01 8.115l-7.072 41.847c-.664 3.924.977 7.711 3.955 9.958z" fill="#524798"/></g><path d="m489.65 360.75c-8.22 18.32-18.54 35.5-30.65 51.23l-146.37 10.52c-7.89.56-14.75-5.37-15.31-13.26l-20.39-283.57c-.57-7.89 5.37-14.74 13.26-15.31l166.24-11.95c.44-.03.87-.04 1.3-.03 7.33.12 13.48 5.84 14.01 13.29l.52 7.29z" fill="#b1e4f9"/><path d="m321.492 421.864-8.86.64c-7.89.56-14.75-5.37-15.32-13.26l-20.38-283.57c-.57-7.89 5.37-14.74 13.26-15.31l8.85-.64c-3.12 2.91-4.94 7.16-4.62 11.75l20.81 289.43c.33 4.59 2.75 8.53 6.26 10.96z" fill="#90d8f9"/><path d="m256 238.072c-84.104 0-168.509-8.021-250.867-23.842l3.773-19.641c81.118 15.582 164.252 23.483 247.094 23.483s165.976-7.901 247.094-23.483l3.773 19.641c-82.358 15.821-166.763 23.842-250.867 23.842z" fill="#365e7d"/><g><path d="m55.41 398.75-22.8-17.65c-4.85-8.62-9.2-17.55-13.03-26.76l30.84-108.68z" fill="#da387d"/><path d="m265.112 245.663 34.717 122.348-39.707 30.735z" fill="#da387d"/><path d="m265.11 245.66v266.18c-3.03.11-6.06.16-9.11.16-71.945 0-136.964-29.686-183.468-77.471-7.928-8.146-4.262-37.254-11.057-46.394l-11.055-142.475z" fill="#dd5790"/><g fill="#da387d"><path d="m72.53 245.66v188.87c-7.93-8.15-15.32-16.82-22.11-25.96v-162.91z"/><path d="m222.36 245.66c0 35.68-28.92 64.59-64.59 64.59-35.68 0-64.59-28.91-64.59-64.59z"/></g></g><g><g><path d="m80.01 199.41c-5.703 0-10.326 4.623-10.326 10.326v42.445c0 5.703 4.623 10.326 10.326 10.326 5.703 0 10.326-4.623 10.326-10.326v-42.445c0-5.703-4.623-10.326-10.326-10.326z" fill="#5e54ac"/><path d="m84.784 261.341c-1.42.75-3.05 1.17-4.77 1.17-5.71 0-10.33-4.63-10.33-10.33v-42.44c0-5.71 4.62-10.33 10.33-10.33 1.72 0 3.35.42 4.77 1.16-3.31 1.72-5.56 5.18-5.56 9.17v42.44c0 3.98 2.25 7.44 5.56 9.16z" fill="#524798"/></g><g><path d="m235.522 199.41c-5.703 0-10.326 4.623-10.326 10.326v42.445c0 5.703 4.623 10.326 10.326 10.326 5.703 0 10.326-4.623 10.326-10.326v-42.445c0-5.703-4.623-10.326-10.326-10.326z" fill="#5e54ac"/><path d="m240.297 261.341c-1.42.75-3.05 1.17-4.77 1.17-5.71 0-10.33-4.63-10.33-10.33v-42.44c0-5.71 4.62-10.33 10.33-10.33 1.72 0 3.35.42 4.77 1.16-3.31 1.72-5.56 5.18-5.56 9.17v42.44c-.001 3.98 2.249 7.44 5.56 9.16z" fill="#524798"/></g></g><path d="m422.15 348.29-20.87 2.41c-3.43-29.74-25.87-53.03-55.03-60.93-10.01-2.72-20.81-3.62-31.91-2.34l-3.53-30.6 32.92-3.8 145.15-16.75 3.53 30.6c-43.41 5.01-74.87 41.46-70.26 81.41z" fill="#ffd064"/><path d="m346.25 289.77c-10.01-2.72-20.81-3.62-31.91-2.34l-3.53-30.6 32.92-3.8c-3.34 9.16-4.76 21.92 2.52 36.74z" fill="#ffc250"/><g><path d="m455.71 189.693c-5.651.765-9.613 5.966-8.848 11.618l5.693 42.062c.765 5.651 5.966 9.613 11.618 8.848 5.651-.765 9.613-5.966 8.848-11.618l-5.693-42.062c-.766-5.652-5.967-9.613-11.618-8.848z" fill="#5e54ac"/><path d="m468.747 250.424c-1.307.934-2.866 1.569-4.57 1.799-5.658.766-10.858-3.203-11.622-8.851l-5.692-42.056c-.766-5.658 3.193-10.856 8.851-11.622 1.704-.231 3.376-.033 4.883.51-3.049 2.148-4.815 5.879-4.28 9.833l5.692 42.056c.533 3.944 3.227 7.071 6.738 8.331z" fill="#524798"/></g><g><path d="m333.08 206.382c-5.693.33-10.041 5.214-9.71 10.907l2.46 42.374c.33 5.693 5.214 10.041 10.907 9.71 5.693-.331 10.041-5.214 9.71-10.907l-2.46-42.374c-.331-5.694-5.214-10.041-10.907-9.71z" fill="#5e54ac"/><path d="m341.435 267.932c-1.374.831-2.977 1.345-4.694 1.445-5.7.331-10.581-4.024-10.911-9.714l-2.46-42.369c-.331-5.7 4.014-10.58 9.714-10.911 1.717-.1 3.369.225 4.829.882-3.205 1.909-5.251 5.493-5.019 9.477l2.46 42.369c.23 3.972 2.677 7.296 6.081 8.821z" fill="#524798"/></g><g><g><path d="m310.006 68.485c-5.688.409-9.968 5.352-9.559 11.04l3.044 42.336c.409 5.688 5.352 9.968 11.04 9.559 5.688-.409 9.968-5.352 9.559-11.04l-3.044-42.336c-.409-5.688-5.352-9.968-11.04-9.559z" fill="#5e54ac"/><path d="m319.209 129.915c-1.363.85-2.958 1.386-4.674 1.509-5.695.409-10.635-3.878-11.044-9.563l-3.043-42.331c-.409-5.695 3.868-10.635 9.563-11.044 1.716-.123 3.371.179 4.841.815-3.178 1.953-5.174 5.565-4.888 9.545l3.043 42.331c.285 3.97 2.777 7.26 6.202 8.738z" fill="#524798"/></g><g><path d="m430.827 59.8c-5.688.409-9.968 5.352-9.559 11.04l3.044 42.336c.409 5.688 5.352 9.968 11.04 9.559 5.688-.409 9.968-5.352 9.559-11.04l-3.044-42.336c-.409-5.688-5.352-9.968-11.04-9.559z" fill="#5e54ac"/><path d="m440.029 121.23c-1.363.85-2.958 1.386-4.674 1.509-5.695.409-10.635-3.878-11.044-9.563l-3.043-42.331c-.409-5.695 3.868-10.635 9.563-11.044 1.716-.123 3.371.179 4.841.815-3.178 1.953-5.174 5.565-4.888 9.545l3.043 42.331c.285 3.97 2.777 7.26 6.202 8.738z" fill="#524798"/></g></g></g></svg>