<svg id="Capa_1" enable-background="new 0 0 512 512" height="512" viewBox="0 0 512 512" width="512" xmlns="http://www.w3.org/2000/svg"><g><path d="m512 256c0 73.21-30.74 139.25-80.01 185.92-45.88 43.43-333.92 17.1-351.98 0-49.27-46.67-80.01-112.71-80.01-185.92 0-141.38 114.62-256 256-256s256 114.62 256 256z" fill="#ffd064"/><path d="m431.99 441.92c-45.88 43.43-107.82 70.08-175.99 70.08s-130.11-26.65-175.99-70.08c-3.16-73.52-1.85-147.03 3.93-220.55 1.87-23.78 20.59-42.83 44.35-44.99 85.14-7.73 170.28-7.73 255.42 0 23.76 2.16 42.48 21.21 44.35 44.99 5.78 73.52 7.09 147.03 3.93 220.55z" fill="#95d6a4"/><path d="m323.34 462.924c-44.894 4.077-89.787 4.077-134.681 0-12.525-1.138-22.396-11.183-23.381-23.721-3.941-50.136-3.941-100.272 0-150.408.986-12.538 10.856-22.583 23.381-23.721 44.894-4.077 89.787-4.077 134.681 0 12.525 1.138 22.396 11.183 23.381 23.721 3.941 50.136 3.941 100.272 0 150.408-.985 12.539-10.855 22.584-23.381 23.721z" fill="#ddeafb"/><path d="m162.17 173.72c-10.6 8.88-17.65 21.83-18.8 36.45-7.19 91.54-7.97 183.09-2.31 274.64-22.44-11.29-42.99-25.79-61.05-42.89-3.17-73.52-1.85-147.03 3.93-220.55 1.87-23.78 20.59-42.83 44.34-44.99 11.3-1.02 22.59-1.91 33.89-2.66z" fill="#78c2a4"/><g><path d="m331.656 175.67h-151.312c-10.769 0-19.498-8.73-19.498-19.498v-111.973c0-10.769 8.73-19.498 19.498-19.498h151.312c10.768 0 19.498 8.73 19.498 19.498v111.973c0 10.769-8.73 19.498-19.498 19.498z" fill="#ddeafb"/><g fill="#cbe2ff"><path d="m232.356 175.669h-52.01c-10.77 0-19.5-8.73-19.5-19.5v-111.97c0-10.77 8.73-19.5 19.5-19.5h52.01c-10.76 0-19.49 8.73-19.49 19.5v111.97c0 10.77 8.73 19.5 19.49 19.5z"/><path d="m320.442 149.031c-5.419 0-9.813-4.393-9.813-9.813v-78.066c0-5.419 4.393-9.813 9.813-9.813 5.419 0 9.813 4.393 9.813 9.813v78.066c-.001 5.42-4.394 9.813-9.813 9.813z"/><path d="m276.399 149.031c-5.419 0-9.813-4.393-9.813-9.813v-78.066c0-5.419 4.393-9.813 9.813-9.813 5.419 0 9.813 4.393 9.813 9.813v78.066c-.001 5.42-4.394 9.813-9.813 9.813z"/><path d="m232.356 149.031c-5.419 0-9.813-4.393-9.813-9.813v-78.066c0-5.419 4.393-9.813 9.813-9.813 5.419 0 9.813 4.393 9.813 9.813v78.066c0 5.42-4.394 9.813-9.813 9.813z"/></g></g><g><path d="m304.556 340.369c-8.049-.347-16.099-.601-24.148-.777-.176-8.049-.43-16.099-.777-24.148-.131-3.053-2.331-5.655-5.329-6.246-12.201-2.407-24.403-2.407-36.604 0-2.998.591-5.197 3.193-5.329 6.246-.347 8.049-.601 16.099-.777 24.148-8.049.176-16.099.43-24.148.777-3.053.131-5.655 2.331-6.246 5.329-2.407 12.201-2.407 24.403 0 36.604.591 2.998 3.193 5.197 6.246 5.329 8.049.347 16.099.601 24.148.777.176 8.049.43 16.099.777 24.148.131 3.053 2.331 5.655 5.329 6.246 12.201 2.407 24.403 2.407 36.604 0 2.998-.591 5.197-3.193 5.329-6.246.347-8.049.601-16.099.777-24.148 8.049-.176 16.099-.43 24.148-.777 3.053-.131 5.655-2.331 6.246-5.329 2.407-12.201 2.407-24.402 0-36.604-.592-2.998-3.194-5.198-6.246-5.329z" fill="#dd5790"/></g></g></svg>