<svg id="Capa_1" enable-background="new 0 0 512 512" height="512" viewBox="0 0 512 512" width="512" xmlns="http://www.w3.org/2000/svg"><g><path d="m512 256c0 51.78-15.37 99.96-41.8 140.24-8.18 12.48-39.72 1.91-49.91 12.74-5.92 6.31 10.12 34.61 3.58 40.29-31.12 27.05-68.85 46.71-110.43 56.25-18.46 4.24-60.082-34.248-79.832-34.248-27.74 0-75.268 21.628-83.978 17.638-88.29-40.38-149.63-129.48-149.63-232.91 0-5 .14-9.97.43-14.9.34-5.92.88-11.78 1.62-17.58v-.01c7.05-55.73 32.02-105.85 68.95-144.46 15.85-16.56 33.9-31 53.68-42.84 19.32-11.57 40.29-20.66 62.47-26.84 11.81-3.29 23.96-5.76 36.39-7.33 10.63-1.35 21.46-2.04 32.46-2.04 141.38 0 256 114.62 256 256z" fill="#78c2a4"/><g><g><path d="m424.56 164.19-22.67 22.68c-17.84 17.83-33.43 37.65-46.54 59-13.09 21.38-23.68 44.25-31.48 68.24-6.91 21.21-10.43 43.41-10.43 65.72v125.69c-18.46 4.24-37.69 6.48-57.44 6.48-37.95 0-73.98-8.26-106.37-23.09v-114.34c0-9.06-4.59-17.39-12.01-22.6-.03-.04-.07-.06-.1-.08h-.02l-121.96-86.24c-2.14-1.52-4.06-3.23-5.77-5.08-4.77-5.14-7.85-11.43-9.1-18.06-.09-.47-.17-.94-.24-1.41-.89-5.83-.38-11.86 1.62-17.58.21-.63.45-1.26.71-1.88.87-2.08 1.92-4.11 3.2-6.07.24-.38.53-.79.8-1.17 5.98-8.48 14.88-13.64 24.38-15.12 9.1-1.42 18.74.57 26.86 6.31l62.56 44.24c-.1-.97-.18-1.98-.31-2.96-.55-5.81-1.27-11.62-2.15-17.38-3.3-21.85-8.72-43.35-16.21-64.26l-17.34-48.31-13.13-36.61c-.15-.42-.29-.84-.42-1.26-.87-2.76-1.41-5.54-1.63-8.33-.18-2.45-.14-4.87.16-7.27 1.64-13.34 10.56-25.3 24.09-30.15 5.09-1.83 10.33-2.47 15.39-2.06 5.58.45 10.92 2.17 15.67 4.97.42.25.83.5 1.23.76 6.61 4.24 11.88 10.58 14.72 18.53l2.89 7.99 31.4 87.51v-114.25c0-4.21.7-8.28 2.02-12.05 2.05-5.96 5.61-11.22 10.21-15.33 5.78-5.18 13.21-8.55 21.41-9.24.7-.07 1.41-.09 2.16-.12.07-.01.17 0 .26-.01.76 0 1.51.01 2.26.02 3.59.16 7.05.86 10.3 2.02 7.04 2.5 13.12 7.14 17.52 13.12 1.79 2.44 3.31 5.11 4.49 7.96 1.88 4.49 2.91 9.38 2.91 14.48v115.91l34.68-108.21c1.72-5.35 4.57-10.04 8.18-13.9 8.71-9.26 21.9-13.66 34.87-10.72.93.2 1.87.45 2.81.73.15.05.27.08.39.14 3.29 1.06 6.32 2.51 9.06 4.32 10.41 6.89 16.64 18.69 16.5 31.15-.04 3.56-.62 7.18-1.76 10.76l-30.14 93.9 49.51-49.5c14.38-14.36 37.63-14.36 51.99.02 14.38 14.33 14.38 37.63.01 51.99z" fill="#ffddce"/><g fill="#ffcbbe"><path d="m424.561 112.183c-9.786-9.786-44.542 25.853-66.1 50.052-9.502 10.665-26.249 10.412-35.406-.551l49.501-49.501c14.369-14.356 37.649-14.356 52.005 0z"/><path d="m329.013 21.425c-14.594-3.537-39.663 78.43-51.695 121.221-3.496 12.434-18.038 17.909-28.868 10.871l34.695-108.196c6.165-19.209 26.646-29.841 45.868-23.896z"/><path d="m174.912 151v-114.244c0-19.993 15.948-36.262 35.813-36.75-10.897 1.269-11.867 89.175-11.646 134.249.061 12.522-12.463 21.194-24.167 16.745z"/><path d="m236.651 269.501c-25.287-32.312-56.179-41.49-77.657-43.5-3.146-.294-6.179-.443-9.081-.486-17.842-46.909-69.208-185.42-56.296-192.225-19.12 6.857-29.046 27.916-22.189 47.036l30.458 84.916c9.797 27.338 16.064 55.767 18.67 84.595 0 0 .739-.377 2.115-.977 9.402-4.104 19.635-5.948 29.883-5.471 20.375.949 47.79 8.503 70.127 37.042 1.75 2.235 4.352 3.406 6.99 3.406 1.916 0 3.844-.615 5.464-1.881 3.858-3.029 4.532-8.599 1.516-12.455z"/><path d="m176.53 404.21v95.21c-9.21-3.01-18.19-6.52-26.9-10.51v-114.34c0-9.06-4.59-17.39-12.01-22.6-.03-.04-.07-.06-.1-.08h-.02l-121.96-86.24c-2.14-1.52-4.06-3.23-5.77-5.08-4.76-5.14-7.85-11.42-9.1-18.03-.01-.02 0-.03 0-.03-.09-.47-.17-.94-.24-1.41-.89-5.82-.38-11.86 1.62-17.58v-.01c.22-.62.46-1.24.71-1.86 0 0 0 0 0-.01.87-2.08 1.92-4.11 3.2-6.07.24-.38.53-.79.8-1.17-2.9 5.07 1.18 13.35 9.5 23.17 23.75 27.97 82.02 68.33 111.42 81.9 39.68 18.3 48.85 41.99 48.85 84.74z"/></g></g></g><g><g><path d="m470.2 396.24c-12.95 19.74-28.56 37.59-46.33 53.03-14.88-18.47-31.92-41.02-49.21-66.75l32.51-32.51c24.03 16.15 45.28 32.08 63.03 46.23z" fill="#407093"/><path d="m442.58 431.27c-5.92 6.31-12.17 12.32-18.71 18-14.88-18.47-31.92-41.02-49.21-66.75l11.81-11.81c20.29 22.35 39.39 42.87 56.11 60.56z" fill="#365e7d"/><circle cx="301.808" cy="277.158" fill="#ffd064" r="147.554"/><path d="m312.963 424.303c-3.686.273-7.397.413-11.149.413-81.491 0-147.56-66.069-147.56-147.56s66.069-147.551 147.56-147.551c3.752 0 7.463.14 11.149.413-76.284 5.695-136.41 69.391-136.41 147.138s60.126 141.453 136.41 147.147z" fill="#ffc250"/><circle cx="301.808" cy="277.156" fill="#ddeafb" r="100.697"/><path d="m201.111 277.158c0-55.614 45.084-100.697 100.697-100.697 4.696 0 9.312.323 13.832.939-49.068 6.743-86.866 48.841-86.866 99.758s37.797 93.015 86.866 99.758c-4.52.616-9.136.939-13.832.939-55.613 0-100.697-45.083-100.697-100.697z" fill="#cbe2ff"/><path d="m301.808 383.515c-58.646 0-106.358-47.712-106.358-106.358s47.712-106.358 106.358-106.358 106.358 47.712 106.358 106.358-47.711 106.358-106.358 106.358zm0-201.394c-52.403 0-95.036 42.633-95.036 95.036s42.633 95.036 95.036 95.036 95.036-42.633 95.036-95.036-42.633-95.036-95.036-95.036z" fill="#ffc250"/></g></g><path d="m309.229 269.763-24-13.856 24-13.856c2.392-1.381 3.211-4.438 1.83-6.83-1.38-2.391-4.438-3.212-6.83-1.83l-24 13.856v-27.713c0-2.761-2.238-5-5-5s-5 2.239-5 5v27.713l-24-13.856c-2.393-1.38-5.45-.562-6.83 1.83-1.381 2.392-.562 5.449 1.83 6.83l24 13.856-24 13.856c-2.392 1.381-3.211 4.438-1.83 6.83.926 1.604 2.606 2.501 4.335 2.501.848 0 1.708-.216 2.495-.671l24-13.856v27.713c0 2.761 2.238 5 5 5s5-2.239 5-5v-27.713l24 13.856c.787.455 1.647.671 2.495.671 1.729 0 3.409-.897 4.335-2.501 1.38-2.391.561-5.449-1.83-6.83z" fill="#90d8f9"/><circle cx="275.228" cy="255.907" fill="#b1e4f9" r="22.285"/><path d="m281.723 277.227c-2.06.62-4.24.96-6.5.96-12.3 0-22.28-9.98-22.28-22.28 0-12.31 9.98-22.29 22.28-22.29 2.26 0 4.44.34 6.5.96-9.14 2.78-15.79 11.28-15.79 21.33 0 10.04 6.65 18.54 15.79 21.32z" fill="#90d8f9"/><g><g fill="#dd5790"><path d="m328.914 351.839c-2.762 0-5-2.239-5-5v-51.235c0-2.761 2.238-5 5-5s5 2.239 5 5v51.235c0 2.762-2.238 5-5 5z"/><path d="m351.095 339.032c-.848 0-1.708-.216-2.495-.671l-44.371-25.618c-2.392-1.381-3.211-4.438-1.83-6.83 1.38-2.391 4.437-3.213 6.83-1.83l44.371 25.618c2.392 1.381 3.211 4.438 1.83 6.83-.926 1.604-2.607 2.501-4.335 2.501z"/><path d="m306.733 339.032c-1.729 0-3.409-.897-4.335-2.501-1.381-2.392-.562-5.449 1.83-6.83l44.371-25.618c2.392-1.383 5.45-.561 6.83 1.83 1.381 2.392.562 5.449-1.83 6.83l-44.371 25.618c-.787.454-1.647.671-2.495.671z"/></g><circle cx="328.914" cy="321.222" fill="#dd5790" r="15.695"/><path d="m332.429 336.522c-1.13.26-2.3.4-3.51.4-8.67 0-15.7-7.03-15.7-15.7s7.03-15.69 15.7-15.69c1.21 0 2.38.14 3.51.4-6.97 1.59-12.18 7.83-12.18 15.29s5.21 13.71 12.18 15.3z" fill="#da387d"/></g></g></svg>