<svg id="Capa_1" enable-background="new 0 0 512 512" height="512" viewBox="0 0 512 512" width="512" xmlns="http://www.w3.org/2000/svg"><g><path d="m512 256c0 94.35-51.04 176.78-127.02 221.17-37.88 22.14-81.95-6.966-128.98-6.966-16.25 0-32.14-1.51-47.54-4.4-29.19-5.49-56.64 25.856-81.44 11.366-75.98-44.39-127.02-126.82-127.02-221.17 0-141.38 114.62-256 256-256s256 114.62 256 256z" fill="#407093"/><g><g><ellipse cx="384.319" cy="298.501" fill="#78c2a4" rx="39.371" ry="73.519" transform="matrix(.255 -.967 .967 .255 -2.214 594.129)"/></g><path d="m306.722 362.523c-.402 0-.808-.016-1.216-.048-8.509-.662-14.869-8.097-14.207-16.605.095-1.214 2.461-30.169 15.167-67.861 16.917-50.18 44.417-92.336 79.529-121.908 6.528-5.498 16.277-4.663 21.774 1.864 5.498 6.528 4.663 16.276-1.864 21.774-74.768 62.973-83.711 167.481-83.793 168.53-.631 8.1-7.4 14.254-15.39 14.254z" fill="#95d6a4"/><path d="m404.392 154.98c-.525.34-1.03.711-1.514 1.123-35.119 29.566-62.614 71.721-79.53 121.901-12.712 37.694-15.072 66.653-15.164 67.868-.464 5.831 2.39 11.157 6.964 14.134-2.431 1.597-5.336 2.514-8.427 2.514-.402 0-.804-.01-1.216-.041-8.509-.67-14.866-8.097-14.206-16.606.093-1.216 2.462-30.174 15.164-67.868 16.916-50.18 44.421-92.335 79.53-121.901 5.347-4.503 12.836-4.76 18.399-1.124z" fill="#78c2a4"/><path d="m205.697 362.523c.402 0 .808-.016 1.216-.048 8.509-.662 14.869-8.097 14.207-16.605-.095-1.214-2.461-30.169-15.166-67.861-16.917-50.18-44.417-92.336-79.529-121.908-6.528-5.498-16.277-4.663-21.774 1.864-5.498 6.528-4.663 16.276 1.864 21.774 74.768 62.973 83.711 167.481 83.793 168.53.63 8.1 7.4 14.254 15.389 14.254z" fill="#95d6a4"/><path d="m213.32 360.522c-1.906 1.082-4.08 1.772-6.408 1.957-.412.031-.814.041-1.216.041-7.994 0-14.762-6.15-15.391-14.258-.082-1.04-9.024-105.552-83.795-168.527-6.521-5.491-7.356-15.247-1.865-21.768 4.873-5.789 13.083-7.098 19.429-3.492-1.566.876-2.998 2.04-4.213 3.492-5.501 6.521-4.667 16.277 1.865 21.768 74.76 62.975 83.702 167.487 83.785 168.527.422 5.327 3.492 9.808 7.809 12.26z" fill="#78c2a4"/><path d="m256 345.52c-8.534 0-15.453-6.918-15.453-15.453v-134.48c0-8.534 6.919-15.453 15.453-15.453s15.453 6.919 15.453 15.453v134.48c0 8.535-6.919 15.453-15.453 15.453z" fill="#95d6a4"/><path d="m263.675 343.483c-2.256 1.298-4.873 2.04-7.675 2.04-8.53 0-15.453-6.923-15.453-15.453v-134.48c0-8.54 6.923-15.453 15.453-15.453 2.802 0 5.419.742 7.675 2.04-4.646 2.658-7.778 7.665-7.778 13.413v134.48c0 5.738 3.132 10.745 7.778 13.413z" fill="#78c2a4"/><path d="m226.41 231.64c-5.36 9.29-13.7 15.78-23.13 18.96-11.15 3.78-23.82 2.91-34.82-3.44-3.17-1.83-7.07-4.62-11.33-8.09.87 5.43 1.34 10.19 1.34 13.86 0 23.43-18.99 42.42-42.42 42.42s-42.42-18.99-42.42-42.42c0-3.67.47-8.43 1.34-13.86-4.26 3.47-8.15 6.26-11.33 8.09-20.29 11.72-46.24 4.77-57.95-15.52s-4.76-46.24 15.53-57.95c3.18-1.84 7.54-3.82 12.68-5.77-5.14-1.96-9.5-3.93-12.68-5.77-20.29-11.71-27.24-37.66-15.53-57.95s37.66-27.24 57.95-15.52c3.18 1.83 7.07 4.62 11.33 8.09-.87-5.43-1.34-10.19-1.34-13.86 0-23.43 18.99-42.42 42.42-42.42 8.31 0 16.07 2.39 22.62 6.52 11.9 7.52 19.8 20.78 19.8 35.9 0 3.67-.47 8.43-1.34 13.86 4.26-3.47 8.16-6.26 11.33-8.09 20.29-11.72 46.24-4.77 57.95 15.52 11.72 20.29 4.76 46.24-15.53 57.95-3.17 1.84-7.54 3.81-12.67 5.77 5.13 1.95 9.5 3.93 12.67 5.77 20.29 11.71 27.25 37.66 15.53 57.95z" fill="#dd5790"/><path d="m193.861 193.251-43.875-25.331 43.875-25.332c2.87-1.657 3.853-5.327 2.196-8.196-1.656-2.869-5.326-3.853-8.196-2.196l-49.875 28.795-4.966-2.867v-5.735l49.875-28.795c2.87-1.657 3.853-5.327 2.196-8.196-1.656-2.868-5.326-3.853-8.196-2.196l-43.875 25.331v-50.663c0-3.313-2.687-6-6-6s-6 2.687-6 6v57.591l-4.967 2.868-4.966-2.867v-57.592c0-3.313-2.687-6-6-6s-6 2.687-6 6v50.663l-43.877-25.332c-2.869-1.657-6.539-.674-8.196 2.196s-.673 6.54 2.196 8.196l49.876 28.796v5.734l-4.967 2.868-49.875-28.795c-2.87-1.657-6.539-.672-8.196 2.196-1.657 2.87-.673 6.54 2.196 8.196l43.875 25.332-43.875 25.331c-2.87 1.657-3.853 5.327-2.196 8.196 1.111 1.925 3.128 3.001 5.202 3.001 1.018 0 2.049-.259 2.994-.805l49.875-28.795 4.967 2.868v5.734l-49.876 28.796c-2.87 1.657-3.853 5.327-2.196 8.196 1.111 1.925 3.128 3.001 5.202 3.001 1.018 0 2.05-.259 2.995-.805l43.876-25.332v50.663c0 3.313 2.687 6 6 6s6-2.687 6-6v-57.591l4.966-2.867 4.967 2.868v57.591c0 3.313 2.687 6 6 6s6-2.687 6-6v-50.663l43.875 25.331c.945.545 1.977.805 2.994.805 2.074 0 4.091-1.076 5.202-3.001 1.656-2.87.674-6.54-2.196-8.196l-49.875-28.795v-5.735l4.966-2.867 49.875 28.795c.945.545 1.977.805 2.994.805 2.074 0 4.091-1.076 5.202-3.001 1.656-2.87.674-6.54-2.196-8.197zm-77.809-19.597-4.966-2.867v-5.735l4.966-2.867 4.967 2.868v5.734z" fill="#da387d"/><path d="m226.41 231.64c-5.36 9.29-13.7 15.78-23.13 18.96-11.89-7.52-19.79-20.78-19.79-35.89 0-3.67.47-8.44 1.34-13.87-4.26 3.48-8.15 6.26-11.33 8.1-20.29 11.71-46.24 4.76-57.95-15.53s-4.76-46.23 15.53-57.95c3.17-1.83 7.54-3.81 12.67-5.76-5.13-1.96-9.5-3.94-12.67-5.77-20.29-11.72-27.24-37.66-15.53-57.95 5.36-9.29 13.7-15.78 23.12-18.97 11.9 7.52 19.8 20.78 19.8 35.9 0 3.67-.47 8.43-1.34 13.86 4.26-3.47 8.16-6.26 11.33-8.09 20.29-11.72 46.24-4.77 57.95 15.52 11.72 20.29 4.76 46.24-15.53 57.95-3.17 1.84-7.54 3.81-12.67 5.77 5.13 1.95 9.5 3.93 12.67 5.77 20.29 11.71 27.25 37.66 15.53 57.95z" fill="#da387d"/><circle cx="116.051" cy="167.92" fill="#ddeafb" r="45.079"/><path d="m125.674 211.97c-3.101.68-6.315 1.03-9.622 1.03-24.899 0-45.081-20.181-45.081-45.081s20.181-45.081 45.081-45.081c3.307 0 6.521.35 9.622 1.03-20.274 4.409-35.459 22.448-35.459 44.051s15.185 39.642 35.459 44.051z" fill="#cbe2ff"/><path d="m301.116 173.689c3.178-1.835 7.54-3.814 12.678-5.769-5.138-1.955-9.5-3.934-12.678-5.769-20.289-11.714-27.241-37.658-15.527-57.948 11.714-20.289 37.658-27.241 57.947-15.527 3.179 1.835 7.073 4.623 11.336 8.095-.876-5.427-1.343-10.194-1.343-13.864 0-23.428 18.992-42.42 42.421-42.42s42.421 18.992 42.421 42.42c0 3.67-.467 8.437-1.343 13.864 4.262-3.473 8.156-6.26 11.335-8.095 20.289-11.714 46.233-4.762 57.948 15.527 11.714 20.289 4.762 46.234-15.527 57.948-3.179 1.835-7.54 3.814-12.679 5.769 5.139 1.955 9.5 3.934 12.679 5.769 20.289 11.714 27.241 37.658 15.527 57.948-11.715 20.289-37.658 27.241-57.948 15.527-3.179-1.835-7.073-4.622-11.335-8.095.876 5.428 1.343 10.194 1.343 13.864 0 23.429-18.992 42.421-42.421 42.421-23.428 0-42.421-18.992-42.421-42.421 0-3.67.467-8.437 1.343-13.864-4.262 3.473-8.157 6.26-11.336 8.095-20.289 11.715-46.234 4.763-57.947-15.527-11.715-20.29-4.763-46.234 15.527-57.948z" fill="#5e54ac"/><path d="m473.758 193.251-43.875-25.331 43.875-25.332c2.87-1.657 3.853-5.327 2.196-8.196-1.656-2.869-5.326-3.853-8.196-2.196l-49.875 28.795-4.966-2.867v-5.735l49.875-28.795c2.87-1.657 3.853-5.327 2.196-8.196-1.656-2.868-5.326-3.853-8.196-2.196l-43.875 25.331v-50.663c0-3.313-2.687-6-6-6s-6 2.687-6 6v57.591l-4.967 2.868-4.966-2.867v-57.592c0-3.313-2.687-6-6-6s-6 2.687-6 6v50.663l-43.876-25.332c-2.869-1.657-6.539-.674-8.196 2.196s-.673 6.54 2.196 8.196l49.876 28.796v5.734l-4.967 2.868-49.875-28.795c-2.87-1.657-6.539-.672-8.196 2.196-1.657 2.87-.673 6.54 2.196 8.196l43.875 25.332-43.875 25.331c-2.87 1.657-3.853 5.327-2.196 8.196 1.111 1.925 3.128 3.001 5.202 3.001 1.018 0 2.049-.259 2.994-.805l49.875-28.795 4.967 2.868v5.734l-49.876 28.796c-2.87 1.657-3.853 5.327-2.196 8.196 1.111 1.925 3.128 3.001 5.202 3.001 1.018 0 2.05-.259 2.995-.805l43.876-25.332v50.663c0 3.313 2.687 6 6 6s6-2.687 6-6v-57.591l4.966-2.867 4.967 2.868v57.591c0 3.313 2.687 6 6 6s6-2.687 6-6v-50.663l43.875 25.331c.945.545 1.977.805 2.994.805 2.074 0 4.091-1.076 5.202-3.001 1.656-2.87.674-6.54-2.196-8.196l-49.875-28.795v-5.735l4.966-2.867 49.875 28.795c.945.545 1.977.805 2.994.805 2.074 0 4.091-1.076 5.202-3.001 1.655-2.87.673-6.54-2.197-8.197zm-77.809-19.597-4.966-2.867v-5.735l4.966-2.867 4.967 2.868v5.734z" fill="#524798"/><circle cx="395.949" cy="167.92" fill="#ddeafb" r="45.079"/><path d="m405.571 211.969c-3.101.68-6.315 1.03-9.622 1.03-24.899 0-45.081-20.181-45.081-45.081s20.181-45.081 45.081-45.081c3.307 0 6.521.35 9.622 1.03-20.274 4.409-35.459 22.448-35.459 44.051s15.185 39.642 35.459 44.051z" fill="#cbe2ff"/><path d="m161.166 133.202c3.178-1.835 7.54-3.814 12.678-5.769-5.138-1.955-9.5-3.934-12.678-5.769-20.289-11.714-27.241-37.658-15.527-57.948 11.714-20.289 37.658-27.241 57.947-15.527 3.179 1.835 7.073 4.623 11.336 8.095-.876-5.427-1.343-10.194-1.343-13.864 0-23.428 18.993-42.42 42.421-42.42 23.429 0 42.421 18.992 42.421 42.42 0 3.67-.467 8.437-1.343 13.864 4.262-3.473 8.156-6.26 11.335-8.095 20.289-11.714 46.233-4.762 57.948 15.527 11.714 20.289 4.762 46.234-15.527 57.948-3.179 1.835-7.54 3.814-12.679 5.769 5.139 1.955 9.5 3.934 12.679 5.769 20.289 11.714 27.241 37.658 15.527 57.948-11.714 20.289-37.658 27.241-57.948 15.527-3.179-1.835-7.073-4.622-11.335-8.095.876 5.428 1.343 10.194 1.343 13.864 0 23.429-18.992 42.421-42.421 42.421-23.428 0-42.42-18.992-42.42-42.421 0-3.67.467-8.437 1.343-13.864-4.262 3.473-8.157 6.26-11.336 8.095-20.289 11.714-46.234 4.763-57.947-15.527-11.715-20.29-4.763-46.234 15.526-57.948z" fill="#ffd064"/><path d="m333.809 152.765-43.875-25.331 43.875-25.332c2.87-1.657 3.853-5.327 2.196-8.196-1.656-2.869-5.326-3.853-8.196-2.196l-49.875 28.795-4.966-2.867v-5.735l49.875-28.795c2.87-1.657 3.853-5.327 2.196-8.196-1.656-2.868-5.326-3.853-8.196-2.196l-43.875 25.331v-50.664c0-3.313-2.687-6-6-6s-6 2.687-6 6v57.591l-4.968 2.868-4.966-2.867v-57.592c0-3.313-2.687-6-6-6s-6 2.687-6 6v50.663l-43.876-25.332c-2.869-1.657-6.539-.674-8.196 2.196s-.673 6.54 2.196 8.196l49.876 28.796v5.734l-4.967 2.868-49.875-28.795c-2.87-1.657-6.539-.672-8.196 2.196-1.657 2.87-.673 6.54 2.196 8.196l43.875 25.332-43.875 25.331c-2.87 1.657-3.853 5.327-2.196 8.196 1.111 1.925 3.128 3.001 5.202 3.001 1.018 0 2.049-.259 2.994-.805l49.875-28.795 4.967 2.868v5.734l-49.876 28.796c-2.87 1.657-3.853 5.327-2.196 8.196 1.111 1.925 3.128 3.001 5.202 3.001 1.018 0 2.05-.259 2.995-.805l43.876-25.332v50.663c0 3.313 2.687 6 6 6s6-2.687 6-6v-57.591l4.966-2.867 4.967 2.868v57.591c0 3.313 2.687 6 6 6s6-2.687 6-6v-50.663l43.875 25.331c.945.545 1.977.805 2.994.805 2.074 0 4.091-1.076 5.202-3.001 1.656-2.87.674-6.54-2.196-8.196l-49.875-28.795v-5.735l4.966-2.867 49.875 28.795c.945.545 1.977.805 2.994.805 2.074 0 4.091-1.076 5.202-3.001 1.656-2.87.674-6.54-2.196-8.196zm-77.809-19.597-4.966-2.867v-5.735l4.966-2.867 4.967 2.868v5.734z" fill="#ffc250"/><circle cx="256" cy="127.433" fill="#ddeafb" r="45.079"/><g><path d="m394.68 426.76c-1.15 14.07-3.81 32.07-9.7 50.41-37.88 22.14-81.95 34.83-128.98 34.83s-91.1-12.69-128.98-34.83c-5.89-18.34-8.55-36.34-9.7-50.41-1.34-16.37-.65-27.4-.65-27.4h278.66s.69 11.03-.65 27.4z" fill="#ddeafb"/><path d="m208.46 507.6c-29.19-5.49-56.64-15.94-81.44-30.43-12.73-39.68-10.35-77.81-10.35-77.81h78.76s-1.31 47.81 6.78 92.06c1.28 6.98 3.51 12.59 6.25 16.18z" fill="#cbe2ff"/><path d="m394.678 426.763c-92.448 2.132-184.907 2.132-277.356 0-1.339-16.37-.649-27.403-.649-27.403l139.327-38.265 139.327 38.265s.69 11.033-.649 27.403z" fill="#cbe2ff"/><path d="m395.987 322.359c-67.239-1.565-134.478-2.003-201.717-1.313-26.086.268-42.241 40.053-42.241 40.053s16.375 39.781 42.572 40.048c67.129.685 134.257.247 201.386-1.316 12.654-.295 23.566-9.235 26.101-21.636 2.33-11.4 2.33-22.8 0-34.2-2.535-12.401-13.447-21.341-26.101-21.636z" fill="#ddeafb"/><path d="m194.884 401.152c-26.29-.268-52.58-.701-78.871-1.319-12.651-.299-23.56-9.241-26.095-21.634-2.339-11.404-2.339-22.808 0-34.202 2.534-12.403 13.444-21.345 26.095-21.644 26.259-.608 52.529-1.04 78.799-1.308-11.641 1.731-21.253 10.497-23.653 22.242-2.431 11.868-2.431 23.746 0 35.624 2.4 11.775 12.053 20.552 23.725 22.241z" fill="#cbe2ff"/></g><path d="m265.623 171.484c-3.101.68-6.315 1.03-9.622 1.03-24.899 0-45.081-20.181-45.081-45.081s20.181-45.081 45.081-45.081c3.307 0 6.521.35 9.622 1.03-20.274 4.409-35.459 22.448-35.459 44.051s15.185 39.642 35.459 44.051z" fill="#cbe2ff"/><g><path d="m48.26 239.687c23.53-16.13 54.43-20.59 82.89-9.17 28.47 11.42 47.72 35.99 53.58 63.91-23.53 16.14-54.43 20.59-82.89 9.17-28.47-11.42-47.72-35.989-53.58-63.91z" fill="#95d6a4"/></g><path d="m48.26 239.687 136.47 54.74c-23.53 16.14-54.43 20.59-82.89 9.17-28.47-11.42-47.72-35.989-53.58-63.91z" fill="#78c2a4"/></g></g></svg>