<svg id="Capa_1" enable-background="new 0 0 512 512" height="512" viewBox="0 0 512 512" width="512" xmlns="http://www.w3.org/2000/svg"><g><path d="m512 256c0 132.84-101.19 242.05-230.69 254.76-8.32.82-16.77-14.69-25.31-14.69-6.48 0-12.92 15.69-19.28 15.21-2.02-.15-4.03-.32-6.03-.52-129.5-12.71-230.69-121.92-230.69-254.76 0-140.49 113.17-254.55 253.32-255.98.89-.01 1.78-.02 2.68-.02s1.79.01 2.69.02c140.14 1.44 253.31 115.5 253.31 255.98z" fill="#95d6a4"/><path d="m464.01 208.01c0 79.62-44.73 148.79-110.44 183.75-20.94 11.14-36.35 30.56-42.25 53.54-6.15 24-15.58 48.49-30.01 65.46-8.32.82-16.77 1.24-25.31 1.24s-16.99-.42-25.31-1.24c-14.43-16.97-23.86-41.46-30.01-65.46-5.93-23.08-21.51-42.46-42.53-53.69-65.97-35.23-110.72-104.96-110.16-185.1.8-113.72 91.94-205.07 205.33-206.49.89-.01 1.78-.02 2.68-.02s1.79.01 2.69.02c113.64 1.44 205.32 94.01 205.32 207.99z" fill="#dd5790"/><circle cx="256.001" cy="208.011" fill="#da387d" r="142.612"/><path d="m213.12 445.3c4.82 24.25 12.23 49 23.6 65.98-2.02-.15-4.03-.32-6.03-.52-14.43-16.96-23.86-41.45-30.02-65.46-5.92-23.08-21.5-42.45-42.52-53.68-65.97-35.23-110.72-104.96-110.16-185.11.81-113.92 92.26-205.38 205.93-206.48-87.89 1.42-158.51 92.77-159.14 206.48-.44 80.15 34.25 149.88 85.38 185.11 16.29 11.23 28.37 30.6 32.96 53.68z" fill="#da387d"/><path d="m377.426 208.014c0 34.602-14.478 65.832-37.704 87.951-21.779 20.744-51.272.546-83.722.546s-61.944 20.198-83.722-.546c-23.226-22.119-37.704-53.35-37.704-87.951 0-67.063 54.363-121.426 121.426-121.426s121.426 54.363 121.426 121.426z" fill="#90d8f9"/><g><path d="m339.722 178.583v117.382c-21.778 20.745-51.272 33.475-83.722 33.475s-61.944-12.73-83.722-33.474v-117.383l9.297-7.063 74.425-56.577z" fill="#ffd064"/><path d="m339.723 178.583v24.502l-83.723-63.641-83.723 63.641v-24.502l83.723-63.641z" fill="#ffc250"/><path d="m189.248 309.461v-137.941h-7.673l-9.297 7.063v117.382z" fill="#ffc250"/><path d="m365.896 185.447-13.409 17.638-96.487-73.341-96.487 73.341-8.154-10.724-5.255-6.914 109.896-83.533 7.175 5.455z" fill="#ddeafb"/><path d="m263.175 107.369-111.816 84.992-5.255-6.914 109.896-83.533z" fill="#cbe2ff"/><g><path d="m223.957 208.459h64.09v88.053h-64.09z" fill="#b1e4f9"/><path d="m288.047 208.459v2.585l-32.088 85.468h-29.305l33.056-88.053z" fill="#d3effb"/><g fill="#ddeafb"><path d="m293.419 301.883h-74.838v-98.798h74.838zm-64.09-10.748h53.342v-77.302h-53.342z"/><path d="m223.955 234.74h64.09v10.748h-64.09z"/></g></g></g></g></svg>