<svg id="Capa_1" enable-background="new 0 0 512 512" height="512" viewBox="0 0 512 512" width="512" xmlns="http://www.w3.org/2000/svg"><g><path d="m198.3 505.46c-.02 0-.04-.01-.06-.01-113.57-26.19-198.24-127.93-198.24-249.45 0-141.38 114.62-256 256-256 114.67 0 211.73 75.4 244.31 179.32 7.6 24.21-292.88 328.25-302.01 326.14z" fill="#dd5790"/><g><path d="m512 256c0 141.38-114.62 256-256 256-19.84 0-39.16-2.26-57.7-6.54-69.43-39.18-116.31-113.65-116.31-199.06 0-126.17 102.29-228.46 228.46-228.46 79.14 0 148.87 40.24 189.86 101.38 7.6 24.21 11.69 49.97 11.69 76.68z" fill="#ddeafb"/><path d="m226.22 510.29c-9.47-1.1-18.79-2.72-27.92-4.83-.02 0-.04-.01-.06-.01-69.4-39.2-116.25-113.65-116.25-199.05 0-126.17 102.28-228.45 228.45-228.45 3.18 0 6.34.06 9.48.2-121.78 4.96-218.98 105.26-218.98 228.25 0 89.05 50.95 166.2 125.28 203.89z" fill="#cbe2ff"/><circle cx="310.449" cy="306.398" fill="#d3effb" r="174.2"/><path d="m136.248 306.393c0 96.21 77.99 174.21 174.2 174.21 5.05 0 10.04-.21 14.98-.64-89.19-7.6-159.21-82.41-159.21-173.57 0-91.15 70.02-165.96 159.21-173.56-4.94-.43-9.93-.64-14.98-.64-96.21 0-174.2 78-174.2 174.2z" fill="#b1e4f9"/><path d="m310.45 119.2c-103.22 0-187.2 83.98-187.2 187.2s83.98 187.2 187.2 187.2c24.1 0 47.15-4.58 68.32-12.91 48.71-26.67 87.8-68.72 110.73-119.62 5.3-17.3 8.15-35.66 8.15-54.67 0-103.22-83.98-187.2-187.2-187.2zm0 348.4c-88.89 0-161.2-72.32-161.2-161.2 0-88.89 72.31-161.2 161.2-161.2 88.88 0 161.2 72.31 161.2 161.2 0 88.88-72.32 161.2-161.2 161.2z" fill="#cbe2ff"/><g fill="#b1e4f9"><circle cx="310.449" cy="433.882" r="20.706"/><circle cx="310.449" cy="178.914" r="20.706"/></g><g fill="#b1e4f9"><circle cx="182.965" cy="306.398" r="20.706"/><circle cx="437.932" cy="306.398" r="20.706"/></g><path d="m310.449 185.643c-7.731 0-13.998 6.267-13.998 13.998v131.827c0 7.731 6.267 13.998 13.998 13.998 7.731 0 13.998-6.267 13.998-13.998v-131.827c0-7.73-6.267-13.998-13.998-13.998z" fill="#407093"/><path d="m314.191 344.949c-1.19.33-2.44.51-3.74.51-7.73 0-14-6.26-14-13.99v-131.83c0-7.73 6.27-14 14-14 1.3 0 2.55.18 3.74.51-5.91 1.64-10.25 7.06-10.25 13.49v131.83c0 6.43 4.34 11.85 10.25 13.48z" fill="#365e7d"/><path d="m350.649 306.398c0-7.731-6.267-13.998-13.998-13.998h-81.632c-7.731 0-13.998 6.267-13.998 13.998 0 7.731 6.267 13.998 13.998 13.998h81.632c7.731 0 13.998-6.267 13.998-13.998z" fill="#407093"/><path d="m350.651 306.396c0 7.74-6.27 14-14 14h-81.63c-3.86 0-7.36-1.57-9.9-4.1-2.53-2.53-4.1-6.03-4.1-9.9 0-1.28.17-2.52.49-3.69.65 2.39 1.92 4.52 3.61 6.21 2.54 2.53 6.04 4.1 9.9 4.1h81.63c6.45 0 11.89-4.37 13.51-10.31.32 1.17.49 2.41.49 3.69z" fill="#365e7d"/><g fill="#b1e4f9"><circle cx="246.707" cy="195.994" r="8.597"/><circle cx="374.191" cy="416.802" r="8.597"/><circle cx="200.044" cy="242.656" r="8.597"/><circle cx="420.853" cy="370.14" r="8.597"/><circle cx="200.044" cy="370.14" r="8.597"/><circle cx="420.853" cy="242.656" r="8.597"/><circle cx="246.707" cy="416.802" r="8.597"/><circle cx="374.191" cy="195.994" r="8.597"/></g><circle cx="310.449" cy="306.398" fill="#ddeafb" r="22.796"/><circle cx="310.449" cy="306.398" fill="#202326" r="11.014"/></g><path d="m3.614 36.928c1.961-18.304 16.787-32.507 35.162-33.611 73.571-4.423 147.141-4.423 220.712 0 18.375 1.104 33.2 15.307 35.161 33.611 4.819 44.976 4.819 89.953 0 134.929-1.961 18.304-16.787 32.506-35.161 33.611-4.507.271-9.015.524-13.522.762l5.198 43.414c.675 5.642-5.773 9.314-10.28 5.855l-61.212-46.977c-46.965.781-93.93-.231-140.895-3.054-18.375-1.105-33.2-15.307-35.162-33.611-4.82-44.977-4.82-89.953-.001-134.929z" fill="#524798"/><path d="m194.809 129.194c7.142-2.384 13.017 5.859 8.524 11.901-1.911 2.569-4.032 5.031-6.363 7.363-26.071 26.071-68.472 25.85-94.268-.642-24.383-25.041-24.963-65.322-1.267-91.014 2.924-3.17 6.079-5.988 9.414-8.454 5.98-4.421 14.109 1.577 11.754 8.631-6.631 19.858-2.037 42.637 13.769 58.443 15.804 15.806 38.583 20.399 58.437 13.772z" fill="#ffd064"/></g></svg>