<svg id="Capa_1" enable-background="new 0 0 512 512" height="512" viewBox="0 0 512 512" width="512" xmlns="http://www.w3.org/2000/svg"><g><path d="m512 256c0 116.39-77.68 214.64-184.02 245.74-25.705-31.902-106.078-39.3-106.078-39.3s-67.622 28.65-73.752 25.79c-87.49-40.69-148.15-129.38-148.15-232.23 0-141.38 114.62-256 256-256s256 114.62 256 256z" fill="#90d8f9"/><g><path d="m101.733 150.806h104.171v64.602h-104.171z" fill="#da387d" transform="matrix(-1 0 0 -1 307.638 366.214)"/><path d="m380.53 259.26-52.55 87.09v155.39c-22.83 6.68-46.99 10.26-71.98 10.26-38.53 0-75.07-8.51-107.85-23.77v-338.27c0-14.09 11.4-25.5 25.5-25.5 7.03 0 13.42 2.86 18.03 7.47s7.46 10.99 7.46 18.03v-9.15c0-14.09 11.41-25.51 25.5-25.51 7.05 0 13.42 2.86 18.04 7.48 4.61 4.61 7.45 10.98 7.45 18.03v-9.16c0-14.08 11.42-25.5 25.51-25.5s25.49 11.42 25.49 25.5v9.16c0-14.09 11.41-25.51 25.51-25.51 7.05 0 13.41 2.86 18.03 7.48 4.61 4.61 7.46 10.98 7.46 18.03v9.996l16.658 32.299 3.502 26.765 2.53 2.53c12.44 12.44 14.79 31.78 5.71 46.86z" fill="#b46e59"/><path d="m352.126 215.408v15.605c0 5.569 4.518 10.077 10.087 10.077 2.784 0 5.304-1.132 7.129-2.948 1.816-1.826 2.948-4.345 2.948-7.129v-21.143z" fill="#a55e4d"/><g><path d="m183.04 126.25c-9.44 3.74-16.11 12.94-16.11 23.71v346.11c-6.38-2.37-12.65-4.98-18.78-7.84v-338.27c0-14.09 11.4-25.5 25.5-25.5 3.31 0 6.48.64 9.39 1.79z" fill="#a55e4d"/></g><g><path d="m234.034 117.103c-2.908-1.151-6.075-1.791-9.389-1.791-14.092 0-25.504 11.412-25.504 25.493v9.77c0 5.186 4.204 9.39 9.391 9.39 5.186 0 9.39-4.204 9.39-9.39v-9.77c-.001-10.766 6.673-19.964 16.112-23.702z" fill="#a55e4d"/></g><g><path d="m285.03 107.943c-2.908-1.151-6.075-1.791-9.389-1.791-14.092 0-25.504 11.412-25.504 25.493v9.77c0 5.186 4.204 9.391 9.391 9.391 5.186 0 9.39-4.204 9.39-9.391v-9.77c0-10.765 6.673-19.964 16.112-23.702z" fill="#a55e4d"/></g><g><path d="m336.026 117.092c-2.908-1.151-6.075-1.791-9.389-1.791-14.092 0-25.504 11.412-25.504 25.493v9.77c0 5.186 4.204 9.391 9.391 9.391 5.186 0 9.39-4.204 9.39-9.391v-9.77c0-10.766 6.674-19.964 16.112-23.702z" fill="#a55e4d"/></g><path d="m41.169 292.171c19.889 1.752 39.777 1.752 59.666 0 18.727-1.65 33.465-16.785 34.331-35.565 2.259-48.999 2.259-97.998 0-146.998-.866-18.78-15.604-33.915-34.331-35.565-19.889-1.752-39.778-1.752-59.666 0-18.727 1.65-33.465 16.785-34.331 35.565-2.259 48.999-2.259 97.999 0 146.998.866 18.78 15.604 33.915 34.331 35.565z" fill="#dd5790"/><path d="m5.268 202.812c.224 17.931.745 35.861 1.571 53.792.867 18.777 15.605 33.913 34.331 35.565 19.889 1.755 39.778 1.755 59.667 0 18.726-1.652 33.464-16.788 34.331-35.565.826-17.931 1.346-35.861 1.571-53.792-4.488 15.228-18.002 26.6-34.454 28.048-20.858 1.836-41.705 1.836-62.563 0-16.453-1.448-29.967-12.82-34.454-28.048z" fill="#da387d"/><path d="m352.126 150.806h104.171v64.602h-104.171z" fill="#da387d" transform="matrix(-1 0 0 -1 808.423 366.214)"/><path d="m411.164 292.171c19.889 1.752 39.777 1.752 59.666 0 18.727-1.65 33.465-16.785 34.331-35.565 2.259-48.999 2.259-97.998 0-146.998-.866-18.78-15.604-33.915-34.331-35.565-19.889-1.752-39.778-1.752-59.666 0-18.727 1.65-33.465 16.785-34.331 35.565-2.259 48.999-2.259 97.999 0 146.998.866 18.78 15.604 33.915 34.331 35.565z" fill="#dd5790"/><g fill="#da387d"><path d="m40.201 292.055c-18.267-2.071-32.506-17.002-33.362-35.453-2.254-48.998-2.254-97.996 0-146.993.857-18.451 15.095-33.383 33.362-35.453-9.71 6.895-16.166 17.981-16.747 30.609-2.407 52.231-2.407 104.462 0 156.693.58 12.616 7.037 23.702 16.747 30.597z"/><path d="m410.192 292.055c-18.267-2.071-32.506-17.002-33.362-35.453-2.254-48.998-2.254-97.996 0-146.993.857-18.451 15.095-33.383 33.362-35.453-9.71 6.895-16.166 17.981-16.747 30.609-2.407 52.231-2.407 104.462 0 156.693.581 12.616 7.037 23.702 16.747 30.597z"/><path d="m375.263 202.812c.224 17.931.745 35.861 1.571 53.792.867 18.777 15.605 33.913 34.331 35.565 19.889 1.755 39.778 1.755 59.667 0 18.726-1.652 33.464-16.788 34.331-35.565.826-17.931 1.346-35.861 1.571-53.792-4.488 15.228-18.002 26.6-34.454 28.048-20.858 1.836-41.705 1.836-62.563 0-16.453-1.448-29.967-12.82-34.454-28.048z"/></g></g></g></svg>