<svg id="Capa_1" enable-background="new 0 0 512 512" height="512" viewBox="0 0 512 512" width="512" xmlns="http://www.w3.org/2000/svg"><g><path d="m512 256c0 25.88-3.84 50.86-10.98 74.4-3.59 11.82-35.576 23.27-40.756 34.29-3.86 8.22 19.436 16.2 14.756 23.92-6.07 10.01-12.81 19.57-20.16 28.61-4.77 5.88-9.8 11.54-15.07 16.98-8.8 9.08-18.28-7.269-28.34.421-5.91 4.53-12.02 33.579-18.32 37.579-4.24 2.69-8.56 5.27-12.96 7.71-10.56 5.87-21.58 11.02-32.99 15.36-23.44 8.95-48.53 14.54-74.69 16.21-5.45.34-10.95.52-16.49.52s-11.04-.18-16.49-.52c-26.16-1.67-51.25-7.26-74.69-16.21-11.41-4.34-22.43-9.49-32.99-15.36-4.4-2.44-8.72-5.02-12.96-7.71-9.94-6.31-19.41-47.39-28.35-54.98-6.38-5.4-12.49 22.98-18.31 16.98-5.27-5.44-10.3-11.1-15.07-16.98-7.35-9.04-14.09-18.6-20.16-28.61-4.68-7.72 18.616-15.7 14.756-23.92-5.18-11.02-37.166-22.47-40.756-34.29-7.14-23.54-10.98-48.52-10.98-74.4 0-38.86 8.66-75.7 24.16-108.69 8.86-18.88 19.97-36.51 32.98-52.53 20.59-25.37 45.94-46.72 74.69-62.7 10.56-5.87 21.58-11.01 32.99-15.36 23.44-8.94 48.53-14.53 74.69-16.2 5.45-.34 10.95-.52 16.49-.52s11.04.18 16.49.52c26.16 1.67 51.25 7.26 74.69 16.2 11.41 4.35 22.43 9.49 32.99 15.36 28.75 15.98 54.1 37.33 74.69 62.7 13.01 16.02 24.12 33.65 32.98 52.53 15.5 32.99 24.16 69.83 24.16 108.69z" fill="#90d8f9"/><g fill="#b1e4f9"><path d="m57.14 94.78v322.44c-7.35-9.04-14.09-18.6-20.16-28.61-4.68-7.72-8.96-15.7-12.82-23.92v-217.38c8.86-18.88 19.97-36.51 32.98-52.53z"/><path d="m164.82 16.72v478.55c-11.41-4.34-22.43-9.49-32.99-15.36v-447.83c10.56-5.87 21.58-11.01 32.99-15.36z"/><path d="m272.49.52v510.96c-5.45.34-10.95.52-16.49.52s-11.04-.18-16.49-.52v-510.96c5.45-.34 10.95-.52 16.49-.52s11.04.18 16.49.52z"/><path d="m380.17 32.08v447.83c-10.56 5.87-21.58 11.02-32.99 15.36v-478.55c11.41 4.35 22.43 9.49 32.99 15.36z"/><path d="m487.84 147.31v217.38c-3.86 8.22-8.14 16.2-12.82 23.92-6.07 10.01-12.81 19.57-20.16 28.61v-322.44c13.01 16.02 24.12 33.65 32.98 52.53z"/></g><g><g><path d="m118.87 359.51v112.69c-9.94-6.31-19.41-13.29-28.35-20.88-6.38-5.4-12.49-11.12-18.31-17.12v-74.69z" fill="#da8f35"/><g fill="#c47528"><path d="m72.211 359.506h46.654v46.654h-46.654z"/><path d="m90.52 359.51v91.81c-6.38-5.4-12.49-11.12-18.31-17.12v-74.69z"/></g></g><g><path d="m439.79 359.51v74.69c-8.8 9.08-18.28 17.51-28.34 25.2-5.91 4.53-12.02 8.8-18.32 12.8v-112.69z" fill="#da8f35"/><g fill="#c47528"><path d="m393.134 359.506h46.654v46.654h-46.654z"/><path d="m411.45 359.51v99.89c-5.91 4.53-12.02 8.8-18.32 12.8v-112.69z"/></g></g></g><path d="m437.353 298.543h-23.176c-11.621 0-21.042 9.421-21.042 21.042v16.87h65.261v-16.87c-.001-11.621-9.422-21.042-21.043-21.042z" fill="#ddeafb"/><path d="m435.384 298.535c-11.62 0-21.04 9.42-21.04 21.05v16.87h-21.21v-16.87c0-11.63 9.42-21.05 21.04-21.05z" fill="#cbe2ff"/><g><path d="m334.683 336.455h-157.366l23.795-75.825h109.776z" fill="#cbe2ff"/><path d="m352.882 309.294h-193.764c-8.989 0-16.276 7.287-16.276 16.276 0 8.989 7.287 16.276 16.276 16.276h193.763c8.989 0 16.276-7.287 16.276-16.276.001-8.989-7.286-16.276-16.275-16.276z" fill="#ddeafb"/><path d="m182.082 337.08c2.95 2.95 7.02 4.77 11.51 4.77h-34.47c-4.5 0-8.56-1.82-11.51-4.77-2.95-2.94-4.77-7.02-4.77-11.51 0-8.99 7.29-16.27 16.28-16.27h34.47c-8.99 0-16.27 7.28-16.27 16.27 0 4.49 1.82 8.57 4.76 11.51z" fill="#cbe2ff"/><path d="m445.177 238.294c-.86 8.289-1.846 16.577-2.946 24.866-1.353 10.146-9.607 17.965-19.81 18.698-110.952 7.91-221.892 7.91-332.843 0-10.203-.734-18.458-8.552-19.81-18.698-1.101-8.289-2.087-16.577-2.935-24.866-7.096-67.892-6.11-135.772 2.935-203.663 1.353-10.146 9.607-17.965 19.81-18.698 110.951-7.91 221.892-7.91 332.843 0 10.203.734 18.458 8.552 19.81 18.698 9.045 67.892 10.031 135.772 2.946 203.663z" fill="#ddeafb"/><path d="m82.897 269.791c.61 4.55 2.52 8.65 5.35 11.93-9.58-1.28-17.19-8.86-18.48-18.56-1.1-8.29-2.08-16.58-2.93-24.87-7.1-67.89-6.11-135.77 2.93-203.66 1.29-9.7 8.9-17.27 18.48-18.56-2.83 3.28-4.74 7.38-5.35 11.93-9.57 71.83-10.61 143.65-3.1 215.48.89 8.77 1.94 17.54 3.1 26.31z" fill="#cbe2ff"/><path d="m427.774 239.295c.099-.928.204-1.863.299-2.786 6.909-66.204 5.937-133.362-2.888-199.606-.276-2.066-1.958-3.672-3.988-3.819-54.811-3.908-110.392-5.889-165.198-5.889s-110.387 1.981-165.188 5.888c-2.041.147-3.723 1.753-3.998 3.817-8.828 66.258-9.796 133.415-2.874 199.641.093.908.196 1.835.293 2.752 114.517 6.383 229.025 6.383 343.542.002z" fill="#407093"/></g><path d="m501.02 330.4c-6.26 20.63-15.05 40.15-26 58.21h-438.04c-10.95-18.06-19.74-37.58-26-58.21z" fill="#da8f35"/><path d="m371.451 179.381-10.245 10.251-10.251 10.245-17.594-29.952-4.221 22.633-21.928-56.919 56.92 21.927-22.633 4.221z" fill="#ddeafb"/></g></svg>