<svg id="Capa_1" enable-background="new 0 0 512 512" height="512" viewBox="0 0 512 512" width="512" xmlns="http://www.w3.org/2000/svg"><g><path d="m512 256c0 59.423-20.247 114.118-54.218 157.562-46.855 59.921-119.821 23.075-201.782 23.075s-154.927 36.846-201.782-23.075c-33.971-43.444-54.218-98.139-54.218-157.562 0-141.385 114.615-256 256-256s256 114.615 256 256z" fill="#78c2a4"/><path d="m457.78 195.15v218.41c-30.8 39.38-72.88 69.52-121.37 85.55-27.483-8.17-52.32-3.02-80.41-3.02-18.78 0-37.08-2.02-54.71-5.86-8.74-1.9-17.31 11.66-25.7 8.88-48.49-16.03-90.57-46.17-121.37-85.55v-218.41l22.4-17.03 179.38-136.35z" fill="#ddeafb"/><path d="m457.78 195.15v59.05l-201.78-153.38-201.78 153.38v-59.05l201.78-153.38z" fill="#cbe2ff"/><path d="m95.13 178.12v277.02c-15.16-12.26-28.89-26.21-40.91-41.58v-218.41l22.4-17.03z" fill="#cbe2ff"/><path d="m503.99 198.87-30.26 39.8-217.73-165.5-217.73 165.5-18.4-24.2-11.86-15.6 247.99-188.5 16.19 12.31z" fill="#dd5790"/><path d="m272.19 22.68-252.32 191.79-11.86-15.6 247.99-188.5z" fill="#da387d"/><g><path d="m336.41 490.23v8.88c-25.29 8.37-52.32 12.89-80.41 12.89s-55.12-4.52-80.41-12.89v-8.88c0-24.9 20.19-45.09 45.09-45.09h70.64c24.9 0 45.09 20.19 45.09 45.09z" fill="#b1e4f9"/><path d="m246.37 445.14c-24.9 0-45.08 20.19-45.08 45.09v15.91c-8.74-1.9-17.31-4.25-25.7-7.03v-8.88c0-24.9 20.19-45.09 45.09-45.09z" fill="#90d8f9"/><path d="m283.043 410.827v33.188c0 12.15-8.011 22.42-19.046 25.831-2.526.784-5.218 1.208-8.002 1.208-14.934 0-27.039-12.104-27.039-27.039v-33.188z" fill="#ffcbbe"/><path d="m283.043 441.912v2.102c0 12.15-8.011 22.42-19.046 25.831-9.956-3.061-17.442-11.717-18.825-22.309 1.807.111 3.623.166 5.448.166 5.116 0 10.131-.406 15.017-1.208 6.021-.968 11.838-2.517 17.406-4.582z" fill="#ffddce"/><g><path d="m181.329 356.158c0 12.397-9.056 22.677-20.915 24.585-1.296.21-2.629.319-3.989.319-13.758 0-24.904-11.147-24.904-24.904s11.147-24.904 24.904-24.904c1.36 0 2.693.11 3.989.32 11.859 1.907 20.915 12.187 20.915 24.584z" fill="#ffddce"/><path d="m181.329 356.158c0 12.397-9.056 22.677-20.915 24.585-2.154-7.833-3.305-16.076-3.305-24.585s1.15-16.752 3.305-24.585c11.859 1.908 20.915 12.188 20.915 24.585z" fill="#ffcbbe"/><circle cx="156.424" cy="356.158" fill="#ffcbbe" r="8.901"/><path d="m330.671 356.158c0 12.397 9.056 22.677 20.915 24.585 1.296.21 2.629.319 3.989.319 13.758 0 24.904-11.147 24.904-24.904s-11.147-24.904-24.904-24.904c-1.36 0-2.693.11-3.989.32-11.859 1.907-20.915 12.187-20.915 24.584z" fill="#ffddce"/><g fill="#ffcbbe"><path d="m330.671 356.158c0 12.397 9.056 22.677 20.915 24.585 2.154-7.833 3.305-16.076 3.305-24.585s-1.15-16.752-3.305-24.585c-11.859 1.908-20.915 12.188-20.915 24.585z"/><circle cx="355.576" cy="356.158" r="8.901"/></g></g><path d="m349.571 343.068c0 46.564-34.017 85.191-78.553 92.363-4.886.802-9.901 1.208-15.017 1.208-51.681 0-93.571-41.89-93.571-93.571l6.79-95.878 166.98-15.138z" fill="#ffddce"/><path d="m272.481 435.185c-.484.085-.974.169-1.464.248-4.887.798-9.901 1.204-15.018 1.204-51.678 0-93.57-41.886-93.57-93.57v-95.263h32.994v95.263c.001 46.053 33.255 84.322 77.058 92.118z" fill="#ffcbbe"/><path d="m266.615 364.348h-21.229c-2.529 0-4.579-2.05-4.579-4.579 0-2.529 2.05-4.579 4.579-4.579h21.229c2.529 0 4.579 2.05 4.579 4.579-.001 2.529-2.051 4.579-4.579 4.579z" fill="#ffcbbe"/><path d="m278.465 388.322h-44.929c-2.529 0-4.579-2.05-4.579-4.579 0-2.529 2.05-4.579 4.579-4.579h44.929c2.529 0 4.579 2.05 4.579 4.579-.001 2.529-2.051 4.579-4.579 4.579z" fill="#eaac9d"/><g><path d="m271.33 338.622c0 10.382 8.416 18.798 18.798 18.798s18.798-8.416 18.798-18.798z" fill="#ffcbbe"/><circle cx="290.129" cy="338.622" fill="#353a3d" r="13.481"/><circle cx="295.746" cy="336.243" fill="#fff" r="5.776"/><path d="m203.073 338.622c0 10.382 8.416 18.798 18.798 18.798s18.798-8.416 18.798-18.798z" fill="#ffcbbe"/><circle cx="221.871" cy="338.622" fill="#353a3d" r="13.481"/><path d="m225.024 351.729c-1.01.248-2.069.375-3.151.375-7.446 0-13.482-6.036-13.482-13.482s6.036-13.482 13.482-13.482c1.083 0 2.141.127 3.151.375-5.928 1.415-10.325 6.75-10.325 13.107s4.398 11.691 10.325 13.107z" fill="#202326"/><path d="m293.281 351.729c-1.01.248-2.069.375-3.151.375-7.446 0-13.482-6.036-13.482-13.482s6.036-13.482 13.482-13.482c1.083 0 2.141.127 3.151.375-5.928 1.415-10.325 6.75-10.325 13.107.001 6.357 4.398 11.691 10.325 13.107z" fill="#202326"/><circle cx="227.489" cy="336.243" fill="#fff" r="5.776"/></g><g fill="#365e7d"><path d="m205.617 205.618c12.282 0 22.239 9.957 22.239 22.239v17.833c0 14.46-11.722 26.182-26.182 26.182h-39.245v-23.065c0-23.853 19.336-43.189 43.188-43.189z"/><path d="m178.779 351.521h-16.35v-79.65l18.361-9.252 7.643 9.252z"/><path d="m333.221 351.521h16.35v-120.682l-26.636 35.822z"/></g><path d="m373.479 187.918h-115.752c-16.497 0-29.871 13.374-29.871 29.871v29.076c0 13.811 11.196 25.006 25.006 25.006h52.394c37.679 0 68.223-30.544 68.223-68.223z" fill="#407093"/><path d="m280.018 271.87h-27.152c-13.815 0-25.01-11.196-25.01-25.004v-29.075c0-16.5 13.373-29.873 29.873-29.873h27.152c-16.494 0-29.867 13.373-29.867 29.873v29.075c0 13.809 11.195 25.004 25.004 25.004z" fill="#365e7d"/></g></g></svg>