<svg id="Capa_1" enable-background="new 0 0 512 512" height="512" viewBox="0 0 512 512" width="512" xmlns="http://www.w3.org/2000/svg"><g><path d="m512 256c0 36.61-7.68 71.42-21.53 102.91-5.84 13.29-12.77 25.98-20.69 37.97-41.41 62.7-109.65 106.12-188.37 113.87-8.36.83 1.829-11.147-6.751-11.147-3.23 0-25.099 12.336-28.299 12.217-85.33-3.16-159.99-48.09-204.14-114.94-9.96-15.09 33.511-38.489 26.881-55.589-1.59-4.11-3.08-8.28-4.47-12.5-1.31-3.97-2.52-7.98-3.63-12.04-1.24-4.52-2.36-9.08-3.35-13.7-.85-3.92-1.61-7.88-2.27-11.87-.81-4.78-53.351-2.401-53.881-7.271v-.01c-.99-9.16-1.5-18.47-1.5-27.9 0-19.52 2.18-38.52 6.33-56.78v-.01c10.13-44.74 31.97-85.03 62.14-117.47 10.72-11.53 22.48-22.07 35.15-31.46 42.57-31.59 95.3-50.28 152.38-50.28 141.38 0 256 114.62 256 256z" fill="#90d8f9"/><path d="m380.48 425.69-99.07 85.06c-8.36.83-16.83 1.25-25.41 1.25-3.23 0-6.44-.06-9.64-.18l119.78-102.84z" fill="#cbe2ff"/><path d="m404.2 417.33c0 17.07-13.83 30.9-30.89 30.9s-30.89-13.83-30.89-30.9c0-2.48.29-4.9.85-7.21 3.24-13.58 15.46-23.68 30.04-23.68s26.8 10.1 30.04 23.68c.56 2.31.85 4.73.85 7.21z" fill="#ddeafb"/><path d="m403.35 410.12h-60.08c3.24-13.58 15.46-23.68 30.04-23.68s26.8 10.1 30.04 23.68z" fill="#cbe2ff"/><path d="m490.47 358.91c-5.84 13.29-12.77 25.98-20.69 37.97h-427.56c-9.96-15.09-18.37-31.29-25-48.39l96.311-20.798 34.437 20.798 129.862 18.532 115.701-18.532 18.898-12.5 33.291 12.5h24.87c6.68 0 12.73 2.71 17.11 7.09 1.02 1.02 1.95 2.14 2.77 3.33z" fill="#ffd064"/><path d="m129.39 372.69c0 13.36-10.83 24.19-24.19 24.19h-62.98c-9.96-15.09-18.37-31.29-25-48.39h87.98c6.68 0 12.73 2.71 17.1 7.09 4.38 4.38 7.09 10.43 7.09 17.11z" fill="#ffc250"/><path d="m393.531 348.49-122.781 122.782-122.782-122.782 119.078-20.798z" fill="#407093"/><path d="m426.95 298.38v37.61h-414.2c-2.76-8.39-5.1-16.98-6.98-25.74-.85-3.92-1.61-7.88-2.27-11.87z" fill="#cbe2ff"/><path d="m458.22 335.99c0 6.91-5.59 12.5-12.5 12.5h-428.5c-1.59-4.11-3.08-8.28-4.47-12.5-1.31-3.97-2.52-7.98-3.63-12.04 1.07-.3 2.21-.46 3.38-.46h433.22c3.46 0 6.58 1.4 8.84 3.66 2.26 2.27 3.66 5.39 3.66 8.84z" fill="#ddeafb"/><path d="m229.966 162.518h-96.732c-7.624 0-13.804 6.18-13.804 13.804v28.807h124.341v-28.807c0-7.624-6.181-13.804-13.805-13.804z" fill="#ddeafb"/><path d="m399.51 162.518h-26.199v-39.118h26.199c7.135 0 12.919 5.784 12.919 12.919v13.279c0 7.136-5.784 12.92-12.919 12.92z" fill="#da387d"/><path d="m163.268 162.513c-7.62 0-13.809 6.189-13.809 13.809v28.807h-30.029v-28.807c0-7.62 6.178-13.809 13.798-13.809z" fill="#cbe2ff"/><path d="m442.12 275.67c-25.79-79.01-63.43-161.27-80.9-197.97-5.97-12.54-17.83-21.2-31.57-23.2-90.24-13.09-169.5-10.27-226.03-4.22-23.37 2.5-42.85 5.55-57.62 8.26-18.79 3.44-32.76 19.31-33.84 38.37l-5.83 102.3-4.83 84.69c.97 8.93 2.4 17.72 4.27 26.35h411.32c17.94 0 30.6-17.52 25.03-34.58zm-161.65-136.54c-.07 25.5-20.59 46.24-46.07 47.01-36.6 1.1-73.2 1.1-109.79 0-25.48-.77-46.01-21.51-46.07-47.01v-.92c.06-25.49 20.59-46.23 46.07-46.99 36.59-1.12 73.19-1.12 109.79 0 25.48.76 46 21.5 46.07 46.99z" fill="#dd5790"/><g fill="#da387d"><path d="m260.099 92.019c-7.257-.22-14.514-.396-21.77-.529 23.631 2.654 42.076 22.552 42.142 46.723v.914c-.066 25.503-20.592 46.238-46.073 47.009-12.014.363-24.028.605-36.053.727 20.581.077 41.173-.187 61.754-.804 25.481-.771 46.007-21.308 46.073-46.569v-.903c-.066-25.26-20.592-45.808-46.073-46.568z"/><path d="m46 58.54c-18.79 3.44-32.76 19.31-33.84 38.37l-5.83 102.3v.01l-4.83 84.68v.01c.97 8.93 2.4 17.71 4.27 26.34h49.16l12.63-221.68c.13-2.32.44-4.61.91-6.83 2.65-12.62 10.51-23.42 21.38-29.87-17.34 2.15-32.09 4.52-43.85 6.67z"/></g></g></svg>