<svg id="Capa_1" enable-background="new 0 0 512 512" height="512" viewBox="0 0 512 512" width="512" xmlns="http://www.w3.org/2000/svg"><g><path d="m512 256c0 141.38-114.62 256-256 256-30.53 0-59.8-5.34-86.95-15.16-5.01-1.81-7.13-38.848-11.99-40.958-51.4-22.28-45.29-68.131-72.61-116.58-2.5-4.42-4.86-8.92-7.09-13.5-12.07-24.73-29.841-13.312-33.381-41.722-.7-5.63-43.22-7.439-43.55-13.18-.289-4.93-.429-9.9-.429-14.9 0-141.38 114.62-256 256-256s256 114.62 256 256z" fill="#5e54ac"/><g><path d="m313.69 363.38c-46.1 46.67-94.36 91.22-144.64 133.46-5.009-1.808-9.945-3.768-14.803-5.874-40.708-17.649-38.13-84.533-64.597-119.456s-81.981-37.884-87.669-83.54c-.702-5.635-1.221-11.327-1.551-17.07 30.61-26.19 60.35-53.38 89.16-81.51l4.04 15.58-24.91 47.92 20.93 118.62 204.27-8.13z" fill="#95d6a4"/><path d="m293.92 363.38c-44.63 44.59-91.27 87.2-139.67 127.58-81.42-35.29-140.89-111.68-152.27-202.99 31.45-26.63 62.03-54.33 91.65-83.01l3.86 14.92 45.24-8.7v27.66h26.92l4.35 51.57 40.13-7.83 7.98 52.42 71.8-19.77-15.84 48.15z" fill="#ddeafb"/><g fill="#407093"><path d="m77.36 325.802c-3.147 2.683-3.519 7.425-.827 10.574l49.609 58.032c2.691 3.148 7.426 3.519 10.574.827.152-.13.297-.264.436-.403 2.741-2.741 2.953-7.174.391-10.171l-49.609-58.032c-2.691-3.148-7.425-3.518-10.574-.827z"/><path d="m187.192 318.507c.049 1.14.013 2.298-.107 3.439-.626 5.904-3.478 11.253-8.506 15.913-6.611 6.141-15.055 9.277-23.777 8.831-8.081-.413-15.396-3.907-20.599-9.838-11.061-12.612-9.876-32.33 2.642-43.956 4.575-4.244 10.223-7.049 16.334-8.111 4.081-.71 6.815-4.592 6.104-8.674-.71-4.081-4.593-6.814-8.674-6.104-8.974 1.56-17.261 5.673-23.969 11.895-8.927 8.296-14.256 19.547-14.995 31.687-.744 12.237 3.262 24.011 11.28 33.154 7.898 9.004 18.945 14.306 31.109 14.928 12.804.655 25.146-3.898 34.749-12.818.446-.414.881-.833 1.306-1.258 6.855-6.855 10.963-15.141 11.911-24.069.198-1.881.258-3.788.176-5.667-.179-4.138-3.68-7.348-7.818-7.168-4.136.178-7.346 3.678-7.166 7.816z"/><path d="m98.11 427.21c-.19.2-.4.38-.61.55-3.23 2.6-7.95 2.09-10.55-1.14l-43.17-53.66c-3.59 2.86-7.2 5.72-10.79 8.54-.04.03-.07.06-.11.08-2.5-4.42-4.86-8.92-7.09-13.5 10.35-8.14 20.75-16.51 30.91-24.91 3.19-2.64 7.92-2.19 10.56 1 2.48 3.01 2.23 7.37-.47 10.08-.17.16-.35.33-.54.48-3.56 2.95-7.17 5.89-10.78 8.82l43.17 53.67c2.42 3.01 2.14 7.32-.53 9.99z"/></g></g><g><path d="m499.026 219.039c-54.105 47.131-110.528 91.464-169.044 132.831l-19.464-3.468 52.544-57.454-152.88-142.096-69.065 8.464-1.24-16.044c59.711-40.58 117.018-84.677 171.62-132.056 15.515-13.468 38.976-11.996 52.743 3.248 46.004 50.917 92.007 101.834 138.005 152.742 14.177 15.691 12.728 39.954-3.219 53.833z" fill="#95d6a4"/><path d="m497.953 191.964c-.383 6.424-3.267 12.289-8.121 16.516-57.151 49.791-117.068 96.526-179.314 139.922l-15.608-2.78 24.045-44.621-74.154 6.871 1.334-53.005-40.879.668 4.764-51.532-26.509-4.723 4.852-27.233-46.059.636-1.184-15.366c62.594-42.164 122.635-88.143 179.556-137.53 5.421-4.708 12.603-6.682 19.704-5.417 5.235.932 9.895 3.522 13.477 7.486l138.005 152.742c4.313 4.768 6.474 10.942 6.091 17.366z" fill="#ddeafb"/><g fill="#407093"><path d="m311.731 228.168c-16.639-1.56-33.395-3.404-49.928-5.493 3.199-14.684 6.199-29.492 8.941-44.132.763-4.071-1.919-7.99-5.99-8.753-4.072-.763-7.99 1.921-8.753 5.991-2.391 12.767-4.983 25.664-7.73 38.493l-12.704-17.777c-2.391-3.346-7.027-4.139-10.391-1.792-.024.017-.048.034-.071.05-3.37 2.409-4.15 7.093-1.741 10.463l44.39 62.115c2.391 3.346 7.027 4.139 10.391 1.792.024-.017.048-.034.071-.05 3.37-2.409 4.15-7.093 1.741-10.463l-14.563-20.379c14.912 1.83 29.97 3.465 44.936 4.868 1.839.173 3.584-.334 4.988-1.314 1.746-1.218 2.965-3.168 3.18-5.453.386-4.123-2.644-7.78-6.767-8.166z"/><path d="m360.038 187.434c-6.676 5.487-13.443 10.962-20.187 16.335l-14.142-17.917c6.033-4.807 12.05-9.667 17.954-14.506 3.204-2.626 3.673-7.351 1.047-10.554-2.625-3.204-7.336-3.678-10.555-1.048-5.834 4.78-11.779 9.583-17.74 14.333l-14.141-17.916c6.448-5.138 12.901-10.36 19.253-15.581 3.2-2.63 3.662-7.356 1.032-10.556-2.63-3.201-7.354-3.663-10.556-1.032-8.207 6.746-16.585 13.493-24.898 20.055-1.562 1.233-2.57 3.034-2.803 5.01-.232 1.975.329 3.962 1.561 5.524l46.869 59.381c2.473 3.133 6.941 3.763 10.173 1.508.122-.085.243-.175.361-.268 8.754-6.909 17.601-14.035 26.295-21.181 3.2-2.63 3.662-7.356 1.032-10.556-2.629-3.198-7.344-3.679-10.555-1.031z"/><path d="m373.789 84.741c-2.763-3.087-7.518-3.33-10.59-.586-10.444 9.35-21.174 18.703-31.89 27.801-3.158 2.681-3.544 7.414-.863 10.571 2.524 2.973 6.866 3.49 10.001 1.303.195-.136.385-.282.57-.439 3.486-2.96 6.969-5.952 10.447-8.956l45.253 51.916c2.54 2.915 6.837 3.392 9.937 1.229.221-.154.436-.322.644-.503 3.122-2.721 3.447-7.459.725-10.581l-45.254-51.917c3.499-3.078 6.984-6.161 10.432-9.247 3.088-2.763 3.35-7.505.588-10.591z"/></g></g></g></svg>