<svg id="Capa_1" enable-background="new 0 0 512 512" height="512" viewBox="0 0 512 512" width="512" xmlns="http://www.w3.org/2000/svg"><g><path d="m512 256c0 51.69-15.32 99.8-41.67 140.04-4.69 7.16-35.74 14.073-41.12 20.713-2.63 3.27 20.66 6.477 17.86 9.617-20.89 23.42-46.04 42.97-74.21 57.45-35.03 18.01-74.76 8.895-116.86 8.895-41.25 0-80.22 9.525-114.73-7.805-27.84-13.98-52.78-32.89-73.67-55.59-.02-.02-.03-.03-.05-.05-.61-.66-1.22-1.33-1.82-2-40.85-45.36-65.73-105.41-65.73-171.27 0-141.38 114.62-256 256-256s256 114.62 256 256z" fill="#95d6a4"/><ellipse cx="374.321" cy="301.698" fill="#b1e4f9" rx="33.325" ry="12.742"/><path d="m272.49 468.926c0 18.05 67.11-6.406 100.37 14.894-35.03 18.01-74.76 28.18-116.86 28.18-41.25 0-80.22-9.76-114.73-27.09 18.07-8.87 55.77-1.76 55.77-21.06 0-25.37-105.27-11.47-129.44-34.53-.02-.02-.03-.03-.05-.05-.69-.66-1.3-1.33-1.82-2-18.02-22.95 53.32-54.37 131.31-44.62l49.16-48.21s183.01 35.923 183.01 82.314c0 46.379-156.72 26.792-156.72 52.172z" fill="#b1e4f9"/><path d="m310.55 103.35c-.54 50.88-4.26 176.07-26.92 269.26-3.75 15.42-17.59 26.26-33.47 26.26h-155.06c-15.88 0-29.72-10.84-33.47-26.26-22.66-93.19-26.38-218.38-26.92-269.26-.15-14.47-.04-22.93-.04-22.93h275.92s.11 8.46-.04 22.93z" fill="#5e54ac"/><g fill="#524798"><path d="m285.81 109.61c0 56.87-7.98 136.21-11.84 171.31-1.12 10.2-9.73 17.91-19.99 17.91h-67.13c-10.6 0-19.38-8.21-20.08-18.78-3.08-46.92-12.98-168.24-34.85-206.63h143.8c6.32 9.4 10.09 21.25 10.09 36.19z"/><path d="m150.176 398.868h-55.07c-15.88 0-29.72-10.84-33.48-26.26-29.1-119.69-26.95-292.19-26.95-292.19h55.06s-2.15 172.5 26.96 292.19c3.75 15.42 17.6 26.26 33.48 26.26z"/><path d="m310.55 103.35h-275.84c-.15-14.47-.04-22.93-.04-22.93h275.92s.11 8.46-.04 22.93z"/></g><path d="m314.177 91.509h-283.094c-9.992 0-18.093-8.1-18.093-18.093 0-9.992 8.1-18.093 18.093-18.093h283.094c9.992 0 18.093 8.1 18.093 18.093 0 9.993-8.101 18.093-18.093 18.093z" fill="#5e54ac"/><g><path d="m374.907-1.341h39.33v425.122h-39.33z" fill="#da8f35" transform="matrix(.972 .235 -.235 .972 60.782 -86.917)"/><path d="m375.208-3.869h17.849v425.122h-17.849z" fill="#c47528" transform="matrix(.972 .235 -.235 .972 59.895 -84.531)"/></g><path d="m470.33 396.04c-7 10.7-14.78 20.83-23.26 30.33h-214.55c-9.03 0-16.35-7.32-16.35-16.35 0-4.52 1.83-8.6 4.79-11.57 2.96-2.96 7.04-4.79 11.56-4.79h229.32c3.11 0 6.02.87 8.49 2.38z" fill="#da8f35"/><path d="m455.23 416.75c-2.63 3.27-5.36 6.48-8.16 9.62h-214.55c-9.03 0-16.35-7.32-16.35-16.36 0-4.52 1.83-8.6 4.79-11.56s7.05-4.79 11.56-4.79h4.97c-.93 2.05-1.45 4.33-1.45 6.73 0 9.03 7.32 16.36 16.35 16.36z" fill="#c47528"/><path d="m295.93 103.35c0 56.87-7.98 136.21-11.84 171.31-1.12 10.2-9.73 17.91-19.99 17.91h-67.13c-10.6 0-19.38-8.21-20.08-18.78-3.68-56.09-17.11-218.47-49.07-218.47 0 0 .98-24.1 37-24.1s131.11-2.91 131.11 72.13z" fill="#ffd064"/><path d="m218.03 292.57h-21.06c-10.6 0-19.38-8.21-20.08-18.78-3.68-56.09-17.11-218.47-49.07-218.47 0 0 .98-24.1 37-24.1 28.62.34 34.83 155.49 33.49 208.42-.66 26.15 9.38 42.78 19.72 52.93z" fill="#ffc250"/><ellipse cx="450.783" cy="339.517" fill="#b1e4f9" rx="43.136" ry="16.493"/><path d="m478.406 263.881 23.978-5.252c7.422-1.626 7.422-12.209 0-13.835l-23.978-5.252c-2.701-.592-4.811-2.701-5.402-5.402l-5.252-23.978c-1.626-7.422-12.209-7.422-13.835 0l-5.252 23.978c-.592 2.701-2.701 4.811-5.402 5.402l-23.978 5.252c-7.422 1.626-7.422 12.209 0 13.835l23.978 5.252c2.701.592 4.811 2.701 5.402 5.402l5.252 23.978c1.626 7.422 12.209 7.422 13.835 0l5.252-23.978c.591-2.701 2.701-4.811 5.402-5.402z" fill="#fff"/><path d="m182.392 452.946 23.978-5.252c7.422-1.626 7.422-12.209 0-13.835l-23.978-5.252c-2.701-.592-4.811-2.701-5.402-5.402l-5.252-23.978c-1.626-7.422-12.209-7.422-13.835 0l-5.252 23.978c-.592 2.701-2.701 4.811-5.402 5.402l-23.978 5.252c-7.422 1.626-7.422 12.209 0 13.835l23.978 5.252c2.701.592 4.811 2.701 5.402 5.402l5.252 23.978c1.626 7.422 12.209 7.422 13.835 0l5.252-23.978c.591-2.701 2.701-4.81 5.402-5.402z" fill="#fff"/></g></svg>