<svg id="Capa_1" enable-background="new 0 0 512 512" height="512" viewBox="0 0 512 512" width="512" xmlns="http://www.w3.org/2000/svg"><g><path d="m303.66 507.57c-15.44 2.91-31.37 4.43-47.66 4.43-2.84 0-5.66-.05-8.48-.14-81.36-2.65-247.21-240.51-247.42-249.07-.07-2.25-.1-4.52-.1-6.79 0-141.38 114.62-256 256-256 135.59 0 246.56 105.42 255.42 238.76.39 5.7-193.08 266.05-207.76 268.81z" fill="#dd5790"/><g><path d="m250.95 288.13v215.09c0 2.97-1.18 5.86-3.43 8.64-126.66-4.12-230.06-100.26-245.52-223.73z" fill="#ddeafb"/><path d="m49.38 288.13v119.03c-25.07-34.2-41.85-74.87-47.38-119.03z" fill="#cbe2ff"/><path d="m250.95 288.13c0 21.75-63.61 39.39-142.07 39.39-39.97 0-76.09-4.58-101.91-11.95-2.14-8.97-3.81-18.13-4.97-27.44-1.04-8.32-1.69-16.78-1.9-25.34 26.07-8.59 65.12-14.05 108.78-14.05 78.46 0 142.07 17.64 142.07 39.39z" fill="#ecf4ff"/><ellipse cx="108.882" cy="288.13" fill="#407093" rx="44.755" ry="12.409"/></g><g><path d="m511.84 265.09c-4.22 121.02-92.46 220.69-208.18 242.48-24.74-7.09-39.97-16.75-39.97-27.39v-215.09z" fill="#ddeafb"/><g fill="#cbe2ff"><path d="m425.78 279.847c-5.522 0-10-4.477-10-10v-10c0-5.523 4.478-10 10-10s10 4.477 10 10v10c0 5.523-4.478 10-10 10z"/><path d="m425.78 437.253c-5.522 0-10-4.477-10-10v-20.987c0-5.523 4.478-10 10-10s10 4.477 10 10v20.987c0 5.523-4.478 10-10 10zm0-52.469c-5.522 0-10-4.477-10-10v-20.987c0-5.523 4.478-10 10-10s10 4.477 10 10v20.987c0 5.523-4.478 10-10 10zm0-52.468c-5.522 0-10-4.477-10-10v-20.987c0-5.523 4.478-10 10-10s10 4.477 10 10v20.987c0 5.523-4.478 10-10 10z"/></g><path d="m346.26 265.09v230.54c-13.68 5.16-27.92 9.18-42.6 11.94-24.74-7.09-39.97-16.75-39.97-27.39v-215.09z" fill="#cbe2ff"/><path d="m512 256c0 3.04-.05 6.07-.16 9.09-.32 9.1-1.11 18.08-2.36 26.91-25.92 7.68-62.8 12.48-103.72 12.48-78.46 0-142.07-17.64-142.07-39.39 0-21.76 63.61-39.39 142.07-39.39 41.95 0 79.65 5.04 105.66 13.06.39 5.7.58 11.45.58 17.24z" fill="#ecf4ff"/><ellipse cx="405.762" cy="265.086" fill="#407093" rx="44.755" ry="12.409"/></g><path d="m425.78 50.27v212.24c-11.95 10.37-23.9 16.26-35.85 18.98-51.24 11.64-102.49-35.26-153.73-39.5-19.99-1.67-39.99 3.17-59.98 20.52v-212.24c19.99-17.34 39.99-22.18 59.98-20.52 51.24 4.24 102.49 51.14 153.73 39.5 11.95-2.72 23.9-8.61 35.85-18.98z" fill="#ddeafb"/><path d="m389.93 69.25v212.24c-51.24 11.64-102.49-35.26-153.73-39.5v-212.24c51.24 4.24 102.49 51.14 153.73 39.5z" fill="#cbe2ff"/><g><path d="m333.516 50.268v215.092c0 21.752-63.604 39.391-142.067 39.391-21.245 0-41.402-1.292-59.499-3.606-48.746-6.248-67.823-79.857-67.823-95.721l-14.745-155.156z" fill="#ddeafb"/><g><path d="m246.707 290.042c-5.522 0-10-4.477-10-10v-20.987c0-5.523 4.478-10 10-10s10 4.477 10 10v20.987c0 5.523-4.478 10-10 10zm0-52.469c-5.522 0-10-4.477-10-10v-20.987c0-5.523 4.478-10 10-10s10 4.477 10 10v20.987c0 5.523-4.478 10-10 10zm0-52.469c-5.522 0-10-4.477-10-10v-20.987c0-5.523 4.478-10 10-10s10 4.477 10 10v20.987c0 5.523-4.478 10-10 10zm0-52.468c-5.522 0-10-4.477-10-10v-20.987c0-5.523 4.478-10 10-10s10 4.477 10 10v20.987c0 5.523-4.478 10-10 10z" fill="#cbe2ff"/></g><path d="m131.949 50.268v250.876c-48.746-6.248-82.568-19.92-82.568-35.785v-215.091z" fill="#cbe2ff"/><ellipse cx="191.449" cy="50.267" fill="#ecf4ff" rx="142.067" ry="39.39"/><ellipse cx="191.449" cy="50.267" fill="#407093" rx="44.755" ry="12.409"/></g></g></svg>