<svg id="Capa_1" enable-background="new 0 0 512 512" height="512" viewBox="0 0 512 512" width="512" xmlns="http://www.w3.org/2000/svg"><g><path d="m113.577 468.755c-68.496-45.943-113.577-124.088-113.577-212.755 0-141.38 114.62-256 256-256s256 114.62 256 256c0 87.945-44.348 165.534-111.902 211.619" fill="#dd5790"/><g><path d="m398.41 468.76c-12.34 8.28-25.44 15.52-39.18 21.57-10.65 4.7-21.68 8.7-33.03 11.92-15.31 4.36-31.2-27.3-47.54-25.87-7.46.66-15.02.99-22.66.99s-15.21-.34-22.68-.99c-16.33-1.44-32.22 30.23-47.52 25.88-7.24-2.06-14.36-4.44-21.33-7.12-.43-.16-.86-.32-1.29-.49-3.51-1.36-6.98-2.81-10.41-4.32-13.74-6.06-26.84-13.29-39.19-21.58 10.39-14.37 23.76-26.43 39.19-35.32 10.2-5.87 21.3-10.34 33.03-13.15 1.81-.44 3.64-.84 5.48-1.19 3.47-.68 7-1.2 10.57-1.57 1.03-.11 2.05-.21 3.09-.29 3.38-.28 6.8-.42 10.26-.42h81.59c4.52 0 8.97.24 13.35.7 3.57.37 7.09.9 10.57 1.56 1.39.27 2.77.56 4.14.87.45.12.91.21 1.35.33 11.74 2.82 22.83 7.29 33.03 13.16 15.43 8.9 28.79 20.96 39.18 35.33z" fill="#95d6a4"/><path d="m215.2 416.81c-29.36 0-49.26 42.43-50.73 78.33-.43-.16-.86-.32-1.29-.49-3.51-1.36-6.98-2.81-10.41-4.32-13.74-6.06-26.84-13.29-39.19-21.58 10.39-14.37 23.76-26.43 39.19-35.32 10.2-5.87 21.3-10.34 33.03-13.15 1.81-.44 3.64-.84 5.48-1.19 3.47-.68 7-1.2 10.57-1.57 1.03-.11 2.05-.21 3.09-.29 3.38-.28 6.8-.42 10.26-.42z" fill="#78c2a4"/><path d="m300.706 368.538v54.869c0 20.088-13.245 37.067-31.489 42.707-4.176 1.296-8.627 1.997-13.23 1.997-24.691 0-44.703-20.012-44.703-44.703v-54.869h89.422z" fill="#78c2a4"/><path d="m300.706 419.932v3.475c0 20.088-13.245 37.067-31.489 42.707-16.461-5.06-28.837-19.372-31.123-36.884 2.987.183 5.99.274 9.008.274 8.459 0 16.75-.671 24.828-1.997 9.953-1.6 19.57-4.161 28.776-7.575z" fill="#95d6a4"/><g><path d="m132.54 278.153c0 20.497-14.973 37.492-34.579 40.646-2.143.347-4.347.528-6.596.528-22.746 0-41.175-18.429-41.175-41.175s18.429-41.175 41.175-41.175c2.249 0 4.453.181 6.596.528 19.606 3.156 34.579 20.152 34.579 40.648z" fill="#ffddce"/><path d="m132.54 278.153c0 20.497-14.973 37.492-34.579 40.646-3.562-12.95-5.464-26.579-5.464-40.646s1.902-27.696 5.464-40.646c19.606 3.154 34.579 20.15 34.579 40.646z" fill="#ffcbbe"/><circle cx="91.365" cy="278.153" fill="#ffcbbe" r="14.716"/><path d="m379.449 278.153c0 20.497 14.973 37.492 34.579 40.646 2.143.347 4.347.528 6.596.528 22.746 0 41.175-18.429 41.175-41.175s-18.429-41.175-41.175-41.175c-2.249 0-4.453.181-6.596.528-19.606 3.156-34.579 20.152-34.579 40.648z" fill="#ffddce"/><g fill="#ffcbbe"><path d="m379.449 278.153c0 20.497 14.973 37.492 34.579 40.646 3.562-12.95 5.464-26.579 5.464-40.646s-1.902-27.696-5.464-40.646c-19.606 3.154-34.579 20.15-34.579 40.646z"/><circle cx="420.624" cy="278.153" r="14.716"/></g></g><path d="m410.696 256.511c0 76.985-56.241 140.847-129.873 152.705-8.078 1.326-16.369 1.997-24.828 1.997-85.444 0-154.701-69.257-154.701-154.701l11.225-11.284 10.271-148.164 269.887-24.467z" fill="#ffddce"/><path d="m283.243 408.81c-.8.14-1.61.28-2.42.41-8.08 1.32-16.37 1.99-24.83 1.99-85.44 0-154.7-69.25-154.7-154.7v-51.339l54.55-106.161v157.5c0 76.14 54.98 139.41 127.4 152.3z" fill="#ffcbbe"/><path d="m118.75 270.487-17.457-65.316v-66.37l30.356-15.297 12.637 15.297-14.81 122.182c-.658 5.424-5.262 9.504-10.726 9.504z" fill="#365e7d"/><path d="m410.696 205.171v65.316-125.723c0-23.53-29.997-33.46-44.037-14.578l13.754 113.466c1.857 15.317 14.856-38.481 30.283-38.481z" fill="#407093"/><path d="m287.552 0-31.557 14.546-31.557-14.546c-68.011 0-123.144 55.134-123.144 123.144v37.305h309.403v-37.305c-.001-68.01-55.134-123.144-123.145-123.144z" fill="#407093"/><path d="m272.349 10.37c-14.913 0-24.784-7.715-38.013-2.859-47.103 17.29-80.713 62.536-80.713 115.633v37.31h-52.33v-37.31c0-68.01 55.13-123.14 123.14-123.14z" fill="#365e7d"/><path d="m410.7 205.17v69.62c0 45.14-21.93 85.17-55.72 109.99-6.01 4.42-12.38 8.35-19.08 11.74-18.51 9.4-39.45 14.69-61.63 14.69h-36.55c-22.18 0-43.13-5.29-61.64-14.69-6.69-3.39-13.07-7.32-19.07-11.74-33.79-24.82-55.72-64.85-55.72-109.99v-69.62c62.39 0 123.15-137.97 123.15-205.17h63.11c0 67.2 60.76 205.17 123.15 205.17z" fill="#ffd064"/><path d="m244.743 411.211h-7.02c-75.35 0-136.43-61.08-136.43-136.42v-69.62c20.7 0 41.23-15.19 59.41-37.96v107.58c0 75.34 37.63 136.42 84.04 136.42z" fill="#ffc250"/><circle cx="176.906" cy="245.228" fill="#ddeafb" r="49.841"/><circle cx="325.083" cy="245.228" fill="#ffc250" r="49.841"/><circle cx="335.083" cy="245.228" fill="#ddeafb" r="49.841"/><circle cx="335.083" cy="245.228" fill="#b1e4f9" r="38.71"/><circle cx="176.906" cy="245.228" fill="#b1e4f9" r="38.71"/><path d="m172.126 283.647c1.57.19 3.16.29 4.78.29 21.38 0 38.71-17.33 38.71-38.71s-17.33-38.71-38.71-38.71c-1.62 0-3.21.1-4.78.29 19.12 2.36 33.93 18.66 33.93 38.42s-14.81 36.061-33.93 38.42z" fill="#90d8f9"/><path d="m330.303 283.647c1.57.19 3.16.29 4.78.29 21.38 0 38.71-17.33 38.71-38.71s-17.33-38.71-38.71-38.71c-1.62 0-3.21.1-4.78.29 19.12 2.36 33.93 18.66 33.93 38.42s-14.81 36.061-33.93 38.42z" fill="#90d8f9"/><g><path d="m286.08 359.79v50.44h-60.17v-50.44c0-6.66 7.85-12.37 18.95-14.69 3.44-.72 7.2-1.12 11.13-1.12 16.62 0 30.09 7.08 30.09 15.81z" fill="#da8f35"/><path d="m286.08 370.78v39.45h-60.17v-39.45c9.17-2.18 19.35-3.4 30.08-3.4s20.92 1.22 30.09 3.4z" fill="#c47528"/><path d="m244.86 345.1v65.13h-18.95v-50.44c0-6.66 7.85-12.37 18.95-14.69z" fill="#c47528"/><path d="m328.9 415.41v75.58h-145.81v-75.58c0-13.7 13.69-25.72 34.28-32.49 11.2-3.68 24.43-5.81 38.62-5.81 40.27 0 72.91 17.14 72.91 38.3z" fill="#da8f35"/><g fill="#c47528"><path d="m328.9 490.99c0 3.979-1.16 7.82-3.31 11.43-7.27 2.05-14.68 3.79-22.21 5.2-3.89.73-7.82 1.37-11.77 1.92-2.78.39-5.57.73-8.38 1.02-4.23.46-8.49.8-12.78 1.04-2.76.15-5.54.26-8.33.33-2.04.05-4.07.07-6.12.07-2.1 0-4.2-.03-6.29-.07-2.79-.07-5.57-.19-8.34-.34-4.29-.24-8.55-.59-12.78-1.05-2.81-.29-5.61-.63-8.39-1.02-3.94-.56-7.85-1.2-11.72-1.93-7.48-1.4-14.85-3.13-22.09-5.17-2.14-3.61-3.3-7.45-3.3-11.43 0-21.15 32.64-38.3 72.9-38.3 40.27 0 72.91 17.15 72.91 38.3z"/><path d="m217.37 382.92v108.07h-34.28v-75.58c0-13.7 13.69-25.72 34.28-32.49z"/></g></g><g fill="#ffc250"><g><path d="m354.98 384.78c-6.01 4.42-12.38 8.35-19.08 11.74l-35.24-61.05c-3.09-5.35-1.26-12.2 4.09-15.29 5.36-3.09 12.2-1.26 15.29 4.1z"/><path d="m211.33 335.47-35.25 61.05c-6.69-3.39-13.07-7.32-19.07-11.74l34.93-60.5c3.1-5.36 9.94-7.19 15.3-4.1 5.35 3.09 7.18 9.94 4.09 15.29z"/></g><path d="m273.544 306.694h-35.098c-4.181 0-7.57-3.389-7.57-7.57 0-4.181 3.389-7.57 7.57-7.57h35.098c4.181 0 7.57 3.389 7.57 7.57 0 4.18-3.389 7.57-7.57 7.57z"/></g></g><path d="m260.62 463.51c-1.18-1.17-2.8-1.9-4.59-1.9-3.59 0-6.51 2.91-6.51 6.5 0 1.79.73 3.42 1.9 4.6 1.18 1.17 2.8 1.9 4.6 1.9s3.42-.73 4.6-1.9c1.17-1.18 1.9-2.81 1.9-4.6s-.73-3.42-1.9-4.6zm-19.21 5.24c-.55-3.16-3.3-5.38-6.39-5.38-.37 0-.75.03-1.13.1-3.54.62-5.9 3.99-5.28 7.521.27 1.58 1.1 2.93 2.24 3.87 1.14.96 2.6 1.51 4.15 1.51.38 0 .75-.03 1.13-.1 3.16-.55 5.38-3.3 5.38-6.39 0-.371-.03-.751-.1-1.131zm36.75-5.27c-.38-.07-.76-.1-1.13-.1-3.09 0-5.84 2.22-6.39 5.37-.63 3.54 1.74 6.91 5.27 7.53.38.07.76.1 1.13.1 1.55 0 3.01-.56 4.15-1.5 1.15-.95 1.97-2.3 2.25-3.87.07-.38.1-.76.1-1.13 0-3.1-2.22-5.85-5.38-6.4zm-57.44 9.68c-1.12-2.33-3.44-3.68-5.86-3.68-.95 0-1.91.21-2.82.65-3.23 1.56-4.59 5.44-3.03 8.68.56 1.16 1.42 2.08 2.44 2.71 1.03.62 2.21.96 3.42.96.95 0 1.91-.21 2.82-.65 2.32-1.11 3.68-3.44 3.68-5.85 0-.95-.21-1.91-.65-2.82zm79.29-3c-.91-.44-1.88-.65-2.83-.65-2.41 0-4.73 1.35-5.85 3.67-.44.91-.65 1.88-.65 2.83 0 2.41 1.35 4.71 3.66 5.85.92.44 1.88.65 2.83.65 1.21 0 2.39-.34 3.41-.97 1.02-.62 1.88-1.54 2.45-2.7.44-.91.65-1.88.65-2.82 0-2.42-1.35-4.74-3.67-5.86zm-98.47 14.28h-.04c-3.57 0-6.48 2.88-6.5 6.46-.02 3.59 2.88 6.51 6.47 6.54h.03c1.79 0 3.41-.72 4.58-1.89 1.18-1.17 1.91-2.79 1.92-4.58v-.04c0-3.57-2.88-6.47-6.46-6.49zm115.44 6.71c0-.05.01-.1.01-.16 0-1.79-.73-3.42-1.9-4.6-1.18-1.17-2.81-1.9-4.6-1.9-1.78 0-3.39.72-4.57 1.88-1.17 1.16-1.9 2.77-1.93 4.54v.12c-.05 3.59 2.83 6.53 6.42 6.57h.08c3.55 0 6.45-2.86 6.5-6.42h-.01zm-99.38 8.95c-.91-.44-1.88-.65-2.83-.65-2.41 0-4.73 1.35-5.85 3.66-.71 1.45-.82 3.04-.44 4.48 3.87.73 7.78 1.37 11.72 1.93.15-.23.29-.47.41-.73.44-.91.65-1.88.65-2.83 0-2.42-1.34-4.73-3.66-5.86zm85.33 3.11c-1.12-2.33-3.44-3.69-5.86-3.69-.95 0-1.91.21-2.82.65-3.23 1.56-4.59 5.44-3.03 8.68.12.24.25.47.39.69 3.95-.55 7.88-1.19 11.77-1.92.13-.52.2-1.06.2-1.6 0-.94-.21-1.9-.65-2.81zm-66.9 2.48c-.01 0-.01 0-.01 0-.38-.07-.76-.1-1.13-.1-2.95 0-5.58 2.02-6.3 4.95 4.23.46 8.49.81 12.78 1.05-.22-2.89-2.36-5.37-5.34-5.9zm40.91-.07c-.38 0-.75.03-1.13.1-2.98.521-5.14 3-5.36 5.88 4.29-.24 8.55-.58 12.78-1.04-.72-2.92-3.35-4.94-6.29-4.94zm-16.43 3.66c-1.18-1.18-2.81-1.9-4.6-1.91-1.79 0-3.42.73-4.6 1.9-.73.74-1.29 1.64-1.6 2.66 2.09.04 4.19.07 6.29.07 2.05 0 4.08-.02 6.12-.07-.32-1.01-.88-1.91-1.61-2.65z" fill="#da8f35"/></g></svg>