<svg id="Capa_1" enable-background="new 0 0 512 512" height="512" viewBox="0 0 512 512" width="512" xmlns="http://www.w3.org/2000/svg"><g><path d="m512 256c0 59.12-20.04 113.55-53.69 156.88-5.044 6.495-36.299-4.954-41.931 1.019-8.805 9.337 7.603 35.703-2.509 43.631-4.08 3.21-8.26 6.29-12.54 9.24-6.39 4.42-22.177-5.097-28.977-1.277-5.97 3.37-2.903 20.157-9.153 23.037-32.61 15.07-68.92 23.47-107.2 23.47s-74.59-8.4-107.2-23.47c-7.84-3.61-6.315-16.775-13.695-21.145-5.22-3.07-19.475 2.815-24.435-.615-4.28-2.95-8.46-6.03-12.54-9.24-9.066-7.108 2.083-28.195-5.939-36.442-6.649-6.836-32.641-.662-38.501-8.208-33.65-43.33-53.69-97.76-53.69-156.88 0-141.38 114.62-256 256-256s256 114.62 256 256z" fill="#95d6a4"/><path d="m187.72 421.12-38.92 67.41c-7.84-3.61-15.47-7.62-22.85-11.99-5.22-3.07-10.32-6.34-15.28-9.77l39.03-67.6 15.69 9.06z" fill="#da8f35"/><path d="m165.39 408.23-39.44 68.31c-5.22-3.07-10.32-6.34-15.28-9.77l39.03-67.6z" fill="#c47528"/><path d="m401.33 466.77c-6.39 4.42-13 8.56-19.8 12.38-5.97 3.37-12.08 6.5-18.33 9.38l-38.92-67.41 17.81-10.28 20.21-11.67z" fill="#da8f35"/><path d="m381.53 479.15c-5.97 3.37-12.08 6.5-18.33 9.38l-38.92-67.41 17.81-10.28z" fill="#c47528"/><path d="m435.034 392.828c15.225-46.118 36.159-250.227 28.546-287.743-7.612-37.516-78.026-97.268-207.58-97.268s-199.968 59.752-207.58 97.268 13.322 241.625 28.546 287.743" fill="#4a80aa"/><ellipse cx="256" cy="360.157" fill="#407093" rx="177.21" ry="39.015"/><path d="m111.71 392.821h-34.74c-15.23-46.112-36.16-250.222-28.55-287.736 7.61-37.524 78.03-97.269 207.58-97.269-104.41 0-161.16 59.745-167.29 97.269-6.14 37.514 10.73 241.624 23 287.736z" fill="#407093"/><path d="m458.31 412.88c-12.93 16.65-27.86 31.65-44.44 44.65h-315.74c-16.58-13-31.51-28-44.44-44.65-48.65-106.95-36.54-205.08-10.32-215.35 19.07-7.47 46.51 89.17 58.98 154.74 3.61 18.97 20.2 32.67 39.5 32.66 57.11-.02 171.19-.02 228.3 0 19.3.01 35.89-13.69 39.5-32.66 12.47-65.57 39.91-162.21 58.98-154.74 26.22 10.27 38.33 108.4-10.32 215.35z" fill="#4a80aa"/><g fill="#407093"><path d="m118.65 457.14c.17.13.33.26.5.39h-21.02c-16.58-13-31.51-28-44.44-44.65-48.65-106.95-36.54-205.08-10.32-215.35 3.86-1.51 8.07 1.24 12.42 7.15-16.57 22.24-22.28 88.08 2.19 164.84 11.02 34.58 32.17 65.15 60.67 87.62z"/><path d="m479.851 208.723c-16.44 26.7-34.42 93.99-43.84 143.55-3.61 18.96-20.2 32.66-39.5 32.66-7.56-.01-16.12-.01-25.41-.01 18.89-.44 35-14 38.55-32.65 12.47-65.58 39.91-162.22 58.98-154.75 4.16 1.63 7.96 5.47 11.22 11.2z"/><path d="m371.051 384.923c-.3.01-.6.01-.9.01-2.68 0-5.48 0-8.39-.01z"/><circle cx="184.801" cy="114.21" r="15.961"/><circle cx="184.801" cy="290.44" r="15.961"/><circle cx="186.476" cy="202.325" r="14.286"/><circle cx="325.524" cy="123.454" r="14.286"/><circle cx="325.524" cy="202.325" r="14.286"/><circle cx="325.524" cy="281.195" r="14.286"/></g><g><path d="m366.781 290.052c-4.017 0-8.034-1.532-11.098-4.597-6.13-6.129-6.13-16.067 0-22.196 20.448-20.448 30.54-42.12 29.187-62.676-1.136-17.247-10.563-33.492-26.545-45.74-20.525-15.732-31.145-36.641-29.901-58.876 1.252-22.373 14.707-43.909 35.118-56.205 7.427-4.473 17.069-2.08 21.543 5.345 4.473 7.425 2.08 17.07-5.345 21.543-11.465 6.907-19.305 19.102-19.974 31.07-.655 11.717 5.45 22.854 17.656 32.209 23.264 17.83 37.033 42.19 38.771 68.593 1.37 20.81-4.165 52.785-38.313 86.934-3.065 3.064-7.082 4.596-11.099 4.596z" fill="#ffd064"/><path d="m369.442 268.261c-5.94 5.95-6.11 15.48-.52 21.64-.71.1-1.42.15-2.14.15-4.02 0-8.03-1.53-11.1-4.6-6.13-6.13-6.13-16.06 0-22.19 20.45-20.45 30.54-42.12 29.19-62.68-1.14-17.24-10.56-33.49-26.55-45.74-20.52-15.73-31.14-36.64-29.9-58.87 1.25-22.38 14.71-43.91 35.12-56.21 6.54-3.93 14.79-2.55 19.72 2.9-2.05.27-4.07.96-5.96 2.1-20.41 12.3-33.86 33.83-35.11 56.21-1.25 22.23 9.37 43.14 29.9 58.87 15.98 12.25 25.41 28.5 26.54 45.74 1.35 20.56-8.74 42.23-29.19 62.68z" fill="#ffc250"/><path d="m402.861 301.128c0-66.007-57.922-119.515-129.371-119.515s-129.371 53.509-129.371 119.515 57.922 53.456 129.371 53.456 129.371 12.55 129.371-53.456z" fill="#ffc250"/><path d="m201.761 309.739c0 23.114 6.184 37.25 16.993 45.798-44.093.031-74.635-6.466-74.635-54.41 0-66.003 57.915-119.513 129.369-119.513 10.076 0 19.891 1.067 29.308 3.087-57.832 12.797-101.035 63.911-101.035 125.038z" fill="#ebb044"/><g><g><path d="m158.212 185.326-12.686 13.799-25.899 28.167c-18.962-15.739-20.777-35.239-17.367-51.494v-.004c2.185-10.418 6.513-19.5 9.84-25.397 2.066-3.662 7.251-4.313 10.239-1.296z" fill="#ffc250"/><path d="m145.526 199.125-25.899 28.167c-18.962-15.739-20.777-35.239-17.367-51.494v-.004c3.973-13.047 35.128-1.213 43.266 23.331z" fill="#ddeafb"/><path d="m216.24 185.326 12.686 13.799 25.899 28.167c18.962-15.739 20.777-35.239 17.367-51.494v-.004c-2.185-10.418-6.513-19.5-9.84-25.397-2.066-3.662-7.251-4.313-10.239-1.296z" fill="#ffc250"/><path d="m228.926 199.125 25.899 28.167c18.962-15.739 20.777-35.239 17.367-51.494v-.004c-3.973-13.047-35.128-1.213-43.266 23.331z" fill="#ddeafb"/></g><path d="m262.809 248.789c0 20.013-8.093 33.213-21.309 41.536-14.323 9.017-34.657 12.304-57.219 12.304-22.559 0-42.896-3.283-57.219-12.3-13.216-8.323-21.313-21.528-21.313-41.54 0-38.951 30.683-71.01 70.09-75.059 2.772-.286 5.591-.432 8.442-.432s5.666.147 8.438.432c39.403 4.045 70.09 36.108 70.09 75.059z" fill="#ffd064"/><path d="m192.719 173.73 3.965 73.413h-24.811l3.965-73.413c2.772-.286 5.591-.432 8.442-.432 2.852 0 5.667.147 8.439.432z" fill="#ffc250"/><path d="m184.281 302.63c-22.558 0-42.896-3.283-57.219-12.3-13.216-8.323-21.313-21.528-21.313-41.54 0-41.691 35.16-75.491 78.533-75.491-22.761 0-41.207 33.8-41.207 75.491 0 20.013 4.247 33.217 11.182 41.54 7.517 9.016 18.188 12.3 30.024 12.3z" fill="#ffc250"/><path d="m241.502 290.316v.008c-14.324 9.017-34.66 12.303-57.222 12.303-22.558 0-42.894-3.283-57.218-12.299l-.004-.012c-11.324-29.829 28.241-44.231 57.222-44.231s68.546 14.402 57.222 44.231z" fill="#ddeafb"/><path d="m159.073 292.732c-1.486 0-2.826-.989-3.161-2.441-.388-1.68.713-3.345 2.461-3.718 9.498-2.029 16.186-8.309 19.881-18.665 2.89-8.101 2.786-15.741 2.784-15.817-.031-1.719 1.392-3.14 3.18-3.172 1.774-.031 3.266 1.332 3.302 3.051.008.349.142 8.664-3.07 17.781-4.396 12.477-12.927 20.398-24.671 22.907-.236.049-.473.074-.706.074z" fill="#cbe2ff"/><path d="m209.486 292.732c-.233 0-.469-.024-.706-.075-11.744-2.509-20.275-10.43-24.67-22.907-3.212-9.117-3.078-17.432-3.07-17.781.036-1.721 1.502-3.085 3.306-3.053 1.789.035 3.21 1.456 3.176 3.175-.002.108-.1 7.733 2.784 15.817 3.695 10.356 10.383 16.636 19.881 18.665 1.748.373 2.85 2.038 2.461 3.718-.336 1.452-1.676 2.441-3.162 2.441z" fill="#cbe2ff"/><path d="m198.653 248.718c0-7.631-6.435-7.185-14.373-7.185s-14.373-.446-14.373 7.185 6.435 13.817 14.373 13.817 14.373-6.186 14.373-13.817z" fill="#407093"/><circle cx="219.338" cy="264.944" fill="#e4e4e4" r="4.351"/><circle cx="231.602" cy="270.209" fill="#e4e4e4" r="4.351"/><circle cx="149.221" cy="264.944" fill="#e4e4e4" r="4.351"/><circle cx="136.957" cy="270.209" fill="#e4e4e4" r="4.351"/><g fill="#407093"><path d="m219.339 266.926c-.526 0-1.05-.208-1.44-.619-.752-.794-.72-2.047.074-2.8.212-.201 5.296-4.977 15.036-9.769 8.93-4.394 23.658-9.632 43.112-9.632 1.095 0 1.983.888 1.983 1.983s-.888 1.983-1.983 1.983c-18.607 0-32.676 4.974-41.203 9.146-9.254 4.529-14.168 9.121-14.217 9.167-.383.361-.873.541-1.362.541z"/><path d="m231.603 272.192c-.709 0-1.396-.382-1.752-1.052-.514-.967-.148-2.167.819-2.682.558-.297 13.975-7.236 41.928-4.84 1.091.094 1.9 1.054 1.806 2.145s-1.057 1.897-2.145 1.806c-26.798-2.298-39.6 4.323-39.727 4.39-.296.158-.615.233-.929.233z"/><path d="m149.22 266.927c-.489 0-.98-.18-1.363-.543-.194-.183-19.803-18.313-55.419-18.313-1.095 0-1.983-.888-1.983-1.983s.888-1.983 1.983-1.983c19.454 0 34.182 5.238 43.112 9.632 9.739 4.792 14.824 9.568 15.035 9.769.794.754.827 2.009.073 2.803-.389.411-.913.618-1.438.618z"/><path d="m136.956 272.192c-.313 0-.63-.074-.925-.231-.188-.098-13.147-6.671-39.731-4.392-1.094.093-2.051-.715-2.145-1.806s.715-2.051 1.806-2.145c27.954-2.395 41.37 4.544 41.928 4.84.967.514 1.333 1.715.819 2.682-.357.671-1.043 1.052-1.752 1.052z"/><g><path d="m150.812 242.149c-8.792 0-15.944-8.1-15.944-18.057 0-2.311 1.874-4.185 4.185-4.185s4.185 1.874 4.185 4.185c0 5.341 3.398 9.686 7.573 9.686 4.176 0 7.573-4.345 7.573-9.686 0-2.311 1.874-4.185 4.185-4.185s4.185 1.874 4.185 4.185c.002 9.957-7.15 18.057-15.942 18.057z"/><path d="m217.746 242.149c-8.792 0-15.944-8.1-15.944-18.057 0-2.311 1.874-4.185 4.185-4.185s4.185 1.874 4.185 4.185c0 5.341 3.398 9.686 7.573 9.686 4.176 0 7.573-4.345 7.573-9.686 0-2.311 1.874-4.185 4.185-4.185s4.185 1.874 4.185 4.185c.002 9.957-7.15 18.057-15.942 18.057z"/></g></g></g></g></g></svg>