<svg id="Capa_1" enable-background="new 0 0 512 512" height="512" viewBox="0 0 512 512" width="512" xmlns="http://www.w3.org/2000/svg"><g><path d="m512 256c0 35.346-7.163 69.019-20.118 99.647-7.601 17.97-46.005 22.245-57.315 37.841-13.344 18.4-.268 47.601-17.934 61.855-43.924 35.439-99.801 56.657-160.633 56.657s-116.709-21.218-160.633-56.657c-17.667-14.254 16.961-37.135 3.617-55.535-10.971-15.128-70.689-25.177-78.177-42.547-13.389-31.057-20.807-65.293-20.807-101.261 0-141.385 114.615-256 256-256s256 114.615 256 256z" fill="#95d6a4"/><path d="m484.38 336.95c-.52 4.87-1.06 9.75-1.64 14.62-4.34 9.4-9.27 18.49-14.72 27.21-5.04 3.58-11.08 5.83-17.59 6.3-123.31 8.98-246.62 9.42-369.93 1.31h-.01c-2.46-.16-4.93-.32-7.39-.5h-.01l-3.6-.24c-.01 0-.02 0-.02 0-2.63-.19-5.27-.37-7.9-.57-6.51-.47-12.55-2.72-17.59-6.3-5.45-8.72-10.38-17.81-14.72-27.21-.58-4.87-1.12-9.75-1.64-14.62-6.33-59.76-8.02-119.52-5.1-179.28 1.35-27.95 3.74-55.9 7.12-83.86 1.99-16.42 15.44-29.04 31.93-30.24 7.32-.53 14.63-1.03 21.94-1.5.27-.01.53-.03.79-.05 10.35-.67 20.68-1.27 31.02-1.8 93.78-4.95 187.58-4.95 281.36 0 17.92.92 35.84 2.05 53.75 3.35 16.49 1.2 29.94 13.82 31.93 30.24 3.38 27.96 5.77 55.91 7.12 83.86 2.92 59.76 1.23 119.52-5.1 179.28z" fill="#ddeafb"/><g fill="#cbe2ff"><path d="m70.24 385.7-.75-.05c-.01 0-.02 0-.02 0-2.63-.19-5.27-.37-7.9-.57-6.51-.47-12.55-2.72-17.59-6.3-5.45-8.72-10.38-17.81-14.72-27.21-.58-4.87-1.12-9.75-1.64-14.62-6.33-59.76-8.02-119.52-5.1-179.28 1.35-27.95 3.74-55.9 7.12-83.86 1.99-16.42 15.44-29.04 31.93-30.24 2.89-.21 5.77-.41 8.65-.61-10.97 4.96-18.99 15.31-20.5 27.82-3.46 28.56-5.9 57.11-7.28 85.67-2.98 61.05-1.25 122.1 5.21 183.15.53 4.97 1.09 9.96 1.68 14.93 4.43 9.61 9.47 18.89 15.04 27.8 1.83 1.3 3.8 2.44 5.87 3.37z"/><path d="m484.38 336.95c-.52 4.87-1.06 9.75-1.64 14.62-4.34 9.4-9.27 18.49-14.72 27.21-5.04 3.58-11.08 5.83-17.59 6.3-123.31 8.98-246.62 9.42-369.93 1.31h-.01c-2.46-.16-4.93-.32-7.39-.5h-.01l-3.6-.24c-.01 0-.02 0-.02 0-2.63-.19-5.27-.37-7.9-.57-6.51-.47-12.55-2.72-17.59-6.3-5.45-8.72-10.38-17.81-14.72-27.21-.58-4.87-1.12-9.75-1.64-14.62z"/><path d="m256 365.738c-61.072 0-123.003-2.252-184.073-6.695-7.118-.518-12.897-5.948-13.741-12.912-10.592-87.458-10.592-176.146 0-263.603.844-6.966 6.624-12.396 13.742-12.913 61.072-4.442 123.003-6.694 184.072-6.694s123 2.252 184.072 6.695c7.12.517 12.899 5.949 13.742 12.915 10.591 87.455 10.591 176.143 0 263.6-.842 6.965-6.622 12.396-13.742 12.914-61.069 4.441-123 6.693-184.072 6.693z"/></g><path d="m444.13 344.96c-.29 2.34-2.29 4.17-4.77 4.35-12.6.92-25.23 1.74-37.89 2.46-13.13.76-26.27 1.42-39.43 1.96-2.58.12-5.16.22-7.74.32-32.83 1.29-65.69 1.93-98.3 1.93-60.84 0-122.53-2.24-183.37-6.67-2.47-.18-4.47-2.01-4.76-4.35-10.5-86.68-10.5-174.58 0-261.26.29-2.34 2.29-4.17 4.76-4.35 60.84-4.43 122.54-6.67 183.37-6.67 60.84 0 122.53 2.24 183.36 6.67 2.48.18 4.48 2.01 4.77 4.35 10.49 86.68 10.49 174.58 0 261.26z" fill="#90d8f9"/><g><g><path d="m437.75 295.447-8.266 4.119c-6.496 3.245-12.564 7.225-18.101 11.856-5.531 4.644-10.512 9.915-14.83 15.757-3.827 5.162-6.814 10.901-8.855 16.998l-9.316 27.822c-15.176-4.122-30.334-8.396-45.453-12.815l10.522-31.425c.829-2.475.329-5.173-1.214-7.272-.006-.013-.016-.016-.022-.028l-.009-.003-25.419-34.696c-.439-.611-.814-1.253-1.11-1.912-.826-1.848-1.095-3.847-.83-5.772.268-1.998 1.103-3.923 2.477-5.508.428-.49.906-.941 1.425-1.358.101-.082.225-.167.326-.249 2.415-1.764 5.316-2.365 8.047-1.893 2.615.443 5.06 1.863 6.755 4.171l13.033 17.799c.07-.272.134-.556.194-.831.378-1.634.713-3.294 1.003-4.948 1.087-6.269 1.582-12.631 1.446-19.025l-.315-14.775-.238-11.197c-.021-.977.091-1.91.307-2.808.178-.689.41-1.35.714-1.975 1.665-3.492 5.194-5.938 9.337-6.027 1.553-.039 3.042.27 4.388.847 1.606.685 3.008 1.756 4.094 3.111 1.414 1.76 2.278 3.969 2.319 6.397l.057 2.444.58 26.77 10.446-31.198c.384-1.147.945-2.193 1.652-3.106 2.499-3.244 6.752-4.826 10.874-3.815.205.048.398.102.61.162l.066.022c.209.07.417.14.613.216 3.056 1.171 5.257 3.701 6.211 6.678.271.829.444 1.699.496 2.581.112 1.398-.061 2.827-.527 4.221l-10.595 31.643 19.364-26.366c.963-1.301 2.173-2.331 3.511-3.053 3.224-1.725 7.222-1.726 10.498.267.24.133.471.295.701.456.035.022.06.041.092.073.796.583 1.497 1.261 2.081 2.005 2.216 2.83 2.834 6.623 1.656 10.014-.337.974-.828 1.906-1.468 2.778l-16.816 22.885 18.047-8.985c5.24-2.611 11.594-.484 14.195 4.753 2.615 5.23.484 11.593-4.753 14.195z" fill="#ffddce"/><g fill="#ffcbbe"><path d="m442.508 281.248c-1.777-3.567-14.526 2.987-22.625 7.623-3.57 2.044-8.12.443-9.618-3.388l18.043-8.991c5.236-2.605 11.593-.476 14.2 4.756z"/><path d="m424.717 247.73c-3.662-2.3-18.001 17.789-25.199 28.374-2.091 3.075-6.563 3.241-8.877.329l19.366-26.371c3.44-4.682 10.004-5.713 14.71-2.332z"/><path d="m370.791 269.022 10.445-31.195c1.828-5.459 7.67-8.444 13.139-6.761-3.092-.65-11.394 23.265-15.455 35.593-1.127 3.425-5.34 4.648-8.129 2.363z"/><path d="m376.815 307.024c-3.95-11.135-11.547-16.466-17.228-18.978-.832-.368-1.647-.686-2.435-.963-.583-14.44-1.945-56.958 2.203-57.635-5.848.124-10.483 4.967-10.359 10.815l.553 25.972c.176 8.361-.713 16.696-2.636 24.806 0 0 .236-.035.667-.073 2.943-.261 5.905.171 8.66 1.238 5.477 2.122 12.272 6.691 15.762 16.526.274.77.877 1.328 1.597 1.569.523.175 1.106.184 1.664-.014 1.329-.475 2.022-1.934 1.552-3.263z"/><path d="m348.079 338.313-7.709 23.024c-2.485-.705-4.963-1.43-7.441-2.154l10.522-31.425c.829-2.475.329-5.173-1.214-7.272-.006-.013-.016-.016-.022-.028l-.009-.003-25.419-34.696c-.439-.611-.814-1.253-1.11-1.912-.826-1.848-1.098-3.837-.833-5.763l.003-.009c.268-1.998 1.103-3.923 2.474-5.499 0 0 0 0 .003-.009.428-.49.906-.941 1.425-1.358.101-.082.225-.167.326-.249-1.25 1.121-.897 3.749.481 7.195 3.927 9.815 16.149 26.161 22.933 32.546 9.161 8.634 9.499 15.939 5.59 27.612z"/></g></g></g><path d="m463.37 406.13c-13.34 18.4-29.08 34.96-46.74 49.21h-321.26c-17.66-14.25-33.4-30.81-46.74-49.21z" fill="#cbe2ff"/><path d="m187.41 406.128h137.18l-.858 5.619c-.617 4.038-4.09 7.021-8.175 7.021h-119.114c-4.085 0-7.558-2.983-8.175-7.021z" fill="#ddeafb"/><g><path d="m311.428 345.819c-34.954 1.494-69.954 2.251-104.672 2.251s-69.728-.757-104.681-2.26c7.585-10.242 17.24-18.848 28.334-25.251 7.547-4.341 15.756-7.641 24.428-9.722 1.343-.322 2.695-.624 4.057-.879 2.563-.501 5.173-.889 7.812-1.163.766-.076 1.523-.151 2.289-.208 2.497-.208 5.031-.312 7.585-.312h60.346c3.338 0 6.629.17 9.873.511 2.639.274 5.239.671 7.821 1.154 1.021.208 2.043.416 3.055.643.34.095.681.161 1.002.246 8.682 2.09 16.881 5.391 24.428 9.731 11.102 6.402 20.758 15.017 28.323 25.259z" fill="#ffd064"/><path d="m116.043 206.061c0 15.308-11.182 28.001-25.826 30.357-1.601.259-3.247.395-4.926.395-16.988 0-30.752-13.764-30.752-30.752s13.764-30.752 30.752-30.752c1.68 0 3.325.135 4.926.395 14.643 2.356 25.826 15.049 25.826 30.357z" fill="#ffddce"/><path d="m116.043 206.061c0 15.308-11.182 28.001-25.826 30.357-2.66-9.672-4.081-19.851-4.081-30.357s1.42-20.685 4.081-30.357c14.643 2.356 25.826 15.049 25.826 30.357z" fill="#ffcbbe"/><circle cx="85.291" cy="206.061" fill="#ffcbbe" r="10.991"/><path d="m176.579 308.275c-16.626 0-29.147 18.394-34.594 38.926-13.297-.35-26.612-.813-39.909-1.39 7.585-10.242 17.24-18.848 28.334-25.251 7.547-4.341 15.756-7.641 24.428-9.722 1.343-.322 2.695-.624 4.057-.879 2.563-.501 5.173-.889 7.812-1.163.766-.076 1.523-.151 2.289-.208 2.495-.209 5.03-.313 7.583-.313z" fill="#ffc250"/><path d="m297.46 206.061c0 15.308 11.182 28.001 25.826 30.357 1.601.259 3.246.395 4.926.395 16.988 0 30.752-13.764 30.752-30.752s-13.764-30.752-30.752-30.752c-1.68 0-3.325.135-4.926.395-14.643 2.356-25.826 15.049-25.826 30.357z" fill="#ffddce"/><g fill="#ffcbbe"><path d="m297.46 206.061c0 15.308 11.182 28.001 25.826 30.357 2.66-9.672 4.081-19.851 4.081-30.357s-1.42-20.685-4.081-30.357c-14.643 2.356-25.826 15.049-25.826 30.357z"/><circle cx="328.212" cy="206.061" r="10.991"/><path d="m239.821 272.569v40.581c0 14.857-9.796 27.415-23.289 31.586-3.089.958-6.38 1.477-9.785 1.477-18.262 0-33.063-14.801-33.063-33.062v-40.581h66.137z"/></g><path d="m239.821 310.581v2.57c0 14.857-9.796 27.415-23.289 31.586-12.174-3.742-21.328-14.327-23.019-27.28 2.209.135 4.43.203 6.662.203 6.256 0 12.389-.496 18.363-1.477 7.361-1.184 14.474-3.077 21.283-5.602z" fill="#ffddce"/><path d="m321.17 189.715c0 56.938-41.596 104.17-96.054 112.94-5.975.981-12.107 1.477-18.363 1.477-63.194 0-114.417-51.223-114.417-114.417l9.74-116.486h206.191 12.903z" fill="#ffddce"/><path d="m226.906 302.355c-.592.104-1.191.207-1.79.303-5.976.976-12.107 1.472-18.364 1.472-63.191 0-114.416-51.217-114.416-114.416v-116.486h40.345v116.487c0 56.312 40.663 103.106 94.225 112.64z" fill="#ffcbbe"/><path d="m112.328 200.051h-19.992v-97.394l22.451-11.314 9.346 11.314z" fill="#365e7d"/><path d="m301.178 200.051h19.992v-147.567l-32.57 43.802z" fill="#365e7d"/><path d="m206.753 249.932c-9.581 0-19.161-2.401-27.895-7.202-2.463-1.354-3.363-4.449-2.008-6.912 1.354-2.464 4.45-3.362 6.912-2.008 14.396 7.914 31.586 7.914 45.981 0 2.462-1.354 5.558-.456 6.912 2.008 1.354 2.463.455 5.558-2.008 6.912-8.733 4.802-18.314 7.202-27.894 7.202z" fill="#eaac9d"/><path d="m219.732 215.736h-25.958c-3.092 0-5.599-2.507-5.599-5.599 0-3.092 2.507-5.599 5.599-5.599h25.958c3.092 0 5.599 2.507 5.599 5.599 0 3.092-2.507 5.599-5.599 5.599z" fill="#ffcbbe"/><g><path d="m225.498 184.278c0 12.695 10.291 22.986 22.986 22.986s22.986-10.291 22.986-22.986" fill="#ffcbbe"/><circle cx="248.485" cy="184.278" fill="#353a3d" r="16.484"/><circle cx="255.354" cy="181.37" fill="#fff" r="7.063"/><path d="m142.035 184.278c0 12.695 10.291 22.986 22.986 22.986s22.986-10.291 22.986-22.986" fill="#ffcbbe"/><circle cx="165.021" cy="184.278" fill="#353a3d" r="16.484"/><path d="m168.876 200.305c-1.235.303-2.529.459-3.853.459-9.104 0-16.486-7.381-16.486-16.486 0-9.104 7.381-16.486 16.486-16.486 1.324 0 2.618.155 3.853.459-7.248 1.731-12.625 8.254-12.625 16.027 0 7.774 5.377 14.297 12.625 16.027z" fill="#202326"/><path d="m252.34 200.305c-1.235.303-2.529.459-3.853.459-9.104 0-16.486-7.381-16.486-16.486 0-9.104 7.381-16.486 16.486-16.486 1.324 0 2.618.155 3.853.459-7.248 1.731-12.625 8.254-12.625 16.027 0 7.774 5.377 14.297 12.625 16.027z" fill="#202326"/><circle cx="171.89" cy="181.37" fill="#fff" r="7.063"/></g><path d="m350.404 0h-141.54c-20.172 0-36.525 16.353-36.525 36.525v35.555c0 16.887 13.69 30.577 30.577 30.577h64.066c46.073 0 83.422-37.349 83.422-83.422z" fill="#407093"/><path d="m205.547 72.081v-35.552c0-20.177 16.352-36.529 36.521-36.529h-33.201c-20.174 0-36.529 16.354-36.529 36.529v2.661c0 .475-.385.859-.859.859-.361 0-.677-.228-.801-.567-3.814-10.409-13.802-17.839-25.533-17.839-29.166 0-52.81 23.644-52.81 52.81v28.204h47.988c17.681 0 32.015-14.333 32.015-32.015v1.439c0 16.886 13.689 30.575 30.575 30.575h33.208c-16.884 0-30.574-13.69-30.574-30.575z" fill="#365e7d"/></g><path d="m491.19 357.26c-7.49 17.37-16.85 33.74-27.82 48.87h-414.74c-10.97-15.13-20.33-31.5-27.82-48.87l7.61-12.99h455.16z" fill="#ddeafb"/><path d="m324.59 406.128h-137.18l.858-5.619c.617-4.038 4.09-7.021 8.175-7.021h119.114c4.085 0 7.558 2.983 8.175 7.021z" fill="#cbe2ff"/><path d="m452.047 378.204v-5.253h-2.253l-7.796-15.993c-.799-1.64-2.464-2.68-4.288-2.68h-363.42c-1.824 0-3.489 1.04-4.288 2.68l-7.796 15.993h-2.294v6.345h.041c.27 2.277 2.178 4.222 4.735 4.222h382.624c2.96 0 5.052-2.603 4.735-5.314z" fill="#4a80aa"/><path d="m447.312 377.31h-382.624c-3.525 0-5.833-3.692-4.288-6.861l9.602-19.699c.799-1.64 2.464-2.68 4.288-2.68h363.42c1.824 0 3.489 1.04 4.288 2.68l9.602 19.699c1.545 3.169-.762 6.861-4.288 6.861z" fill="#cbe2ff"/></g></svg>