<svg id="Capa_1" enable-background="new 0 0 512 512" height="512" viewBox="0 0 512 512" width="512" xmlns="http://www.w3.org/2000/svg"><g><path d="m512 256c0 59.42-20.25 114.12-54.22 157.56-10.88 13.91-23.16-38.35-36.64-26.96-44.58 37.68-102.21 60.39-165.14 60.39-60.94 0-116.91-21.3-160.87-56.86-1.44-1.16-2.86-2.34-4.27-3.53-13.48-11.39-25.76 40.87-36.64 26.96-33.97-43.44-54.22-98.14-54.22-157.56 0-141.38 114.62-256 256-256s256 114.62 256 256z" fill="#90d8f9"/><path d="m457.78 195.15v218.41c-10.877 13.909-23.161 26.665-36.637 38.053-58.308 17.447-102.208 39.01-165.143 39.01s-110.751-30.449-165.143-39.01c-13.476-11.389-25.76-24.144-36.637-38.053v-218.41l22.4-17.03 179.38-136.35z" fill="#ddeafb"/><path d="m457.78 195.15v59.05l-201.78-153.38-201.78 153.38v-59.05l201.78-153.38z" fill="#cbe2ff"/><path d="m95.13 178.12v277.02c-15.16-12.26-28.89-26.21-40.91-41.58v-218.41l22.4-17.03z" fill="#cbe2ff"/><path d="m503.99 198.87-30.26 39.8-217.73-165.5-217.73 165.5-18.4-24.2-11.86-15.6 247.99-188.5 16.19 12.31z" fill="#dd5790"/><g><g><path d="m101.994 254.042h122.11v167.766h-122.11z" fill="#b1e4f9"/><path d="m224.104 254.042v4.925l-61.137 162.841h-55.834l62.981-167.766z" fill="#d3effb"/><g fill="#dd5790"><path d="m234.339 432.042h-142.588v-188.239h142.588zm-122.11-20.478h101.632v-147.283h-101.632z"/><path d="m101.99 304.116h122.11v20.478h-122.11z"/></g></g><g><path d="m287.903 254.042h122.11v167.766h-122.11z" fill="#b1e4f9"/><path d="m410.013 254.042v4.925l-61.137 162.841h-55.833l62.98-167.766z" fill="#d3effb"/><g fill="#dd5790"><path d="m420.249 432.042h-142.588v-188.239h142.588zm-122.11-20.478h101.632v-147.283h-101.632z"/><path d="m287.9 304.116h122.11v20.478h-122.11z"/></g></g></g><path d="m272.19 22.68-252.32 191.79-11.86-15.6 247.99-188.5z" fill="#da387d"/><path d="m421.14 451.61c-44.58 37.68-102.21 60.39-165.14 60.39-26.19 0-51.45-3.93-75.24-11.24-31.58-9.7-60.56-25.34-85.63-45.62-1.44-1.16-2.86-2.34-4.27-3.53 6.68-15.02 21.74-25.49 39.24-25.49 18 0 33.41 11.08 39.79 26.79 6.68-4.29 14.63-6.79 23.16-6.79s16.48 2.5 23.16 6.79c6.38-15.71 21.79-26.79 39.79-26.79s33.41 11.08 39.79 26.79c6.68-4.29 14.63-6.79 23.16-6.79s16.48 2.5 23.16 6.79c6.38-15.71 21.79-26.79 39.79-26.79 17.5 0 32.56 10.47 39.24 25.49z" fill="#95d6a4"/><path d="m216.21 452.91c-19.79-12.1-49.19 16.48-35.45 47.85-31.58-9.7-60.56-25.34-85.63-45.62-1.44-1.16-2.86-2.34-4.27-3.53 6.68-15.02 21.74-25.49 39.24-25.49 18 0 33.41 11.08 39.79 26.79 6.68-4.29 14.63-6.79 23.16-6.79s16.48 2.5 23.16 6.79z" fill="#78c2a4"/></g></svg>