<svg id="Capa_1" enable-background="new 0 0 512 512" height="512" viewBox="0 0 512 512" width="512" xmlns="http://www.w3.org/2000/svg"><g><path d="m512 256c0 37.15-7.91 72.44-22.15 104.3-13.53 30.31-93.256 49.69-93.256 49.69s8.845 54.72-6.995 64.42c-.01 0-.01 0-.01 0-38.889 23.84-84.629 37.59-133.589 37.59s-94.69-13.74-133.58-37.59c0 0 0 0-.01 0-15.84-9.71-34.517-87.555-34.517-87.555s-56.973-6.905-65.743-26.555c-14.24-31.86-22.15-67.15-22.15-104.3 0-141.38 114.62-256 256-256s256 114.62 256 256z" fill="#5e54ac"/><path d="m174.661 266.159-39.013-164.743 46.625-13.217v-64.683l73.553 9.774 76.791-33.29v124.38l59.947 15.224-51.383 144.232" fill="#ddeafb"/><path d="m207.965 243.322 15.225-101.404 13.321 113.984z" fill="#cbe2ff"/><path d="m300.968 13.72-29.968 276.884-15.174-257.314z" fill="#cbe2ff"/><path d="m489.85 360.3c-13.534 30.308-32.789 57.503-56.392 80.209-6.659 6.406-55.895.734-55.895.734s19.956 28.314 12.036 33.168c-89.06 3.13-178.13 3.13-267.19 0-8.73-5.352 13.238-35.071 13.238-35.071s-51.119 6.916-57.095 1.168c-8.305-7.988-16.072-16.53-23.243-25.567-13.21-16.65-24.39-34.99-33.16-54.64-.45-34.12 2.2-68.24 7.93-102.36 2.2-13.13 13.23-22.97 26.52-23.67 5.98-.31 11.96-.61 17.94-.89 75.474-3.6 185.984 26.449 185.984 26.449s131.441-28.62 176.937-26.45c5.98.28 11.96.58 17.94.89 13.29.7 24.32 10.54 26.52 23.67 5.73 34.12 8.38 68.24 7.93 102.36z" fill="#95d6a4"/><path d="m73.03 233.45c-6.52 4.47-11.2 11.47-12.58 19.7-9.07 53.93-10.78 107.86-5.14 161.79-13.21-16.65-24.39-34.99-33.16-54.64-.45-34.12 2.2-68.24 7.93-102.36 2.2-13.13 13.23-22.97 26.52-23.67 5.48-.28 10.95-.56 16.43-.82z" fill="#78c2a4"/><path d="m332.617 124.38v78.026l59.947-62.802z" fill="#cbe2ff"/><path d="m182.273 88.199v82.599l-24.022-75.789z" fill="#cbe2ff"/><g fill="#ffd064"><path d="m437.46 233.38c-1.02 11.53-2.51 23.06-4.45 34.59-1.72 10.29-10.36 18-20.78 18.54-104.15 5.46-208.31 5.46-312.46 0-10.42-.54-19.06-8.25-20.78-18.54-1.94-11.53-3.43-23.06-4.45-34.59 120.97-5.77 241.95-5.77 362.92 0z"/><path d="m433.45 440.5c-13.31 12.83-28.01 24.21-43.85 33.91-.01 0-.01 0-.01 0-89.06 3.13-178.11 3.13-267.17 0 0 0 0 0-.01 0-15.84-9.71-30.54-21.09-43.86-33.9.14-.89.29-1.78.44-2.67 1.72-10.29 10.36-18 20.78-18.54 104.15-5.46 208.31-5.46 312.46 0 10.42.54 19.06 8.25 20.78 18.54.15.89.3 1.77.44 2.66z"/></g></g></svg>