<svg id="Capa_1" enable-background="new 0 0 512 512" height="512" viewBox="0 0 512 512" width="512" xmlns="http://www.w3.org/2000/svg"><g><path d="m40.31 393.94c-.01-.01-.02-.03-.02-.04-25.5-39.8-40.29-87.13-40.29-137.9 0-77.55 34.49-147.06 88.97-194 6.14-5.3 12.53-10.3 19.17-15 0-.01.01-.01.01-.01 41.76-29.59 92.77-46.99 147.85-46.99 141.38 0 256 114.62 256 256 0 39.08-8.76 76.12-24.43 109.26" fill="#5e54ac"/><g><path d="m488.85 330.78c0 11.71-.44 23.22-1.28 34.48-9.98 21.11-22.76 40.64-37.88 58.11-2.75 3.2-5.59 6.32-8.51 9.38-13.405 14.044-28.393 26.565-44.676 37.277-27.566 18.135-63.238.446-96.846 6.833-12.04-3.8-23.78-8.8-35.04-15.01-20.15-42.82-28.018-68.88-28.018-131.06 0-74.39 17.54-140.92 45.14-185.24 21.91-35.2 50.15-56.38 80.98-56.38 30.84-.01 59.08 21.19 80.99 56.38 27.6 44.32 45.14 110.86 45.14 185.23z" fill="#da8f35"/><g fill="#c47528"><path d="m362.717 89.164c-13.858 0-26.733 15.645-37.354 42.367-17.308 43.563-28.66 116.559-28.659 199.253.004 49.62 4.09 95.745 11.1 134.112 3.959 21.666-18.987 38.427-38.312 27.86-.159-.087-.317-.174-.476-.261-20.148-42.818-32.416-99.514-32.416-161.706 0-74.386 17.545-140.909 45.136-185.235 0 0 0 0 .005-.005 21.908-35.196 50.148-56.385 80.976-56.385z"/><g><path d="m451.845 220.32c0-23.637-39.901-42.799-89.122-42.799s-89.122 19.162-89.122 42.799"/><path d="m451.845 326.533c0-23.637-39.901-42.799-89.122-42.799s-89.122 19.162-89.122 42.799"/><path d="m449.69 423.37c-2.75 3.2-5.59 6.32-8.51 9.38h-167.58c0-23.64 39.9-42.8 89.12-42.8 42.51 0 78.07 14.29 86.97 33.42z"/></g><circle cx="448.941" cy="247.335" r="8.665"/><circle cx="460.51" cy="271.645" r="8.665"/><circle cx="333.704" cy="152.747" r="8.665"/><circle cx="440.276" cy="271.645" r="8.665"/></g></g><g><path d="m289.26 215.11c-.59 36.06-8.23 122.34-52.87 296.15-82.39-6.24-153.89-51.49-196.08-117.32-20.51-97.53-24.84-152.04-25.27-178.83-.2-12.45 4.07-24.56 12.16-34.03 20.02-23.4 44.81-60.39 56.39-96.58.07-.19.13-.39.19-.58 2.33-7.38 4.12-14.73 5.19-21.92.77-5.1 1.18-10.12 1.18-15.01h124c0 11.79 2.37 24.31 6.37 36.93.06.19.12.39.19.58 11.58 36.19 36.36 73.18 56.39 96.58 8.08 9.47 12.36 21.58 12.16 34.03z" fill="#ddeafb"/><path d="m83.46 215.11c.25 32.47 3.39 105.64 20.33 246.74-25.06-18.57-46.62-41.59-63.48-67.91-.01-.01-.02-.03-.02-.04-20.49-97.5-24.83-152-25.26-178.79-.2-12.44 4.07-24.55 12.17-34.02 24.22-28.32 55.4-76.48 61.77-119.09.77-5.1 1.18-10.11 1.18-15h30.93c0 45.81-17.95 102.38-31.52 134.09-4.07 9.47-6.21 21.58-6.1 34.02z" fill="#cbe2ff"/><path d="m220.71 84.5h-137.12c.07-.19.13-.39.19-.58 3.99-12.62 6.37-25.14 6.37-36.93h124c0 11.79 2.37 24.31 6.37 36.93.06.19.12.39.19.58z" fill="#cbe2ff"/><path d="m215.847 24.924h-127.4c-11.272 0-20.411 9.138-20.411 20.411 0 11.272 9.138 20.411 20.411 20.411h127.4c11.272 0 20.411-9.138 20.411-20.411-.001-11.273-9.139-20.411-20.411-20.411z" fill="#b1e4f9"/><path d="m119.074 59.767c3.694 3.693 8.797 5.979 14.432 5.979h-45.06c-5.635 0-10.738-2.285-14.432-5.979s-5.979-8.797-5.979-14.432c0-11.271 9.14-20.41 20.411-20.41h45.06c-11.271 0-20.411 9.139-20.411 20.41.001 5.635 2.286 10.738 5.979 14.432z" fill="#90d8f9"/><g fill="#b1e4f9"><path d="m121.992 299.27c-4.27.82-8.415-1.988-9.235-6.269l-3.524-18.439-5.343 18.754c-.032.084-.052.179-.084.274-1.199 3.681-4.607 6.174-8.488 6.195h-.042c-3.524 0-6.679-2.041-8.131-5.186-.137-.295-.263-.61-.368-.926-.031-.095-.063-.19-.095-.284l-5.533-18.775-3.313 18.312c-.768 4.281-4.87 7.132-9.161 6.364-4.281-.779-7.131-4.881-6.364-9.172l8.415-46.586c.789-4.091 4.165-7.068 8.225-7.342 1.799-.116 3.534.305 5.017 1.147 1.872 1.062 3.355 2.798 4.081 4.954.032.084.063.179.084.273l7.026 23.814 6.763-23.74c.032-.084.053-.179.084-.274 1.262-3.871 4.965-6.416 9.046-6.185 4.06.232 7.468 3.177 8.278 7.163l8.92 46.701c.821 4.283-1.987 8.406-6.258 9.227z"/><path d="m186.888 283.968c-.015 0-.03 0-.045 0-2.977.017-6.106.029-8.818.035v-39.945c0-4.357-3.531-7.889-7.889-7.889-4.357 0-7.889 3.532-7.889 7.889v47.798c0 3.844 2.77 7.129 6.56 7.776.563.096.917.157 6.334.157 2.586 0 6.325-.014 11.791-.044 4.356-.025 7.869-3.576 7.845-7.933-.026-4.341-3.552-7.844-7.889-7.844z"/><path d="m239.686 286.22-19.872-19.172 18.035-16.577c3.208-2.949 3.418-7.939.469-11.146-2.948-3.208-7.938-3.418-11.146-.47l-12.507 11.496v-6.291c0-4.357-3.531-7.889-7.889-7.889-4.357 0-7.889 3.532-7.889 7.889v47.838c0 4.357 3.531 7.889 7.889 7.889 4.357 0 7.889-3.532 7.889-7.889v-7.894l14.066 13.571c1.531 1.477 3.505 2.212 5.476 2.212 2.067 0 4.13-.807 5.678-2.411 3.026-3.137 2.937-8.131-.199-11.156z"/><path d="m144.777 236.17c-4.357 0-7.889 3.532-7.889 7.889v47.838c0 4.357 3.531 7.889 7.889 7.889s7.889-3.532 7.889-7.889v-47.838c0-4.357-3.531-7.889-7.889-7.889z"/></g><path d="m87.145 294.6c-.137-.295-.263-.61-.368-.926-.031-.095-.063-.19-.095-.284l-5.533-18.775-3.313 18.312c-.768 4.281-4.87 7.132-9.161 6.364-4.281-.779-7.131-4.881-6.364-9.172l8.415-46.586c.789-4.091 4.165-7.068 8.225-7.342 1.799-.116 3.534.305 5.017 1.147.505 14.642 1.473 33.48 3.177 57.262z" fill="#90d8f9"/></g><g><path d="m397.98 452.94c0 5.82-.5 11.53-1.48 17.08-27.56 18.14-58.84 31.1-92.45 37.48-15.56 2.95-31.63 4.5-48.05 4.5-6.6 0-13.14-.25-19.61-.74-6.14-.47-12.22-1.15-18.23-2.04-11.1-15.96-17.61-35.36-17.61-56.28 0-54.52 44.2-136.35 98.71-136.35 54.52 0 98.72 81.83 98.72 136.35z" fill="#ddeafb"/><path d="m245.72 452.94c0 22.15 3.96 42.59 10.64 59.06h-.36c-6.6 0-13.14-.25-19.61-.74-6.14-.47-12.21-1.15-18.22-2.04h-.01c-11.1-15.96-17.61-35.36-17.61-56.28 0-54.28 43.83-135.65 98.02-136.33-29.24 1.27-52.85 82.25-52.85 136.33z" fill="#cbe2ff"/></g></g></svg>