<svg id="Capa_1" enable-background="new 0 0 512 512" height="512" viewBox="0 0 512 512" width="512" xmlns="http://www.w3.org/2000/svg"><g><path d="m512 256c0 31.81-5.8 62.26-16.41 90.36-9.47 25.12-77.017 11.431-93.458 32.071-14.46 18.17-31.34 34.32-50.16 47.97-17.44 12.66-36.54 23.17-56.91 31.15-5.37 2.1-10.83 4.02-16.36 5.76-24.28 7.65-50.13 11.77-76.93 11.77-9.04 0-17.96-.47-26.76-1.39-7.36-.76-14.62-1.83-21.77-3.2-4.15-.8-8.27-1.7-12.34-2.7l51.366-17.752c-56.6-13.8-83.891-66.488-118.741-110.928-30.13-38.41-68.587-10.93-72.697-62.47-.01-.01-.01-.02 0-.03-.55-6.801-.83-13.671-.83-20.611 0-141.38 114.62-256 256-256s256 114.62 256 256z" fill="#5e54ac"/><g><path d="m147.665 105.666h50.887v92.571h-50.887z" fill="#cbe2ff"/><path d="m333.41 451.941c-5.37 2.1 5.05 46.549-.48 48.289-24.28 7.65-50.13 11.77-76.93 11.77-9.037 0-17.965-.468-26.761-1.382-5.195-.54-9.063-13.658-14.161-14.503-6.304-1.046-13.811 10.101-19.951 8.604-105.531-25.742-185.435-116.903-194.297-228.079.07-.98.14-1.96.22-2.94 1.87-23.78 20.59-42.83 44.35-44.99 85.14-7.73 170.28-7.73 255.42 0 23.76 2.16 42.48 21.21 44.35 44.99 2.41 30.626 4.042 62.119 4.897 93.756 1.154 42.667-14.986 43.067-16.657 84.485z" fill="#95d6a4"/><path d="m79.28 226.05c-10.6 8.88-17.65 21.83-18.8 36.45-3.96 50.44-5.97 100.9-6.03 151.34-30.13-38.41-49.51-85.66-53.62-137.2-.01-.01-.01-.02 0-.03.07-.97.14-1.94.22-2.91 1.87-23.78 20.59-42.83 44.34-44.99 11.3-1.02 22.59-1.91 33.89-2.66z" fill="#78c2a4"/><g><path d="m248.765 228.723h-151.312c-10.769 0-19.498-8.73-19.498-19.498v-21.973c0-10.769 8.73-19.498 19.498-19.498h151.312c10.769 0 19.498 8.73 19.498 19.498v21.973c0 10.769-8.73 19.498-19.498 19.498z" fill="#ddeafb"/><path d="m149.465 228.721h-52.01c-10.77 0-19.5-8.73-19.5-19.5v-21.97c0-10.77 8.73-19.5 19.5-19.5h52.01c-10.76 0-19.49 8.73-19.49 19.5v21.97c0 10.77 8.73 19.5 19.49 19.5z" fill="#cbe2ff"/></g><g><path d="m223.504 13.72h-102.861c-10.177 0-18.428 8.25-18.428 18.428v92.232h139.716v-92.232c0-10.177-8.25-18.428-18.427-18.428z" fill="#ddeafb"/><path d="m162.505 13.718c-10.18 0-18.43 8.25-18.43 18.43v92.231h-41.86v-92.231c0-10.18 8.25-18.43 18.42-18.43z" fill="#cbe2ff"/></g><path d="m339.805 98.2h-24v-33.655c0-7.087-5.766-12.853-12.853-12.853h-132.915v-24h132.915c20.32 0 36.853 16.532 36.853 36.853z" fill="#ddeafb"/><g><path d="m314.952 51.692h-12c7.087 0 12.853 5.766 12.853 12.853v33.655h12v-33.655c0-7.087-5.766-12.853-12.853-12.853z" fill="#cbe2ff"/></g><path d="m241.931 136.379h-139.716c-6.627 0-12-5.373-12-12s5.373-12 12-12h139.716c6.627 0 12 5.373 12 12s-5.373 12-12 12z" fill="#ddeafb"/><path d="m143.875 136.379h-41.66c-6.63 0-12-5.37-12-12s5.37-12 12-12h41.66c-6.63 0-12 5.37-12 12s5.37 12 12 12z" fill="#cbe2ff"/></g><path d="m495.59 346.36c-27.59 73.12-87.68 130.28-162.66 153.87-23.44-.09-46.89-.62-70.34-1.6-41.38-1.73-74.62-34.77-76.65-76.13-1.11-22.51-1.11-45.02 0-67.53 2.03-41.37 35.27-74.4 76.65-76.13 52.41-2.19 104.82-2.19 157.23 0 38.47 1.61 69.91 30.26 75.77 67.52z" fill="#dd5790"/><path d="m269.987 498.906c-2.47-.09-4.93-.19-7.4-.29-41.38-1.72-74.62-34.76-76.65-76.12-1.11-22.51-1.11-45.02 0-67.53 2.03-41.37 35.27-74.4 76.65-76.13 2.47-.1 4.93-.2 7.4-.29-32.74 9.96-56.87 39.62-58.62 75.25-1.15 23.29-1.15 46.58 0 69.87 1.75 35.621 25.88 65.28 58.62 75.24z" fill="#da387d"/><path d="m456.36 415.35c-14.46 18.17-31.34 34.32-50.16 47.97-48.57 2.08-97.14 1.83-145.72-.74-17.34-.92-31.48-14.36-33.18-31.65-2.77-28.13-2.77-56.27 0-84.4 1.7-17.28 15.84-30.73 33.18-31.64 53.82-2.85 107.64-2.85 161.45 0 17.34.91 31.49 14.36 33.19 31.64 2.25 22.94 2.67 45.88 1.24 68.82z" fill="#da387d"/><g fill="#dd5790"><path d="m378.912 363.681c-.02-.053-.04-.106-.062-.159-1.072-2.608-3.585-4.293-6.405-4.293-.002 0-.005 0-.007 0-2.822.003-5.336 1.693-6.404 4.305-.018.044-.035.088-.052.131l-17.76 46.629c-1.151 3.021.366 6.403 3.386 7.554 3.021 1.149 6.403-.365 7.554-3.387l2.987-7.843h20.454l2.953 7.826c.884 2.344 3.112 3.789 5.477 3.788.687 0 1.386-.122 2.066-.378 3.024-1.141 4.551-4.519 3.409-7.543zm-12.303 31.232 5.815-15.267 5.762 15.267z"/><path d="m270.267 383.612c-5.819-2.146-11.236-4.484-12.889-5.208-1.316-1.053-1.272-2.524-1.184-3.136.121-.846.735-2.913 3.803-3.837 6.71-2.02 12.917 2.897 13.072 3.021 2.474 2.051 6.145 1.725 8.216-.74 2.08-2.475 1.761-6.167-.714-8.248-.446-.375-11.062-9.128-23.95-5.243-6.508 1.96-11.111 7.089-12.014 13.384-.848 5.905 1.712 11.584 6.68 14.823.258.169.53.316.812.442.274.122 6.785 3.021 14.118 5.726 2.088.77 6.874 2.945 6.238 6.504-.476 2.667-3.718 5.426-8.319 5.426-4.717 0-9.257-1.902-12.144-5.088-2.172-2.396-5.874-2.577-8.268-.406-2.396 2.171-2.578 5.873-.407 8.268 5.07 5.594 12.853 8.934 20.819 8.934 9.939 0 18.285-6.34 19.844-15.075 1.172-6.572-1.814-15.157-13.713-19.547z"/><path d="m421.156 359.23h-13.17c-1.556 0-3.047.619-4.146 1.721-1.098 1.102-1.713 2.596-1.708 4.151 0 .001.03 9.093.033 12.71-.021.203-.033.409-.033.618v33.949c0 3.233 2.62 5.854 5.854 5.854 3.233 0 5.854-2.621 5.854-5.854v-14.722c2.665-.014 5.616-.026 7.316-.026 10.731 0 19.462-8.613 19.462-19.201s-8.731-19.2-19.462-19.2zm0 26.694c-1.688 0-4.603.013-7.256.026-.014-2.744-.027-5.785-.027-7.519 0-1.471-.008-4.62-.016-7.493h7.299c4.203 0 7.755 3.432 7.755 7.493-.001 4.061-3.552 7.493-7.755 7.493z"/><path d="m318.238 359.23c-16.267 0-29.502 13.234-29.502 29.502s13.235 29.502 29.502 29.502 29.501-13.234 29.501-29.502-13.233-29.502-29.501-29.502zm0 47.296c-9.812 0-17.795-7.982-17.795-17.794s7.982-17.794 17.795-17.794c9.812 0 17.794 7.982 17.794 17.794s-7.982 17.794-17.794 17.794z"/></g><g><circle cx="435.373" cy="273.178" fill="#ddeafb" r="19.723"/><path d="m440.978 292.09c-1.771.53-3.654.809-5.607.809-10.893 0-19.721-8.829-19.721-19.721s8.828-19.721 19.721-19.721c1.952 0 3.835.279 5.607.809-8.159 2.413-14.128 9.972-14.128 18.912s5.969 16.499 14.128 18.912z" fill="#cbe2ff"/></g><g><circle cx="465.593" cy="281.856" fill="#ddeafb" r="19.723"/><path d="m471.198 300.769c-1.771.53-3.654.809-5.607.809-10.893 0-19.721-8.829-19.721-19.721s8.828-19.721 19.721-19.721c1.952 0 3.835.279 5.607.809-8.159 2.413-14.128 9.972-14.128 18.912s5.969 16.499 14.128 18.912z" fill="#cbe2ff"/></g><g><circle cx="435.361" cy="301.578" fill="#ddeafb" r="19.723"/><path d="m440.966 320.49c-1.771.53-3.654.809-5.607.809-10.893 0-19.721-8.829-19.721-19.721 0-10.893 8.828-19.721 19.721-19.721 1.952 0 3.835.279 5.607.809-8.159 2.413-14.128 9.972-14.128 18.912s5.969 16.499 14.128 18.912z" fill="#cbe2ff"/></g><g><circle cx="213.797" cy="470.853" fill="#ddeafb" r="19.723"/><path d="m219.403 489.766c-1.771.53-3.654.809-5.607.809-10.893 0-19.721-8.829-19.721-19.721s8.828-19.721 19.721-19.721c1.952 0 3.835.279 5.607.809-8.159 2.413-14.128 9.972-14.128 18.912-.001 8.94 5.968 16.499 14.128 18.912z" fill="#cbe2ff"/></g><g><path d="m233.52 498.36c0 4.63-1.6 8.89-4.28 12.25-11.62-1.2-23.01-3.18-34.11-5.9-.69-1.99-1.06-4.13-1.06-6.35 0-10.9 8.83-19.73 19.73-19.73 10.89 0 19.72 8.83 19.72 19.73z" fill="#ddeafb"/><path d="m205.27 498.36c0 3.26.79 6.34 2.2 9.05-4.15-.8-8.27-1.7-12.34-2.7h-.01c-.68-1.99-1.05-4.13-1.05-6.35 0-10.9 8.83-19.72 19.73-19.72 1.95 0 3.83.27 5.6.8-8.16 2.42-14.13 9.98-14.13 18.92z" fill="#cbe2ff"/></g><g><circle cx="236.277" cy="484.436" fill="#ddeafb" r="19.723"/><path d="m241.883 503.349c-1.771.53-3.654.809-5.607.809-10.893 0-19.721-8.829-19.721-19.721 0-10.893 8.828-19.721 19.721-19.721 1.952 0 3.835.279 5.607.809-8.159 2.413-14.128 9.972-14.128 18.912-.001 8.94 5.968 16.499 14.128 18.912z" fill="#cbe2ff"/></g><g><circle cx="327.805" cy="470.854" fill="#ddeafb" r="19.723"/><path d="m333.41 489.766c-1.771.53-3.654.809-5.607.809-10.893 0-19.721-8.829-19.721-19.721 0-10.893 8.828-19.721 19.721-19.721 1.952 0 3.835.279 5.607.809-8.159 2.413-14.128 9.972-14.128 18.912s5.969 16.499 14.128 18.912z" fill="#cbe2ff"/></g></g></svg>