<svg id="Capa_1" enable-background="new 0 0 512 512" height="512" viewBox="0 0 512 512" width="512" xmlns="http://www.w3.org/2000/svg"><g><path d="m512 256c0 64.343-23.738 123.141-62.933 168.116-86.232-19.31-116.025 38.417-193.067 38.417s-108.213-70.414-193.067-38.417c-39.195-44.975-62.933-103.773-62.933-168.116 0-141.385 114.615-256 256-256s256 114.615 256 256z" fill="#524798"/><path d="m249.68 11.73v500.2c-74.49-1.81-141.1-35.44-186.74-87.82-4.58-113.38-3.42-226.76 3.47-340.14 1.16-19.28 2.5-38.55 4-57.83 33.2-5.16 66.4-8.94 99.6-11.33 26.56-1.91 53.11-2.94 79.67-3.08z" fill="#cbe2ff"/><path d="m449.06 424.11c-39.57 45.42-94.91 76.74-157.49 85.44v-497.3c16.83.5 33.65 1.36 50.48 2.58 33.18 2.38 66.36 6.15 99.54 11.31 1.5 19.28 2.84 38.55 4 57.83 6.89 113.38 8.05 226.76 3.47 340.14z" fill="#ddeafb"/><path d="m441.592 26.142-38.293 35.785-129.004 57.904-165.594-57.904-38.293-35.785c123.731-19.233 247.453-19.233 371.184 0z" fill="#ddeafb"/><path d="m406.4 463.17c-33.15 24.12-72.32 40.47-114.83 46.38-11.62 1.61-23.5 2.45-35.57 2.45-2.11 0-4.22-.03-6.32-.07-53.77-1.31-103.44-19.2-144.08-48.76-6.98-133.52-5.94-268.02 3.1-401.25 49.06-6.25 98.46-9.41 147.3-9.41s98.24 3.16 147.3 9.41c9.04 133.23 10.08 267.73 3.1 401.25z" fill="#cbe2ff"/><path d="m385.63 476.79c-28.31 16.67-60.12 28.04-94.06 32.76-11.62 1.61-23.5 2.45-35.57 2.45-2.11 0-4.22-.03-6.32-.07-44.92-1.09-86.99-13.76-123.31-35.14-7.48-131.92-7.07-265.22 1.21-396.99 42.82-4.84 85.94-7.29 128.42-7.29s85.6 2.45 128.42 7.29c8.28 131.77 8.69 265.07 1.21 396.99z" fill="#ddeafb"/><path d="m328.897 381.027h30.813c11.895 0 21.538-9.643 21.538-21.538v-71.346c0-11.895-9.643-21.538-21.538-21.538h-30.813c-11.895 0-21.538 9.643-21.538 21.538v71.346c.001 11.895 9.643 21.538 21.538 21.538z" fill="#cbe2ff"/><path d="m260.085 321.829 88.883 4.294c9.308.45 17.102-6.976 17.102-16.295 0-9.319-7.793-16.745-17.102-16.295l-88.883 4.294c-6.403.309-11.435 5.591-11.435 12.001 0 6.41 5.032 11.692 11.435 12.001z" fill="#4a80aa"/><circle cx="344.304" cy="349.178" fill="#4a80aa" r="11.565"/><g><circle cx="256" cy="177.758" fill="#dd5790" r="68.59"/><circle cx="256" cy="177.758" fill="#fff" r="47.241"/><path d="m227.902 167.767h56.196v19.982h-56.196z" fill="#dd5790"/></g></g></svg>