<svg id="Capa_1" enable-background="new 0 0 512 512" height="512" viewBox="0 0 512 512" width="512" xmlns="http://www.w3.org/2000/svg"><g><path d="m512 256c0 22.26-2.84 43.86-8.19 64.46-3.168 12.217-63.801-5.424-68.658 6.013-5.631 13.26 44.237 55.452 36.548 67.457-45.5 71.01-125.11 118.07-215.7 118.07s-170.2-47.06-215.7-118.07c-3.42-5.33 36.286-43.145 33.266-48.745-9.65-17.85-60.166-4.615-65.376-24.695 0-.01 0-.01 0-.01-5.35-20.6-8.19-42.21-8.19-64.48 0-14.96 1.28-29.62 3.76-43.87-.01-.01-.01-.01 0-.02 3.67-21.24 9.95-41.57 18.51-60.67 19.7-43.99 51.46-81.39 91.06-108.02 40.77-27.42 89.85-43.42 142.67-43.42s101.9 16 142.67 43.42c56.8 38.19 97.46 98.55 109.57 168.69 2.48 14.26 3.76 28.92 3.76 43.89z" fill="#5e54ac"/><g><path d="m358.402 464.922h-204.804l30.967-98.683h142.87z" fill="#cbe2ff"/><path d="m382.087 429.573h-252.174c-11.699 0-21.183 9.484-21.183 21.183 0 11.699 9.484 21.183 21.183 21.183h252.173c11.699 0 21.183-9.484 21.183-21.183 0-11.699-9.484-21.183-21.182-21.183z" fill="#ddeafb"/><path d="m159.8 465.735c3.839 3.839 9.136 6.208 14.98 6.208h-44.861c-5.857 0-11.14-2.369-14.98-6.208-3.839-3.826-6.208-9.136-6.208-14.98 0-11.7 9.488-21.174 21.188-21.174h44.861c-11.7 0-21.175 9.474-21.175 21.174 0 5.844 2.369 11.154 6.195 14.98z" fill="#cbe2ff"/><path d="m503.81 320.46c-6.84 26.38-17.79 51.11-32.11 73.47-143.81 10.21-287.59 10.21-431.4 0-14.32-22.35-25.27-47.08-32.11-73.45-3.24-36.13-4.71-72.25-4.43-108.37.36-46.66 3.65-93.33 9.87-140 1.76-13.2 12.5-23.38 25.78-24.33 24.64-1.76 49.28-3.21 73.92-4.36 95.12-4.48 190.22-4.48 285.34 0 24.64 1.15 49.28 2.6 73.92 4.36 13.28.95 24.02 11.13 25.78 24.33 6.21 46.68 9.51 93.33 9.87 140 .28 36.12-1.19 72.23-4.43 108.35z" fill="#ddeafb"/><path d="m22.27 151.44c-3.76 64.16-2.3 128.32 4.41 192.48 1.14 11.2 2.48 22.42 3.96 33.62-9.65-17.85-17.24-36.97-22.45-57.05 0-.01 0-.01 0-.01-3.24-36.12-4.71-72.23-4.43-108.35-.01-.01-.01-.01 0-.02.36-46.66 3.65-93.33 9.87-140 1.68-12.62 11.58-22.47 24.05-24.15-3.69 4.27-6.17 9.6-6.96 15.52-3.91 29.32-6.73 58.64-8.45 87.96z" fill="#cbe2ff"/><path d="m479.556 338.473c.129-1.208.265-2.425.39-3.626 8.991-86.162 7.727-173.564-3.758-259.777-.359-2.689-2.548-4.779-5.191-4.97-71.334-5.085-143.669-7.664-214.998-7.664-71.328 0-143.663 2.579-214.984 7.663-2.656.191-4.845 2.281-5.203 4.968-11.489 86.231-12.749 173.633-3.74 259.823.121 1.181.255 2.389.381 3.582 149.038 8.305 298.065 8.305 447.103.001z" fill="#407093"/></g><g><path d="m271.545 281.626c-10.101 3.271-20.988 3.271-31.089 0-4.38-1.418-7.366-5.473-7.366-10.076v-11.048c14.394 7.334 31.428 7.334 45.822 0v11.048c-.001 4.604-2.988 8.658-7.367 10.076z" fill="#ffc250"/><path d="m409.204 275.587h-306.408c-9.082 0-16.445-7.363-16.445-16.445v-184.869c0-9.082 7.363-16.445 16.445-16.445h306.408c9.082 0 16.445 7.363 16.445 16.445v184.869c0 9.082-7.363 16.445-16.445 16.445z" fill="#ffc250"/><path d="m409.204 263.816h-306.408c-9.082 0-16.445-7.363-16.445-16.445v-184.869c0-9.082 7.363-16.445 16.445-16.445h306.408c9.082 0 16.445 7.363 16.445 16.445v184.869c0 9.082-7.363 16.445-16.445 16.445z" fill="#ffd064"/><path d="m254.761 260.013s-35.924-14.522-138.712 0l-12.627-11.074 56.121-43.137 61.796-4.414 33.421 42.249" fill="#cbe2ff"/><path d="m254.761 260.013s35.924-14.522 138.712 0l12.627-11.073-56.121-43.137-61.796-4.414-33.421 42.249" fill="#cbe2ff"/><path d="m103.423 248.94c119.963-46.14 151.338 11.074 151.338 11.074l13.125-121.646-13.125-98.27s-31.375-57.213-151.338-11.074z" fill="#ddeafb"/><path d="m406.099 29.02v219.92c-58.708-22.584-96.203-20.411-119.178-12.306-16.08-16.08-32.16-2.245-32.16-2.245v-194.296s8.184-14.917 32.16-23.373c22.982-8.104 60.471-10.278 119.178 12.3z" fill="#ddeafb"/><path d="m286.921 16.72v219.914c-23.976 8.463-32.16 23.38-32.16 23.38v-219.921s8.184-14.917 32.16-23.373z" fill="#cbe2ff"/><g fill="#407093"><path d="m177.287 45.222c-16.578.941-34.805 4.488-54.387 10.552v14.539c30.494-9.872 67.804-16.742 97.603-6.139 8.034 2.859 14.034 6.453 18.387 9.811v-16.573c-3.602-2.069-7.714-4.048-12.386-5.794-14.166-5.294-30.726-7.446-49.217-6.396z"/><path d="m177.287 74.242c-16.578.941-34.805 4.488-54.387 10.552v14.539c30.494-9.872 67.804-16.742 97.603-6.139 8.034 2.859 14.034 6.453 18.387 9.811v-16.572c-3.602-2.069-7.714-4.048-12.386-5.794-14.166-5.295-30.726-7.446-49.217-6.397z"/><path d="m177.287 103.263c-16.578.941-34.805 4.488-54.387 10.552v14.539c30.494-9.872 67.804-16.742 97.603-6.139 8.034 2.859 14.034 6.453 18.387 9.811v-16.572c-3.602-2.069-7.714-4.048-12.386-5.794-14.166-5.295-30.726-7.447-49.217-6.397z"/><path d="m177.287 132.283c-16.578.941-34.805 4.488-54.387 10.552v14.539c30.494-9.872 67.804-16.742 97.603-6.139 8.034 2.859 14.034 6.453 18.387 9.811v-16.572c-3.602-2.069-7.714-4.048-12.386-5.794-14.166-5.295-30.726-7.446-49.217-6.397z"/><path d="m177.287 161.304c-16.578.941-34.805 4.488-54.387 10.552v14.539c30.494-9.872 67.804-16.742 97.603-6.139 8.034 2.859 14.034 6.453 18.387 9.811v-16.572c-3.602-2.069-7.714-4.048-12.386-5.794-14.166-5.295-30.726-7.447-49.217-6.397z"/><g><path d="m332.236 45.222c16.578.941 34.805 4.488 54.387 10.552v14.539c-30.494-9.872-67.804-16.742-97.603-6.139-8.034 2.859-14.033 6.453-18.387 9.811v-16.573c3.602-2.069 7.714-4.048 12.386-5.794 14.166-5.294 30.726-7.446 49.217-6.396z"/><path d="m332.236 74.242c16.578.941 34.805 4.488 54.387 10.552v14.539c-30.494-9.872-67.804-16.742-97.603-6.139-8.034 2.859-14.033 6.453-18.387 9.811v-16.572c3.602-2.069 7.714-4.048 12.386-5.794 14.166-5.295 30.726-7.446 49.217-6.397z"/><path d="m332.236 103.263c16.578.941 34.805 4.488 54.387 10.552v14.539c-30.494-9.872-67.804-16.742-97.603-6.139-8.034 2.859-14.033 6.453-18.387 9.811v-16.572c3.602-2.069 7.714-4.048 12.386-5.794 14.166-5.295 30.726-7.447 49.217-6.397z"/><path d="m332.236 132.283c16.578.941 34.805 4.488 54.387 10.552v14.539c-30.494-9.872-67.804-16.742-97.603-6.139-8.034 2.859-14.033 6.453-18.387 9.811v-16.572c3.602-2.069 7.714-4.048 12.386-5.794 14.166-5.295 30.726-7.446 49.217-6.397z"/><path d="m332.236 161.304c16.578.941 34.805 4.488 54.387 10.552v14.539c-30.494-9.872-67.804-16.742-97.603-6.139-8.034 2.859-14.033 6.453-18.387 9.811v-16.572c3.602-2.069 7.714-4.048 12.386-5.794 14.166-5.295 30.726-7.447 49.217-6.397z"/></g></g><path d="m234.495 21.703v59.88c-3.761-2.389-6.37-12.354-9.373-12.865-2.427-.413-9.307 4.582-11.717 3.965v-58.915c0-1.344 1.314-2.295 2.59-1.876l14.949 4.91c2.119.695 3.551 2.672 3.551 4.901z" fill="#dd5790"/></g></g></svg>