<svg id="Capa_1" enable-background="new 0 0 512 512" height="512" viewBox="0 0 512 512" width="512" xmlns="http://www.w3.org/2000/svg"><g><path d="m496.913 256.545c0 78.28-75.423 142.324-75.423 194.775-28.59 24.25-62.58 42.34-99.91 52.2-3.998 1.058-8.032-9.725-12.1-8.863-3.35.71-6.724 13.099-10.12 13.673-14.09 2.42-28.58 3.67-43.36 3.67-2.19 0-4.36-.03-6.54-.08-.726-.018-1.075-1.748-1.798-1.774-.86-.03-2.093 1.642-2.952 1.604-136.14-5.9-244.71-118.15-244.71-255.75 0-133.24 101.8-242.71 231.87-254.88 7.94-.74 18.973 12.692 27.113 12.692 141.38 0 237.93 101.353 237.93 242.733z" fill="#ffd064"/><path d="m512 256c0 78.28-35.14 148.36-90.51 195.32-4.45-1.74-8.77-3.91-12.91-6.49-1.99 3.02-4.31 5.89-6.96 8.55-21.13 21.12-55.37 21.12-76.49 0-10.31-10.31-15.55-23.75-15.8-37.25-20.6 3.41-42.48-2.8-58.38-18.69-24.56-24.57-26.05-63.47-4.48-89.78-6.78-3.2-13.14-7.6-18.75-13.21-26.16-26.16-26.16-68.56 0-94.72 13.73-13.73 31.93-20.24 49.92-19.56-4.83-14.97-4.23-31.29 1.74-45.94-21.05-7.56-36.79-26.88-38.62-50.63-1.18-15.33 3.67-29.74 12.53-40.9-11.86-7.76-20.15-20.71-21.32-35.94-.15-1.9-.18-3.78-.1-5.64 7.94-.74 15.99-1.12 24.13-1.12 141.38 0 256 114.62 256 256z" fill="#da8f35"/><g><path d="m259.62 259.3-41.61 41.62-2.22-2.22-43.78-43.78-163.39-163.39c-11.49-11.49-11.49-30.12 0-41.61s30.12-11.49 41.62 0l163.38 163.38 43.78 43.78z" fill="#95d6a4"/><path d="m17.004 44.044c-5.076 10.893-3.124 24.243 5.87 33.236l209.384 209.384-14.255 14.255-209.384-209.384c-11.494-11.494-11.487-30.127 0-41.614 2.508-2.508 5.35-4.46 8.385-5.877z" fill="#78c2a4"/><path d="m411.46 356.8c-16-23.54-42.36-25.42-42.36-25.42 35.31 44.71 24.01 78.61 24.01 78.61-11.29-25.42-34.83-34.83-34.83-34.83 9.92 22.31 12.04 42.95 10.82 60.03-1.97 27.83-12.8 46.18-13.17 46.8 6.11-28.7-18.45-52.14-18.45-52.14 0 26.65-7.11 52.23-15.9 73.67-7.29 1.93-14.7 3.54-22.22 4.81 1.9-44.67-10.56-83.09-10.56-83.09 0 35.55-25.09 69.99-39.34 86.68-1.59-.04-3.17-.1-4.75-.17 31.89-75.93-6.86-124.75-51.42-169.31l31.8-34.12 71.53-76.74c102.218 44.012 114.84 125.22 114.84 125.22z" fill="#ddeafb"/><path d="m309.48 304.961s-14.36-34.492-49.047-44.017l-18.652 17.864-4.322 2.07s32.282 7.612 43.736 34.89c0 0-1.481-19.023-14.526-34.293 13.776 2.815 30.428 9.214 42.811 23.486z" fill="#cbe2ff"/><path d="m355.93 481.99c6.11-28.7-18.45-52.14-18.45-52.14 0 26.65-7.11 52.23-15.9 73.67-7.29 1.93-14.7 3.54-22.22 4.81 1.9-44.67-10.56-83.09-10.56-83.09 0 35.55-25.09 69.99-39.34 86.68-1.59-.04-3.17-.1-4.75-.17 31.89-75.93-6.86-124.75-51.42-169.31l31.8-34.12c38.07 41.54 46.69 81.86 46.69 109.21 0 0 20.23-22.44 10.11-65.97 0 0 39.89 27.57 39.89 79.23 0 0 15.95-30.37 7.97-59.26 0 0 27.1 22.59 39.35 63.66-1.97 27.83-12.8 46.18-13.17 46.8z" fill="#cbe2ff"/><path d="m185.279 225.043h58.853v61.914h-58.853z" fill="#78c2a4" transform="matrix(.707 -.707 .707 .707 -118.137 226.84)"/><path d="m262.558 188.584-115.274 115.273c-12.089 12.089-12.089 31.689 0 43.777 12.089 12.089 31.689 12.089 43.777 0l115.273-115.273c12.089-12.089 12.089-31.689 0-43.777-12.087-12.089-31.687-12.089-43.776 0z" fill="#95d6a4"/><path d="m207.776 318.101c7.925 0 15.843-3.02 21.891-9.068l-38.601 38.601c-6.048 6.048-13.965 9.068-21.891 9.068-7.925 0-15.85-3.028-21.89-9.068-12.088-12.088-12.088-31.693 0-43.781l38.601-38.601c-12.088 12.088-12.088 31.693 0 43.781 6.04 6.04 13.965 9.068 21.89 9.068z" fill="#78c2a4"/></g><g fill="#c47528"><path d="m491.807 229.495c0-14.014-11.36-25.374-25.374-25.374s-25.375 11.361-25.375 25.374c0 3.922.891 7.635 2.479 10.95-17.402.287-31.423 14.475-31.423 31.945 0 17.65 14.309 31.959 31.959 31.959s31.959-14.308 31.959-31.959c0-6.617-2.011-12.764-5.455-17.864 12.041-1.979 21.23-12.429 21.23-25.031z"/><ellipse cx="281.451" cy="82.903" rx="16.404" ry="16.404" transform="matrix(.987 -.16 .16 .987 -9.645 46.154)"/><circle cx="376.362" cy="38.915" r="22.476"/><circle cx="377.094" cy="237.912" r="16.404"/><circle cx="215.854" cy="452.816" r="16.404"/><circle cx="468.364" cy="53.313" r="16.404"/><circle cx="451.96" cy="36.909" r="16.404"/><circle cx="444.073" cy="354.278" r="16.404"/><circle cx="174.158" cy="443.012" r="13.942"/><circle cx="219.548" cy="145.919" r="8.194"/><circle cx="183.943" cy="477.414" r="8.194"/><circle cx="302.388" cy="111.275" r="8.194"/><circle cx="208.007" cy="99.307" r="11.541"/><circle cx="390.89" cy="91.098" r="8.194"/><circle cx="476.558" cy="319.172" r="8.194"/><circle cx="170.781" cy="99.292" r="8.194"/><path d="m414.927 178.746c20.894 0 37.833-16.938 37.833-37.833 0-20.894-16.938-37.833-37.833-37.833-12.914 0-24.311 6.475-31.138 16.351-3.911-2.463-8.537-3.893-13.5-3.893-14.014 0-25.374 11.361-25.374 25.374 0 9.303 5.009 17.432 12.475 21.849-3.544 4.363-5.671 9.924-5.671 15.983 0 14.014 11.361 25.374 25.374 25.374 14.014 0 25.374-11.36 25.374-25.374 0-.722-.037-1.435-.097-2.142 3.932 1.384 8.155 2.144 12.557 2.144z"/></g></g></svg>