<svg id="Capa_1" enable-background="new 0 0 512 512" height="512" viewBox="0 0 512 512" width="512" xmlns="http://www.w3.org/2000/svg"><g><path d="m512 256c0 59.423-20.247 114.118-54.218 157.562-46.855 59.921-119.821 49.833-201.782 49.833s-154.927 10.087-201.782-49.834c-33.971-43.443-54.218-98.138-54.218-157.561 0-141.385 114.615-256 256-256s256 114.615 256 256z" fill="#90d8f9"/><path d="m457.78 195.15v218.41c-46.86 59.92-119.82 98.44-201.78 98.44s-154.92-38.52-201.78-98.44v-218.41l22.4-17.03 179.38-136.35z" fill="#ddeafb"/><path d="m457.78 195.15v59.05l-201.78-153.38-201.78 153.38v-59.05l201.78-153.38z" fill="#cbe2ff"/><path d="m95.13 178.12v277.02c-15.16-12.26-28.89-26.21-40.91-41.58v-218.41l22.4-17.03z" fill="#cbe2ff"/><path d="m503.99 198.87-30.26 39.8-217.73-165.5-217.73 165.5-18.4-24.2-11.86-15.6 247.99-188.5 16.19 12.31z" fill="#dd5790"/><path d="m272.19 22.68-252.32 191.79-11.86-15.6 247.99-188.5z" fill="#da387d"/><path d="m333.187 346.448h-154.374v-77.187c0-42.561 34.626-77.187 77.187-77.187s77.187 34.626 77.187 77.187zm-124.374-30h94.373v-47.187c0-26.019-21.168-47.187-47.187-47.187s-47.187 21.168-47.187 47.187v47.187z" fill="#407093"/><g fill="#365e7d"><path d="m268.687 222.075c-2.152 0-4.267.158-6.344.438 23.028 3.11 40.843 22.882 40.843 46.748v47.187h12.687v-47.187c.001-26.018-21.167-47.186-47.186-47.186z"/><path d="m262.344 192.357c-2.094-.171-4.206-.282-6.344-.282-42.561 0-77.187 34.626-77.187 77.187v77.187h12.687v-77.187c.001-40.423 31.242-73.665 70.844-76.905z"/></g><path d="m330.204 471.852c-49.469 3.784-98.938 3.784-148.408 0-12.184-.932-21.988-10.501-23.12-22.668-3.962-42.566-3.962-85.132 0-127.698 1.132-12.167 10.936-21.736 23.12-22.668 49.469-3.784 98.939-3.784 148.408 0 12.184.932 21.988 10.501 23.12 22.668 3.962 42.566 3.962 85.132 0 127.698-1.133 12.167-10.936 21.736-23.12 22.668z" fill="#5e54ac"/><path d="m192.286 472.586c-3.49-.22-6.99-.47-10.49-.74-12.18-.93-21.99-10.5-23.12-22.67-3.96-42.56-3.96-85.13 0-127.69 1.13-12.17 10.94-21.74 23.12-22.67 3.5-.27 7.01-.52 10.51-.75-7.03 4.2-11.94 11.56-12.74 20.15-4.17 44.74-4.17 89.49 0 134.23.8 8.59 5.7 15.94 12.72 20.14z" fill="#524798"/><path d="m234.897 435.702c-5.644 0-10.903-3.037-13.726-7.924s-2.823-10.961-.001-15.849l7.76-13.44c-4.661-5.987-7.298-13.446-7.298-21.153 0-18.95 15.417-34.368 34.368-34.368s34.368 15.417 34.368 34.368c0 7.707-2.637 15.166-7.298 21.153l7.76 13.439c2.822 4.889 2.822 10.962 0 15.85s-8.082 7.924-13.726 7.924z" fill="#524798"/><path d="m282.169 416.928-11.586-20.068c5.94-4.444 9.786-11.535 9.786-19.525 0-13.458-10.91-24.368-24.368-24.368s-24.368 10.91-24.368 24.368c0 7.99 3.845 15.081 9.786 19.525l-11.586 20.068c-2.251 3.899.563 8.774 5.065 8.774h42.206c4.502 0 7.316-4.875 5.065-8.774z" fill="#365e7d"/></g></svg>