<svg id="Capa_1" enable-background="new 0 0 512.001 512.001" height="512" viewBox="0 0 512.001 512.001" width="512" xmlns="http://www.w3.org/2000/svg"><g><path d="m512 256.001c0 52.94-16.07 102.12-43.59 142.94-25.89 38.39-104.22 7.594-104.22 7.594s-17.03 88.936-25.89 91.947c-25.83 8.77-53.51 13.52-82.3 13.52-141.38 0-256-114.62-256-256s114.62-256 256-256 256 114.619 256 255.999z" fill="#95d6a4"/><g><g><path d="m468.41 398.941c-31.02 46-76.59 81.38-130.11 99.54l-64.04-84.26 133.49-95.08z" fill="#ffddce"/><path d="m407.75 319.141-133.49 95.08-11.98-15.76-4.99-6.57c-5.49-7.21-14.19-11.06-23.25-10.7-.05-.02-.09-.01-.13-.01l-.02.01-149.27 5.31c-2.63.08-5.19-.11-7.67-.55-6.91-1.2-13.17-4.33-18.18-8.85-.36-.32-.71-.65-1.05-.98-4.24-4.1-7.49-9.2-9.36-14.96-.22-.63-.41-1.28-.58-1.93-.57-2.18-.96-4.43-1.13-6.77-.04-.44-.06-.95-.07-1.41-.38-10.37 3.57-19.87 10.23-26.8 6.38-6.65 15.25-10.91 25.19-11.26l76.57-2.72c-.66-.71-1.34-1.46-2.04-2.16-3.95-4.29-8.05-8.48-12.24-12.53-15.86-15.38-33.2-29.2-51.83-41.29l-43.07-27.93-32.63-21.16c-.37-.24-.74-.49-1.1-.75-2.36-1.67-4.48-3.55-6.34-5.64-1.63-1.84-3.07-3.79-4.28-5.88-6.78-11.6-6.93-26.52.89-38.58 2.94-4.54 6.72-8.22 11-10.96 4.71-3.03 10-4.9 15.47-5.55.49-.05.97-.1 1.44-.14 7.83-.63 15.86 1.22 22.94 5.82l7.14 4.61 78.01 50.58-69.23-90.88c-2.55-3.35-4.46-7.01-5.7-10.81-1.98-5.98-2.33-12.33-1.17-18.38 1.46-7.63 5.33-14.81 11.44-20.33.51-.48 1.06-.92 1.64-1.4.05-.05.14-.1.2-.17.61-.46 1.21-.9 1.81-1.35 2.96-2.05 6.13-3.59 9.42-4.63 7.12-2.28 14.76-2.27 21.89-.18 2.9.85 5.73 2.05 8.39 3.61 4.22 2.43 8 5.7 11.09 9.75l70.24 92.21-37.98-107.1c-1.88-5.3-2.45-10.75-1.92-16.01 1.32-12.65 9.14-24.14 21.24-29.66.86-.4 1.76-.77 2.68-1.12.15-.05.26-.1.39-.13 3.26-1.15 6.55-1.83 9.83-2.05 12.46-.83 24.56 4.78 32 14.78 2.13 2.86 3.86 6.09 5.12 9.63l32.93 92.96 9.39-69.38c2.73-20.14 21.23-34.23 41.36-31.49 20.13 2.69 34.25 21.22 31.52 41.35l-4.29 31.78c-3.39 25-3.78 50.21-1.27 75.14 2.54 24.94 7.97 49.55 16.31 73.36 7.35 21.06 18 40.85 31.52 58.6l4.99 6.57z" fill="#ddeafb"/><g fill="#cbe2ff"><path d="m316.993 16.561c-13.714-1.855-19.766 47.557-22.252 79.87-1.095 14.242-14.572 24.189-28.499 21.017l9.381-69.373c2.732-20.127 21.251-34.234 41.37-31.514z"/><path d="m185.99 2.263c-13.753 6.03 15.974 86.424 32.334 127.755 4.754 12.009-3.497 25.176-16.376 26.141l-37.964-107.092c-6.738-19.016 3.112-39.885 22.006-46.804z"/><path d="m141.923 198.72-69.228-90.88c-12.115-15.904-9.287-38.51 6.219-50.936-7.9 7.613 44.597 78.129 72.086 113.851 7.636 9.923 2.929 24.411-9.077 27.965z"/><path d="m262.843 255.574c-39.695-10.381-69.831 1.038-88.135 12.454-2.681 1.673-5.183 3.392-7.518 5.116-42.619-26.504-167.413-105.562-161.265-118.8-11.055 17.041-6.189 39.807 10.851 50.862l75.685 49.093c24.36 15.81 46.572 34.628 66.114 55.98 0 0 .36-.748 1.091-2.059 4.992-8.962 12.015-16.63 20.457-22.461 16.783-11.592 43.169-22.195 78.231-13.028 2.747.718 5.526.072 7.624-1.526 1.524-1.161 2.685-2.818 3.207-4.807 1.233-4.745-1.607-9.585-6.342-10.824z"/></g><path d="m364.19 488.071c-8.39 3.93-17.03 7.4-25.89 10.41l-64.04-84.26 21.95-15.63c.15.19.29.38.44.57z" fill="#ffcbbe"/><path d="m296.21 398.591-21.95 15.63-16.97-22.33c-5.49-7.21-14.19-11.06-23.25-10.7-.05-.02-.09-.01-.13-.01l-.02.01-149.27 5.31c-2.63.08-5.19-.11-7.67-.55-6.9-1.2-13.17-4.33-18.17-8.83-.02-.01-.01-.02-.01-.02-.36-.32-.71-.65-1.05-.98-4.23-4.09-7.49-9.2-9.36-14.96l-.01-.01c-.2-.63-.38-1.27-.56-1.91 0 0 0 0-.01-.01-.57-2.18-.96-4.43-1.13-6.77-.04-.44-.06-.95-.07-1.41.76 5.79 9.03 9.9 21.59 12.67 35.85 7.86 106.66 4.66 138.27-2.36 42.41-9.44 64.06 3.649 89.77 37.23z" fill="#cbe2ff"/></g><path d="m407.75 319.141-133.49 95.079-11.98-15.759 133.49-95.08z" fill="#cbe2ff"/><path d="m266.251 429.934c-3.125 0-6.202-1.46-8.153-4.2-3.204-4.498-2.155-10.742 2.344-13.946l151.147-107.656c4.497-3.204 10.741-2.155 13.946 2.344 3.204 4.498 2.155 10.742-2.344 13.946l-151.147 107.656c-1.759 1.253-3.786 1.856-5.793 1.856z" fill="#ddeafb"/><path d="m316.377 396.504-44.33 31.58c-1.76 1.25-3.79 1.85-5.79 1.85-3.13 0-6.21-1.46-8.16-4.2-3.2-4.49-2.15-10.74 2.35-13.94l40.23-28.66c-.2 2.86.55 5.81 2.35 8.33 2.5 3.51 6.45 5.38 10.45 5.38.971 0 1.95-.11 2.9-.34z" fill="#cbe2ff"/></g></g></svg>