<svg id="Capa_1" enable-background="new 0 0 512 512" height="512" viewBox="0 0 512 512" width="512" xmlns="http://www.w3.org/2000/svg"><g><path d="m512 256c0 62.29-22.25 119.38-59.24 163.77-31.654-5.904-23.477-21.463-45.927-7.173-7.41 4.72-28.633 68.583-36.543 72.533-25.57 12.78-53.59 21.41-83.16 24.99-10.2 1.24-20.59-21.717-31.13-21.717-9.58 0-19.04-.53-28.34-1.55-7.78-.86-15.45 21.537-23 19.997-18.58-3.78-36.43-9.58-53.31-17.16-18.404-22.48-28.245-61.489-46.155-76.459-8.11-6.78-19.348 17.479-36.315 17.479-42.72-45.75-68.88-107.18-68.88-174.71 0-141.38 114.62-256 256-256s256 114.62 256 256z" fill="#95d6a4"/><g><path d="m381.997 276.885h59.061v75.653h-59.061z" fill="#ddeafb"/><path d="m381.997 276.885h14.039v75.653h-14.039z" fill="#cbe2ff"/><path d="m171.262 23.236 26.202 167.526c.434 2.738.632 5.469.631 8.185-.004 19.771-11.13 38.212-29.233 47.262-17.912 8.951-29.236 27.255-29.232 47.278l-.018 45.56-31.949 39.21-27.12-39.223.018-45.56c.002-10.023-2.825-19.596-7.896-27.797-5.063-8.209-12.369-15.014-21.33-19.494-20.577-10.302-32.128-32.722-28.561-55.46l13.406-85.466c.038-.267.084-.541.122-.808l12.749-81.24c.634-4.065 4.128-7.07 8.247-7.069l2.67.001c4.607.001 8.352 3.747 8.35 8.369l-.02 122.921c-.001 3.265 1.318 6.217 3.453 8.338 2.128 2.144 5.079 3.464 8.344 3.465 6.163.001 11.29-4.727 11.772-10.867l9.944-126.023c.176-2.174 1.168-4.096 2.671-5.491 1.495-1.373 3.486-2.219 5.668-2.218 4.363.001 8.001 3.366 8.335 7.713l9.903 126.027c.236 3.059 1.631 5.782 3.744 7.743 2.112 1.946 4.927 3.128 8.016 3.137 6.522-.006 11.801-5.283 11.81-11.805l.02-122.921c.001-4.622 3.747-8.367 8.354-8.366l2.67.001c4.12 0 7.628 3.006 8.26 7.072z" fill="#ddeafb"/><path d="m108.058 377.773-.392.483-27.117-39.225.017-45.559c0-10.025-2.825-19.6-7.9-27.8-5.058-8.208-12.367-15.017-21.325-19.492-20.583-10.3-32.134-32.725-28.567-55.459l13.408-85.467c.042-.267.083-.542.125-.808l12.75-81.242c.633-4.067 4.125-7.067 8.242-7.067h2.675c1.925 0 3.7.65 5.108 1.75-1.275 1.275-2.167 3.142-2.433 5.317l-9.909 81.242c-.033.267-.067.542-.1.808l-10.417 85.467c-2.775 22.733 6.2 45.159 22.2 55.459 6.967 4.475 20.975 11.283 24.917 19.492 3.942 8.2 6.142 17.775 6.133 27.8l-.008 45.559z" fill="#cbe2ff"/><path d="m151.35 348.92v140.77c-31.34-14.04-59.33-34.21-82.47-58.98v-81.79c0-10.05 8.15-18.2 18.2-18.2h46.06c10.06 0 18.21 8.15 18.21 18.2z" fill="#dd5790"/><path d="m110.08 330.72c-10.05 0-18.2 8.15-18.2 18.2v103.56c-8.11-6.78-15.79-14.05-23-21.77v-81.79c0-10.05 8.15-18.2 18.21-18.2z" fill="#da387d"/><path d="m452.76 348.92v70.85c-22.56 27.09-50.62 49.45-82.47 65.36v-136.21c0-10.05 8.15-18.2 18.21-18.2h46.06c10.05 0 18.2 8.15 18.2 18.2z" fill="#dd5790"/><path d="m411.49 330.72c-10.05 0-18.2 8.15-18.2 18.2v123.19c-7.41 4.72-15.09 9.07-23 13.02v-136.21c0-10.05 8.15-18.2 18.21-18.2z" fill="#da387d"/><g><path d="m306.628 58.015c0-26.313-21.331-47.645-47.645-47.645-26.313 0-47.644 21.331-47.644 47.644v332.378h45.376v-59.403c0-16.82 9.727-32.123 24.957-39.263 15.23-7.14 24.957-22.442 24.957-39.262v-194.449z" fill="#ddeafb"/><path d="m268.623 11.353c-9.287 1.908-17.584 6.509-24.046 12.971-8.619 8.631-13.948 20.529-13.948 33.691v332.38h-19.289v-332.381c0-13.162 5.329-25.059 13.948-33.691 8.631-8.619 20.529-13.948 33.691-13.948 3.301.001 6.532.334 9.644.978z" fill="#cbe2ff"/><path d="m287.13 348.92v161.2c-10.2 1.24-20.59 1.88-31.13 1.88-17.58 0-34.75-1.77-51.34-5.15v-157.93c0-10.05 8.15-18.2 18.2-18.2h46.06c10.06 0 18.21 8.15 18.21 18.2z" fill="#dd5790"/><path d="m245.86 330.72c-10.05 0-18.2 8.15-18.2 18.2v161.53c-7.78-.86-15.45-2.06-23-3.6v-157.93c0-10.05 8.15-18.2 18.21-18.2z" fill="#da387d"/></g><ellipse cx="411.527" cy="152.834" fill="#ddeafb" rx="92.106" ry="136.697"/><g fill="#cbe2ff"><path d="m418.44 289.15c-2.279.254-4.585.381-6.909.381-50.871 0-92.109-61.203-92.109-136.697s41.238-136.697 92.108-136.697c2.324 0 4.63.127 6.909.381-47.648 5.248-85.2 64.272-85.2 136.316s37.553 131.068 85.201 136.316z"/><path d="m475.531 184.117c1.807-3.616 7.314-1.715 6.462 2.236-9.542 44.249-37.482 76.278-70.463 76.278-20.63 0-39.292-12.531-52.709-32.745-3.133-4.721 2.49-10.365 7.232-7.264 11.48 7.508 24.461 11.736 38.204 11.736 29.892.001 56.168-20.008 71.274-50.241z"/></g></g></g></svg>